<svg width="446" height="518" viewBox="0 0 446 518" fill="none" xmlns="http://www.w3.org/2000/svg">
<path d="M222.863 517.948C345.947 517.948 445.726 461.265 445.726 391.344C445.726 321.423 345.947 264.74 222.863 264.74C99.7792 264.74 0 321.423 0 391.344C0 461.265 99.7792 517.948 222.863 517.948Z" fill="#F5F5F5"/>
<path d="M315.605 471.17L149.247 375.114C147.783 374.271 146.568 373.057 145.723 371.595C144.878 370.132 144.433 368.473 144.433 366.784C144.433 365.095 144.878 363.436 145.723 361.974C146.568 360.512 147.783 359.298 149.247 358.454L165.658 348.106C168.49 346.474 171.702 345.615 174.971 345.615C178.24 345.615 181.452 346.474 184.285 348.106L350.666 444.173C352.13 445.016 353.345 446.23 354.19 447.692C355.035 449.154 355.48 450.814 355.48 452.503C355.48 454.192 355.035 455.851 354.19 457.313C353.345 458.775 352.13 459.989 350.666 460.832L334.255 471.17C331.421 472.81 328.205 473.674 324.93 473.674C321.656 473.674 318.439 472.81 315.605 471.17Z" fill="#E0E0E0"/>
<path d="M62.6571 383.597C82.5954 383.597 98.7586 374.315 98.7586 362.865C98.7586 351.416 82.5954 342.134 62.6571 342.134C42.7188 342.134 26.5557 351.416 26.5557 362.865C26.5557 374.315 42.7188 383.597 62.6571 383.597Z" fill="#E6E6E6"/>
<path d="M374.598 388.347L390.432 397.451C390.432 397.451 382.345 372.038 386.655 346.421C388.283 336.739 391.778 331.933 392.999 329.343C394.221 326.753 403.687 310.749 395.261 303.42C386.835 296.091 367.235 310.828 368.298 350.266C368.782 363.175 370.898 375.97 374.598 388.347Z" fill="#011142"/>
<path opacity="0.5" d="M374.598 388.347L390.432 397.451C390.432 397.451 382.345 372.038 386.655 346.421C388.283 336.739 391.778 331.933 392.999 329.343C394.221 326.753 403.687 310.749 395.261 303.42C386.835 296.091 367.235 310.828 368.298 350.266C368.782 363.175 370.898 375.97 374.598 388.347Z" fill="black"/>
<path d="M381.961 393.142C381.846 393.145 381.733 393.111 381.637 393.046C381.542 392.981 381.469 392.888 381.429 392.78C381.373 392.611 375.322 376.076 375.514 349.497C375.707 322.919 389.674 308.487 389.81 308.351C389.863 308.298 389.925 308.256 389.994 308.228C390.063 308.199 390.137 308.184 390.212 308.184C390.286 308.184 390.36 308.199 390.429 308.228C390.498 308.256 390.561 308.298 390.613 308.351C390.666 308.404 390.708 308.466 390.737 308.535C390.766 308.604 390.78 308.678 390.78 308.753C390.78 308.828 390.766 308.901 390.737 308.97C390.708 309.039 390.666 309.102 390.613 309.154C390.477 309.29 376.838 323.292 376.645 349.508C376.453 375.725 382.425 392.237 382.493 392.396C382.543 392.537 382.536 392.692 382.473 392.828C382.409 392.964 382.294 393.069 382.153 393.12C382.091 393.139 382.026 393.147 381.961 393.142Z" fill="white"/>
<path d="M381.202 392.237L402.849 404.678C405.105 406.012 407.78 406.446 410.342 405.895C412.903 405.343 415.163 403.847 416.67 401.704C418.103 399.474 418.708 396.812 418.378 394.183C417.338 382.941 412.452 380.351 418.435 375.34C424.418 370.33 425.978 369.979 425.639 365.161C425.3 360.343 422.009 358.24 420.448 356.34C418.887 354.44 414.567 350.458 417.507 344.577C420.448 338.696 424.463 333.007 418.378 330.406C414.748 328.845 408.697 330.926 404.716 335.246C400.734 339.567 397.455 342.677 393.643 343.718C389.832 344.758 381.892 344.928 382.231 351.499C382.571 358.07 384.312 360.321 382.752 363.25C379.811 368.724 367.019 371.834 381.202 392.237Z" fill="#011142"/>
<path d="M391.902 398.933C391.761 398.928 391.626 398.873 391.522 398.778C391.419 398.682 391.353 398.553 391.336 398.413C391.336 398.028 388.011 359.212 414.703 333.38C414.813 333.289 414.953 333.244 415.096 333.252C415.238 333.26 415.372 333.322 415.471 333.425C415.57 333.528 415.626 333.665 415.628 333.807C415.63 333.95 415.579 334.089 415.483 334.195C389.176 359.653 392.433 397.926 392.467 398.311C392.48 398.459 392.434 398.606 392.338 398.721C392.243 398.835 392.107 398.907 391.958 398.922L391.902 398.933Z" fill="white"/>
<path d="M396.189 365.523C396.046 365.524 395.909 365.47 395.804 365.374C395.699 365.277 395.635 365.145 395.623 365.003C395.386 361.995 394.539 359.067 393.133 356.397C391.727 353.727 389.792 351.372 387.446 349.474C387.385 349.431 387.333 349.377 387.293 349.314C387.253 349.251 387.226 349.18 387.213 349.107C387.201 349.033 387.203 348.958 387.219 348.885C387.236 348.812 387.267 348.743 387.31 348.683C387.352 348.622 387.406 348.57 387.468 348.53C387.53 348.49 387.599 348.463 387.672 348.451C387.745 348.438 387.819 348.44 387.891 348.457C387.963 348.473 388.031 348.504 388.091 348.547C390.591 350.53 392.652 353.01 394.143 355.831C395.635 358.652 396.524 361.752 396.754 364.935C396.767 365.086 396.719 365.237 396.622 365.353C396.524 365.469 396.385 365.543 396.234 365.557L396.189 365.523Z" fill="white"/>
<path d="M394.345 372.185C394.209 372.186 394.076 372.138 393.972 372.049C393.86 371.949 393.791 371.809 393.781 371.659C393.77 371.509 393.819 371.361 393.916 371.246C394.187 370.929 400.871 363.555 416.536 365.512C416.684 365.532 416.819 365.609 416.91 365.728C417.001 365.847 417.041 365.997 417.022 366.145C417.002 366.294 416.925 366.43 416.807 366.523C416.688 366.616 416.538 366.659 416.389 366.643C401.346 364.754 394.821 371.925 394.753 371.992C394.701 372.05 394.639 372.097 394.569 372.13C394.499 372.163 394.423 372.182 394.345 372.185Z" fill="white"/>
<path d="M310.536 459.69L164.231 375.216C153.905 369.255 145.535 353.263 145.535 339.499V26.2125C145.535 12.4482 153.905 6.12596 164.231 12.0863L310.536 96.5606C320.862 102.521 329.232 118.513 329.232 132.277V445.564C329.232 459.317 320.862 465.65 310.536 459.69Z" fill="#455A64"/>
<path d="M327.388 86.7096L181.071 2.23537C176.66 -0.309372 172.611 -0.603432 169.41 0.957345C169.018 1.15358 168.641 1.37654 168.279 1.62463L151.88 11.1589C155.182 9.1797 159.503 9.32673 164.242 12.0637L310.548 96.538C320.874 102.498 329.243 118.491 329.243 132.255V445.541C329.243 452.825 326.902 457.982 323.17 460.425L339.354 451.004C343.482 448.81 346.14 443.438 346.14 435.736V122.449C346.14 108.662 337.714 92.67 327.388 86.7096Z" fill="#37474F"/>
<path d="M329.232 132.255V445.541C329.232 452.825 326.89 457.982 323.158 460.425L339.354 451.004C343.482 448.81 346.14 443.438 346.14 435.736V122.449L329.288 132.232L329.232 132.255Z" fill="#263238"/>
<path d="M346.084 146.754L329.232 156.481V164.081L346.084 154.343V146.754Z" fill="#37474F"/>
<path d="M338.698 197.299C337.194 198.169 335.973 197.242 335.973 195.24V178.897C335.988 177.876 336.242 176.872 336.716 175.966C337.189 175.061 337.868 174.279 338.698 173.683C340.203 172.812 341.424 173.683 341.424 175.742V192.085C341.409 193.106 341.154 194.11 340.681 195.016C340.208 195.921 339.529 196.703 338.698 197.299Z" fill="#37474F"/>
<path d="M335.961 195.286V178.897C335.977 177.876 336.231 176.872 336.704 175.967C337.178 175.061 337.857 174.279 338.687 173.684C338.935 173.51 339.224 173.404 339.526 173.376C339.827 173.349 340.13 173.4 340.406 173.525L338.359 172.473C338.079 172.339 337.768 172.28 337.459 172.304C337.149 172.328 336.851 172.433 336.595 172.609C335.764 173.205 335.083 173.986 334.608 174.892C334.133 175.797 333.876 176.801 333.858 177.823V194.155C333.815 194.567 333.878 194.984 334.04 195.365C334.202 195.747 334.459 196.082 334.785 196.337L336.923 197.468C336.582 197.223 336.314 196.892 336.145 196.508C335.976 196.124 335.912 195.702 335.961 195.286Z" fill="#455A64"/>
<path d="M338.698 236.85C337.194 237.721 335.973 236.85 335.973 234.791V218.448C335.989 217.427 336.244 216.423 336.717 215.518C337.19 214.613 337.869 213.831 338.698 213.234C340.203 212.364 341.424 213.234 341.424 215.304V231.636C341.411 232.658 341.157 233.662 340.683 234.568C340.21 235.474 339.53 236.255 338.698 236.85Z" fill="#37474F"/>
<path d="M335.962 234.791V218.448C335.978 217.427 336.233 216.423 336.706 215.518C337.179 214.613 337.858 213.831 338.688 213.234C338.937 213.064 339.226 212.96 339.527 212.932C339.827 212.904 340.13 212.954 340.407 213.076L338.36 212.013C338.081 211.872 337.769 211.81 337.458 211.834C337.147 211.858 336.849 211.967 336.595 212.149C335.762 212.742 335.081 213.524 334.605 214.429C334.13 215.335 333.874 216.34 333.858 217.362V233.739C333.815 234.152 333.877 234.569 334.039 234.951C334.201 235.333 334.458 235.667 334.786 235.922L336.923 237.053C336.569 236.802 336.292 236.458 336.122 236.058C335.952 235.659 335.897 235.22 335.962 234.791Z" fill="#455A64"/>
<path d="M305.425 105.348L161.652 22.3106C161.052 21.9654 160.372 21.7832 159.68 21.7819C158.988 21.7806 158.307 21.9603 157.706 22.3033C157.105 22.6463 156.603 23.1405 156.252 23.737C155.901 24.3334 155.712 25.0114 155.703 25.7036V339.499C155.703 349.972 163.134 362.832 172.204 368.068L312.448 449.081C313.113 449.464 313.867 449.665 314.635 449.665C315.402 449.664 316.156 449.462 316.82 449.078C317.485 448.694 318.036 448.142 318.42 447.478C318.804 446.814 319.007 446.06 319.008 445.293V128.907C319.064 120.266 312.934 109.669 305.425 105.348Z" fill="#001142"/>
<path opacity="0.9" d="M305.425 105.348L161.652 22.3106C161.052 21.9654 160.372 21.7832 159.68 21.7819C158.988 21.7806 158.307 21.9603 157.706 22.3033C157.105 22.6463 156.603 23.1405 156.252 23.737C155.901 24.3334 155.712 25.0114 155.703 25.7036V339.499C155.703 349.972 163.134 362.832 172.204 368.068L312.448 449.081C313.113 449.464 313.867 449.665 314.635 449.665C315.402 449.664 316.156 449.462 316.82 449.078C317.485 448.694 318.036 448.142 318.42 447.478C318.804 446.814 319.007 446.06 319.008 445.293V128.907C319.064 120.266 312.934 109.669 305.425 105.348Z" fill="white"/>
<path d="M204.651 43.9919L206.879 53.3679L254.54 80.8512L262.773 76.4629L204.651 43.9919Z" fill="#455A64"/>
<path d="M218.666 53.0513C218.666 54.6121 217.535 55.2341 216.223 54.465C215.519 53.9974 214.934 53.3712 214.516 52.6366C214.098 51.9019 213.857 51.0794 213.814 50.2351C213.814 48.6856 214.945 48.0523 216.257 48.8327C216.961 49.2978 217.546 49.922 217.965 50.6548C218.383 51.3876 218.624 52.2085 218.666 53.0513Z" fill="#263238"/>
<path d="M250.775 72.9002C250.514 72.8981 250.258 72.8321 250.028 72.7079L225.689 59.1359C225.346 58.9341 225.094 58.6059 224.989 58.2215C224.884 57.837 224.934 57.4267 225.127 57.0783C225.321 56.7299 225.643 56.4709 226.025 56.3566C226.406 56.2423 226.818 56.2819 227.171 56.4668L251.521 70.0387C251.817 70.2032 252.05 70.4615 252.183 70.7729C252.316 71.0842 252.342 71.431 252.257 71.7587C252.171 72.0864 251.979 72.3764 251.711 72.583C251.443 72.7896 251.113 72.9012 250.775 72.9002Z" fill="#263238"/>
<path d="M185.855 87.6145C184.373 86.7549 183.299 87.5014 183.299 89.3901C183.299 90.3347 183.532 91.2646 183.978 92.0972C184.424 92.9298 185.068 93.6394 185.855 94.1629C186.276 94.4185 186.759 94.5537 187.251 94.5537C187.744 94.5537 188.227 94.4185 188.648 94.1629L191.012 98.4381C190.18 98.897 189.238 99.1156 188.289 99.0697C187.34 99.0238 186.423 98.715 185.64 98.178C183.719 97.0031 182.118 95.3729 180.978 93.4318C179.838 91.4906 179.194 89.2984 179.103 87.049C179.103 82.853 181.919 81.394 185.798 83.656C187.989 85.0667 189.783 87.0131 191.012 89.311L188.648 91.1884C188.065 89.7617 187.098 88.5246 185.855 87.6145Z" fill="#001142"/>
<path d="M204.619 101.786C204.619 106.016 201.757 107.441 197.833 105.179C195.858 103.999 194.205 102.348 193.021 100.375C191.837 98.4023 191.159 96.1673 191.047 93.869C191.047 89.639 193.908 88.214 197.833 90.476C199.813 91.651 201.47 93.2998 202.654 95.274C203.839 97.2483 204.514 99.486 204.619 101.786ZM195.243 96.3911C195.263 97.3622 195.513 98.3146 195.973 99.17C196.433 100.025 197.09 100.759 197.889 101.311C199.292 102.125 200.423 101.311 200.423 99.3882C200.419 98.4391 200.187 97.5047 199.746 96.6642C199.305 95.8236 198.668 95.1015 197.889 94.5589C196.464 93.7333 195.243 94.4345 195.243 96.3911Z" fill="#001142"/>
<path d="M209.176 97.2958L214.062 107.475V100.146L217.76 102.284V116.545L214.367 114.577L209.504 104.489V111.773L205.783 109.624V95.3279L209.176 97.2958Z" fill="#001142"/>
<path d="M229.851 109.228V112.96L226.322 110.924V121.465L222.239 119.102V108.561L218.733 106.536V102.815L229.851 109.228Z" fill="#001142"/>
<path d="M237.814 126.08L233.176 123.399L232.543 125.05L228.358 122.63L233.572 111.377L237.768 113.797L242.79 130.966L238.436 128.455L237.814 126.08ZM236.807 122.121L235.54 117.247L234.24 120.64L236.807 122.121Z" fill="#001142"/>
<path d="M249.271 124.225C247.789 123.377 246.715 124.112 246.715 126.012C246.717 126.956 246.951 127.885 247.396 128.717C247.842 129.55 248.486 130.26 249.271 130.785C249.695 131.038 250.179 131.171 250.673 131.171C251.167 131.171 251.651 131.038 252.075 130.785L254.439 135.06C253.604 135.513 252.66 135.729 251.711 135.683C250.762 135.637 249.843 135.332 249.056 134.8C247.134 133.624 245.532 131.992 244.391 130.048C243.251 128.105 242.608 125.911 242.519 123.659C242.519 119.463 245.346 118.004 249.214 120.266C251.402 121.684 253.199 123.628 254.439 125.921L252.075 127.787C251.48 126.368 250.51 125.137 249.271 124.225Z" fill="#001142"/>
<path d="M265.591 129.869V133.59L262.063 131.554V142.129L257.98 139.765V129.224L254.474 127.2V123.479L265.591 129.869Z" fill="#001142"/>
<path d="M277.657 147.377C278.664 147.953 279.433 147.501 279.433 146.087V137.865L283.527 140.217V148.44C283.527 152.229 281.265 153.36 277.646 151.29C275.903 150.321 274.437 148.922 273.389 147.225C272.342 145.527 271.747 143.59 271.663 141.597V133.375L275.757 135.739V143.961C275.773 144.642 275.954 145.308 276.285 145.903C276.616 146.499 277.087 147.004 277.657 147.377Z" fill="#001142"/>
<path d="M290.121 147.422C289.658 147.162 289.364 147.15 289.364 147.58C289.364 149.367 295.754 151.946 295.754 157.114C295.754 160.281 293.345 160.293 290.563 158.687C288.117 157.188 286.01 155.197 284.376 152.839L285.892 150.17C287.135 152.096 288.731 153.769 290.596 155.101C291.196 155.452 291.58 155.452 291.58 154.943C291.58 153.088 285.179 150.622 285.179 145.612C285.179 142.762 287.26 142.219 290.472 144.029C292.541 145.28 294.362 146.902 295.844 148.813L294.363 151.55C293.139 149.991 291.713 148.603 290.121 147.422Z" fill="#001142"/>
<path d="M165.284 157.895C169.873 152.258 172.183 145.107 171.758 137.851C171.334 130.596 168.205 123.763 162.99 118.701C157.774 113.638 150.851 110.715 143.586 110.506C136.321 110.298 129.242 112.82 123.745 117.574C118.248 122.329 114.732 128.972 113.892 136.191C113.052 143.41 114.948 150.682 119.206 156.572C123.465 162.463 129.776 166.543 136.894 168.008C144.013 169.474 151.423 168.218 157.661 164.488L171.821 170.641L165.284 157.895Z" fill="#011142"/>
<path opacity="0.4" d="M165.284 157.895C169.873 152.258 172.183 145.107 171.758 137.851C171.334 130.596 168.205 123.763 162.99 118.701C157.774 113.638 150.851 110.715 143.586 110.506C136.321 110.298 129.242 112.82 123.745 117.574C118.248 122.329 114.732 128.972 113.892 136.191C113.052 143.41 114.948 150.682 119.206 156.572C123.465 162.463 129.776 166.543 136.894 168.008C144.013 169.474 151.423 168.218 157.661 164.488L171.821 170.641L165.284 157.895Z" fill="black"/>
<path d="M131.988 137.989C131.988 137.548 131.671 137.299 131.094 137.299C129.756 137.474 128.506 138.064 127.52 138.984L125.914 135.863C127.605 134.591 129.647 133.872 131.761 133.804C134.476 133.804 136.534 135.23 136.534 137.356C136.534 138.871 135.403 140.33 133.955 141.789L131.931 143.791H136.715V147.116H126.434V144.391L131.015 139.652C131.508 139.215 131.849 138.633 131.988 137.989Z" fill="white"/>
<path d="M145.085 133.997L141.963 141.484H143.241V138.962H147.177V141.484H148.67V144.572H147.177V147.116H143.241V144.572H137.643V141.767L141.036 133.997H145.085Z" fill="white"/>
<path d="M160.817 140.59V147.116H156.61V141.801C156.634 141.628 156.621 141.451 156.571 141.284C156.522 141.116 156.437 140.961 156.322 140.829C156.207 140.697 156.066 140.592 155.906 140.519C155.747 140.447 155.575 140.409 155.4 140.409C154.574 140.409 154.054 141.054 154.054 142.049V147.116H149.847V133.25H154.054V138.351C154.383 137.831 154.842 137.405 155.385 137.116C155.928 136.826 156.538 136.683 157.153 136.7C157.657 136.687 158.159 136.78 158.624 136.974C159.09 137.168 159.509 137.459 159.855 137.826C160.201 138.193 160.465 138.629 160.631 139.105C160.797 139.582 160.86 140.088 160.817 140.59Z" fill="white"/>
<path d="M298.006 245.683V386.209C298.008 387.799 297.592 389.36 296.798 390.738C296.005 392.115 294.863 393.259 293.487 394.055C292.111 394.851 290.55 395.27 288.961 395.27C287.372 395.271 285.81 394.853 284.434 394.058L208.747 350.356L195.334 342.62C190.715 339.95 186.878 336.113 184.206 331.495C181.535 326.876 180.122 321.638 180.11 316.302V175.764C180.108 174.175 180.524 172.613 181.318 171.236C182.111 169.858 183.253 168.714 184.629 167.919C186.004 167.123 187.566 166.704 189.155 166.703C190.744 166.702 192.306 167.121 193.682 167.915L282.805 219.364C287.426 222.031 291.263 225.867 293.932 230.487C296.6 235.107 298.005 240.348 298.006 245.683Z" fill="#001142"/>
<path opacity="0.5" d="M298.006 245.683V386.209C298.008 387.799 297.592 389.36 296.798 390.738C296.005 392.115 294.863 393.259 293.487 394.055C292.111 394.851 290.55 395.27 288.961 395.27C287.372 395.271 285.81 394.853 284.434 394.058L208.747 350.356L195.334 342.62C190.715 339.95 186.878 336.113 184.206 331.495C181.535 326.876 180.122 321.638 180.11 316.302V175.764C180.108 174.175 180.524 172.613 181.318 171.236C182.111 169.858 183.253 168.714 184.629 167.919C186.004 167.123 187.566 166.704 189.155 166.703C190.744 166.702 192.306 167.121 193.682 167.915L282.805 219.364C287.426 222.031 291.263 225.867 293.932 230.487C296.6 235.107 298.005 240.348 298.006 245.683Z" fill="white"/>
<path d="M254.406 328.834C254.406 328.834 268.578 352.336 258.342 378.835L208.714 350.357L254.406 328.834Z" fill="#263238"/>
<path d="M277.006 223.241C278.079 214.53 271.887 206.6 263.177 205.527C254.467 204.454 246.536 210.646 245.464 219.356C244.391 228.067 250.583 235.997 259.293 237.07C268.003 238.142 275.934 231.951 277.006 223.241Z" fill="#111111"/>
<path d="M261.316 176.726C261.316 176.726 266.191 168.809 267.684 169.386C269.177 169.962 266.711 177.506 266.711 177.506C266.711 177.506 274.085 179.044 272.717 180.899C271.348 182.754 262.334 182.313 262.334 182.313L261.316 176.726Z" fill="#111111"/>
<path d="M264.71 197.129C261.317 222.622 239.828 222.622 239.828 222.622L194.814 202.807C194.814 202.807 191.421 199.832 190.38 193.001C189.981 190.203 189.981 187.362 190.38 184.564C190.38 184.564 190.38 184.507 190.38 184.484C191.817 173.762 199.836 162.238 217.298 158.698C221.125 157.925 225.021 157.546 228.925 157.567C230.814 157.56 232.701 157.654 234.58 157.849C248.152 159.184 257.664 165.518 262.199 175.369C263.219 177.592 263.978 179.926 264.461 182.324C265.381 187.209 265.465 192.215 264.71 197.129Z" fill="#111111"/>
<path d="M156.642 246.44C156.642 246.44 140.661 245.886 134.509 261.46C134.509 261.46 141.295 266.041 150.196 261.46C159.097 256.879 156.642 246.44 156.642 246.44Z" fill="#001142"/>
<path opacity="0.5" d="M156.642 246.44C156.642 246.44 140.661 245.886 134.509 261.46C134.509 261.46 141.295 266.041 150.196 261.46C159.097 256.879 156.642 246.44 156.642 246.44Z" fill="black"/>
<path d="M156.19 253.939C156.19 253.939 151.666 234.282 149.28 234.045C146.894 233.807 146.43 240.039 146.622 243.556L140.967 231.387C140.788 231.009 140.533 230.671 140.218 230.395C139.903 230.12 139.535 229.911 139.137 229.783C138.738 229.655 138.318 229.609 137.901 229.65C137.485 229.69 137.081 229.816 136.715 230.018C131.06 233.129 121.141 242.584 142.053 265.961L156.19 253.939Z" fill="#E09E9E"/>
<path d="M214.097 240.344L210.704 239.903C207.285 239.45 203.806 239.915 200.626 241.251C197.446 242.586 194.678 244.744 192.608 247.504L172.42 274.376L156.586 246.44C156.586 246.44 154.686 265.441 134.452 261.46L156.179 298.025C157.554 300.34 159.467 302.288 161.757 303.705C164.047 305.121 166.645 305.963 169.33 306.16C172.015 306.357 174.708 305.902 177.18 304.834C179.652 303.766 181.829 302.117 183.526 300.027L202.12 277.17L214.097 240.344Z" fill="#001142"/>
<path d="M257.188 303.058C252.664 314.527 252.167 316.766 254.926 322.5C256.848 326.735 258.363 331.143 259.45 335.665C259.45 335.665 238.482 359.167 208.635 350.368L195.221 342.632C192.431 341.023 189.919 338.976 187.779 336.57L191.862 306.123C192.068 304.521 191.905 302.892 191.387 301.362L187.1 288.796C185.009 282.659 184.697 276.055 186.203 269.748C187.708 263.441 190.968 257.69 195.606 253.159L210.014 239.078L247.858 243.918L253.513 245.536C257.215 246.606 260.406 248.977 262.501 252.212C264.595 255.447 265.452 259.329 264.913 263.145C263.058 276.491 260.027 295.854 257.188 303.058Z" fill="#001142"/>
<path opacity="0.5" d="M257.188 303.058C252.664 314.527 252.167 316.766 254.926 322.5C256.848 326.735 258.363 331.143 259.45 335.665C259.45 335.665 238.482 359.167 208.635 350.368L195.221 342.632C192.431 341.023 189.919 338.976 187.779 336.57L191.862 306.123C192.068 304.521 191.905 302.892 191.387 301.362L187.1 288.796C185.009 282.659 184.697 276.055 186.203 269.748C187.708 263.441 190.968 257.69 195.606 253.159L210.014 239.078L247.858 243.918L253.513 245.536C257.215 246.606 260.406 248.977 262.501 252.212C264.595 255.447 265.452 259.329 264.913 263.145C263.058 276.491 260.027 295.854 257.188 303.058Z" fill="black"/>
<path d="M234.365 268.8L226.787 262.342C225.985 261.656 225.017 261.19 223.98 260.992C222.942 260.794 221.871 260.869 220.872 261.211L211.711 264.367L210.478 259.232C210.286 258.433 209.934 257.681 209.443 257.022C208.952 256.363 208.333 255.811 207.623 255.397C206.913 254.984 206.126 254.719 205.311 254.618C204.495 254.517 203.668 254.582 202.878 254.81L198.908 255.941L205.626 243.07C207.82 238.878 211.199 235.425 215.342 233.14L217.977 231.692L239.749 232.823C239.749 232.823 247.858 236.216 247.858 243.85L234.365 268.732" fill="#001142"/>
<path d="M239.839 242.471L218.011 259.481V205.317H239.839V242.471Z" fill="#E09E9E"/>
<path d="M218.35 238.003L211.711 264.412L239.748 242.471L218.35 238.003Z" fill="#E09E9E"/>
<path d="M218.01 234.079C222.864 232.276 227.301 229.506 231.051 225.937C234.802 222.367 237.788 218.072 239.827 213.314V205.317H217.999L218.01 234.079Z" fill="#B47171"/>
<path d="M222.716 165.178C214.437 165.178 196.838 169.793 194.803 191.463C192.767 213.133 194.735 229.917 205.909 231.545C217.083 233.174 243.051 225.065 246.535 197.016C250.018 168.967 230.78 165.178 222.716 165.178Z" fill="#E09E9E"/>
<path d="M209.686 200.635V213.404L202.199 211.108L209.686 200.635Z" fill="#B47171"/>
<path d="M218.01 205.442C219.447 205.442 220.612 204.277 220.612 202.84C220.612 201.404 219.447 200.239 218.01 200.239C216.574 200.239 215.409 201.404 215.409 202.84C215.409 204.277 216.574 205.442 218.01 205.442Z" fill="#263238"/>
<path d="M203.489 201.031C203.486 201.545 203.332 202.047 203.045 202.473C202.758 202.899 202.351 203.231 201.875 203.426C201.4 203.621 200.877 203.671 200.373 203.57C199.869 203.468 199.407 203.219 199.044 202.855C198.681 202.491 198.435 202.027 198.335 201.523C198.236 201.019 198.288 200.496 198.485 200.022C198.682 199.547 199.016 199.141 199.443 198.856C199.871 198.571 200.373 198.418 200.887 198.418C201.23 198.418 201.569 198.486 201.885 198.617C202.202 198.749 202.489 198.941 202.731 199.184C202.973 199.427 203.164 199.715 203.294 200.032C203.424 200.349 203.49 200.688 203.489 201.031Z" fill="#263238"/>
<path d="M197.709 195.602L202.799 192.582C202.799 192.582 200.853 190.558 198.908 191.768C196.963 192.978 197.709 195.602 197.709 195.602Z" fill="#263238"/>
<path d="M206.169 218.584C208.647 218.765 211.114 218.103 213.17 216.706C213.17 216.706 213.656 220.405 210.557 221.106C207.458 221.807 206.169 218.584 206.169 218.584Z" fill="#B47171"/>
<path d="M201.725 172.552C201.725 172.552 204.835 202.467 245.517 203.406C245.517 203.406 257.811 173.672 233.517 164.013C209.223 154.355 201.725 172.552 201.725 172.552Z" fill="#111111"/>
<path d="M257.494 198.927L252.495 196.032C250.595 194.901 247.971 195.059 245.065 196.733C239.297 200.058 234.614 208.167 234.614 214.829C234.614 218.165 235.745 220.484 237.691 221.615L242.599 224.442L242.882 224.601L243.051 224.703C244.906 225.607 247.383 225.393 250.109 223.82C255.877 220.427 260.559 212.386 260.559 205.724C260.525 202.354 259.36 200.024 257.494 198.927Z" fill="#FF8C32"/>
<path d="M257.455 215.962C261.534 208.898 261.534 201.261 257.455 198.907C253.376 196.552 246.763 200.37 242.684 207.435C238.605 214.499 238.605 222.136 242.684 224.49C246.763 226.845 253.376 223.027 257.455 215.962Z" fill="#001142"/>
<path opacity="0.5" d="M257.455 215.962C261.534 208.898 261.534 201.261 257.455 198.907C253.376 196.552 246.763 200.37 242.684 207.435C238.605 214.499 238.605 222.136 242.684 224.49C246.763 226.845 253.376 223.027 257.455 215.962Z" fill="#FF8C32"/>
<path d="M259.496 205.204L256.103 203.225C254.814 202.456 253.015 202.558 251.025 203.7C248.946 205.059 247.215 206.888 245.973 209.039C244.732 211.191 244.013 213.604 243.877 216.084C243.877 218.346 244.68 219.964 245.981 220.71L249.374 222.644C249.434 222.688 249.498 222.726 249.566 222.757L249.679 222.825C250.474 223.127 251.331 223.229 252.175 223.122C253.019 223.016 253.824 222.704 254.52 222.214C256.598 220.857 258.327 219.029 259.569 216.88C260.81 214.731 261.529 212.32 261.668 209.841C261.577 207.545 260.785 205.951 259.496 205.204Z" fill="#FF8C32"/>
<path d="M261.576 209.819C261.437 212.297 260.719 214.708 259.477 216.858C258.235 219.007 256.506 220.834 254.428 222.192C250.469 224.454 247.269 222.622 247.269 218.064C247.403 215.583 248.121 213.169 249.365 211.019C250.609 208.869 252.344 207.043 254.428 205.691C258.375 203.406 261.576 205.25 261.576 209.819Z" fill="#001142"/>
<path opacity="0.3" d="M261.576 209.819C261.437 212.297 260.719 214.708 259.477 216.858C258.235 219.007 256.506 220.834 254.428 222.192C250.469 224.454 247.269 222.622 247.269 218.064C247.403 215.583 248.121 213.169 249.365 211.019C250.609 208.869 252.344 207.043 254.428 205.691C258.375 203.406 261.576 205.25 261.576 209.819Z" fill="#FF8C32"/>
<path d="M241.965 159.342C238.723 156.838 234.752 155.46 230.656 155.418H229.649C225.501 155.373 221.358 155.752 217.287 156.549C218.034 156.549 218.78 156.549 219.549 156.549H217.287V158.652H219.391C226.641 158.899 233.511 161.955 238.549 167.174C243.587 172.394 246.398 179.368 246.388 186.622V195.523C246.387 195.875 246.461 196.223 246.604 196.544C246.747 196.866 246.955 197.154 247.217 197.389C247.478 197.625 247.786 197.803 248.12 197.912C248.455 198.021 248.809 198.059 249.159 198.022H249.419L251.681 197.321C251.53 197.369 251.375 197.399 251.217 197.412C251.891 197.32 252.508 196.984 252.951 196.466C253.393 195.949 253.629 195.287 253.615 194.607V186.351C253.592 171.41 247.134 163.38 241.965 159.342Z" fill="#FF8C32"/>
<path d="M227.726 230.923C226.793 230.923 225.871 230.723 225.023 230.335L217.954 227.066C217.844 227.027 217.743 226.965 217.657 226.884C217.572 226.803 217.504 226.706 217.459 226.598C217.413 226.49 217.39 226.373 217.392 226.256C217.393 226.138 217.419 226.023 217.468 225.916C217.517 225.809 217.587 225.713 217.675 225.635C217.762 225.557 217.865 225.498 217.977 225.461C218.088 225.425 218.206 225.412 218.323 225.423C218.44 225.435 218.553 225.471 218.656 225.528L225.724 228.797C226.626 229.216 227.636 229.343 228.613 229.161C229.59 228.978 230.486 228.495 231.176 227.779L237.962 220.767C238.121 220.608 238.336 220.519 238.561 220.519C238.786 220.519 239.002 220.608 239.161 220.767C239.317 220.927 239.404 221.142 239.404 221.366C239.404 221.59 239.317 221.805 239.161 221.965L232.375 228.978C231.77 229.598 231.047 230.09 230.249 230.424C229.45 230.758 228.592 230.928 227.726 230.923Z" fill="#001142"/>
<path opacity="0.5" d="M227.726 230.923C226.793 230.923 225.871 230.723 225.023 230.335L217.954 227.066C217.844 227.027 217.743 226.965 217.657 226.884C217.572 226.803 217.504 226.706 217.459 226.598C217.413 226.49 217.39 226.373 217.392 226.256C217.393 226.138 217.419 226.023 217.468 225.916C217.517 225.809 217.587 225.713 217.675 225.635C217.762 225.557 217.865 225.498 217.977 225.461C218.088 225.425 218.206 225.412 218.323 225.423C218.44 225.435 218.553 225.471 218.656 225.528L225.724 228.797C226.626 229.216 227.636 229.343 228.613 229.161C229.59 228.978 230.486 228.495 231.176 227.779L237.962 220.767C238.121 220.608 238.336 220.519 238.561 220.519C238.786 220.519 239.002 220.608 239.161 220.767C239.317 220.927 239.404 221.142 239.404 221.366C239.404 221.59 239.317 221.805 239.161 221.965L232.375 228.978C231.77 229.598 231.047 230.09 230.249 230.424C229.45 230.758 228.592 230.928 227.726 230.923Z" fill="#FF8C32"/>
<path d="M219.808 224.691C219.808 225.344 219.614 225.983 219.252 226.526C218.889 227.069 218.373 227.492 217.769 227.742C217.166 227.992 216.502 228.058 215.861 227.93C215.221 227.803 214.632 227.488 214.17 227.027C213.709 226.565 213.394 225.976 213.267 225.336C213.139 224.695 213.205 224.031 213.455 223.427C213.704 222.824 214.128 222.308 214.671 221.945C215.214 221.582 215.852 221.389 216.506 221.389C217.382 221.389 218.222 221.737 218.841 222.356C219.46 222.975 219.808 223.815 219.808 224.691Z" fill="#001142"/>
<path opacity="0.5" d="M219.808 224.691C219.808 225.344 219.614 225.983 219.252 226.526C218.889 227.069 218.373 227.492 217.769 227.742C217.166 227.992 216.502 228.058 215.861 227.93C215.221 227.803 214.632 227.488 214.17 227.027C213.709 226.565 213.394 225.976 213.267 225.336C213.139 224.695 213.205 224.031 213.455 223.427C213.704 222.824 214.128 222.308 214.671 221.945C215.214 221.582 215.852 221.389 216.506 221.389C217.382 221.389 218.222 221.737 218.841 222.356C219.46 222.975 219.808 223.815 219.808 224.691Z" fill="#FF8C32"/>
<path d="M253.592 186.35V194.607C253.606 195.287 253.37 195.949 252.928 196.466C252.485 196.984 251.868 197.32 251.194 197.412C250.821 197.451 250.445 197.412 250.088 197.297C249.732 197.181 249.404 196.992 249.125 196.741C248.847 196.49 248.624 196.184 248.472 195.841C248.32 195.499 248.241 195.128 248.242 194.754V186.35C248.248 182.34 247.443 178.369 245.875 174.678C244.307 170.987 242.009 167.651 239.118 164.871C236.227 162.091 232.804 159.925 229.054 158.502C225.304 157.08 221.305 156.431 217.298 156.594C221.369 155.797 225.511 155.418 229.66 155.463H230.644C234.74 155.505 238.711 156.883 241.954 159.387C247.134 163.38 253.592 171.41 253.592 186.35Z" fill="#001142"/>
<path opacity="0.5" d="M253.592 186.35V194.607C253.606 195.287 253.37 195.949 252.928 196.466C252.485 196.984 251.868 197.32 251.194 197.412C250.821 197.451 250.445 197.412 250.088 197.297C249.732 197.181 249.404 196.992 249.125 196.741C248.847 196.49 248.624 196.184 248.472 195.841C248.32 195.499 248.241 195.128 248.242 194.754V186.35C248.248 182.34 247.443 178.369 245.875 174.678C244.307 170.987 242.009 167.651 239.118 164.871C236.227 162.091 232.804 159.925 229.054 158.502C225.304 157.08 221.305 156.431 217.298 156.594C221.369 155.797 225.511 155.418 229.66 155.463H230.644C234.74 155.505 238.711 156.883 241.954 159.387C247.134 163.38 253.592 171.41 253.592 186.35Z" fill="#FF8C32"/>
<path d="M240.88 341.942C240.88 341.942 235.406 357.018 254.973 363.804C254.973 363.804 261.363 354.417 254.973 346.737C248.583 339.058 240.88 341.942 240.88 341.942Z" fill="#001142"/>
<path opacity="0.7" d="M240.88 341.942C240.88 341.942 235.406 357.018 254.973 363.804C254.973 363.804 261.363 354.417 254.973 346.737C248.583 339.058 240.88 341.942 240.88 341.942Z" fill="black"/>
<path d="M247.745 342.632C247.745 342.632 228.631 349.633 228.732 352.347C228.834 355.061 236.853 353.207 236.853 353.207L233.924 355.129C230.839 357.142 228.45 360.057 227.081 363.476C226.783 364.23 226.772 365.068 227.052 365.829C227.331 366.59 227.881 367.222 228.597 367.604L235.858 371.45C236.268 371.667 236.717 371.8 237.18 371.841C237.642 371.882 238.108 371.829 238.55 371.687C238.991 371.545 239.4 371.315 239.752 371.012C240.103 370.709 240.391 370.339 240.597 369.923C241.001 369.123 241.561 368.411 242.242 367.829C242.923 367.247 243.713 366.805 244.566 366.53C248.514 365.218 255.876 361.44 258.828 351.103L247.745 342.632Z" fill="#E09E9E"/>
<path d="M253.479 245.513C253.479 245.513 243.3 251.168 248.706 268.336C254.113 285.505 264.258 312.14 264.258 312.14L240.88 341.942C243.377 342.243 245.783 343.068 247.941 344.362C250.098 345.656 251.958 347.39 253.4 349.452C254.781 351.548 255.644 353.943 255.917 356.438C256.191 358.934 255.867 361.458 254.972 363.804L283.994 326.481C286.677 323.032 288.459 318.968 289.178 314.657C289.897 310.347 289.53 305.925 288.11 301.791L275.669 265.464C274.149 261.026 271.622 257.001 268.286 253.702C264.95 250.404 260.897 247.922 256.442 246.452L253.479 245.513Z" fill="#001142"/>
<path d="M81.6578 144.096L36.678 118.084C36.1604 117.725 35.5615 117.501 34.9355 117.432C34.3095 117.362 33.6762 117.45 33.0927 117.688C32.9698 117.744 32.8524 117.813 32.7421 117.891L22.959 123.625H23.0268C21.7941 124.327 21.0137 125.955 21.0137 128.285V178.32C21.0137 182.55 23.581 187.47 26.7591 189.302L71.7389 215.315C72.3096 215.728 72.989 215.964 73.6927 215.994C74.3964 216.025 75.0935 215.848 75.6974 215.485C75.6669 215.497 75.6397 215.517 75.6183 215.542L85.3335 209.887C86.6002 209.208 87.4033 207.557 87.4033 205.193V155.078C87.4033 150.849 84.8811 145.929 81.6578 144.096Z" fill="#001142"/>
<path d="M85.7972 148.835C84.8872 146.9 83.4532 145.258 81.6578 144.096L36.678 118.084C36.1604 117.725 35.5615 117.501 34.9355 117.432C34.3095 117.362 33.6761 117.45 33.0927 117.688C32.9698 117.744 32.8524 117.813 32.7421 117.891L22.959 123.625C23.5574 123.32 24.2285 123.184 24.8987 123.234C25.5689 123.284 26.2126 123.517 26.7591 123.908L71.7389 149.921C73.5955 151.135 75.0669 152.854 75.9802 154.875L85.7972 148.835Z" fill="#001142"/>
<path d="M77.4853 210.916C77.4853 213.178 76.7614 214.75 75.6191 215.44L85.3344 209.785C86.6011 209.106 87.4041 207.455 87.4041 205.091V155.078C87.3563 152.901 86.8067 150.765 85.7981 148.835L75.9811 154.875C76.9236 156.748 77.4375 158.807 77.4853 160.903V210.916Z" fill="#001142"/>
<path opacity="0.3" d="M85.7972 148.835C84.8872 146.9 83.4532 145.258 81.6578 144.096L36.678 118.084C36.1604 117.725 35.5615 117.501 34.9355 117.432C34.3095 117.362 33.6761 117.45 33.0927 117.688C32.9698 117.744 32.8524 117.813 32.7421 117.891L22.959 123.625C23.5574 123.32 24.2285 123.184 24.8987 123.234C25.5689 123.284 26.2126 123.517 26.7591 123.908L71.7389 149.921C73.5955 151.135 75.0669 152.854 75.9802 154.875L85.7972 148.835Z" fill="black"/>
<path opacity="0.6" d="M77.4853 210.916C77.4853 213.178 76.7614 214.75 75.6191 215.44L85.3344 209.785C86.6011 209.106 87.4041 207.455 87.4041 205.091V155.078C87.3563 152.901 86.8067 150.765 85.7981 148.835L75.9811 154.875C76.9236 156.748 77.4375 158.807 77.4853 160.903V210.916Z" fill="black"/>
<path d="M64.2966 175.233C64.2966 181.713 61.7293 183.919 57.8839 181.691C56.8231 181.087 55.8955 180.274 55.1569 179.303C54.4183 178.331 53.884 177.219 53.5861 176.036C52.4551 177.427 50.702 177.517 48.2365 176.092C44.1875 173.751 40.9981 168.175 40.9981 162.758C40.9981 157.34 44.1536 155.474 48.2365 157.827C50.3083 159.048 51.9818 160.843 53.0545 162.995V160.858L57.3184 163.323V175.04C57.2549 175.657 57.3615 176.279 57.6267 176.839C57.8919 177.4 58.3055 177.877 58.8226 178.218C60.259 179.055 61.1412 177.642 61.1412 173.446C61.1412 166.106 56.4362 158.324 49.4806 154.309C42.5249 150.294 37.8313 153.088 37.8313 160.643C37.9224 164.652 39.0271 168.572 41.0423 172.039C43.0575 175.506 45.9177 178.406 49.3562 180.469C51.2231 181.619 53.3432 182.295 55.5314 182.437L56.538 186.339C53.9901 186.133 51.5281 185.323 49.3562 183.975C40.3082 178.739 34.3252 168.198 34.3252 158.652C34.3252 149.107 40.3647 145.646 49.4806 150.916C58.291 155.994 64.2966 166.162 64.2966 175.233ZM53.1224 169.793C53.1444 168.358 52.7944 166.943 52.1066 165.684C51.4188 164.426 50.4167 163.367 49.1978 162.611C46.9358 161.287 45.3185 162.215 45.3185 165.291C45.2894 166.728 45.6311 168.147 46.3106 169.413C46.9902 170.679 47.9845 171.749 49.1978 172.518C51.4598 173.796 53.1224 172.971 53.1224 169.793Z" fill="#001142"/>
<g opacity="0.9">
<path d="M64.2966 175.233C64.2966 181.713 61.7293 183.919 57.8839 181.691C56.8231 181.087 55.8955 180.274 55.1569 179.303C54.4183 178.331 53.884 177.22 53.5861 176.036C52.4551 177.427 50.702 177.517 48.2365 176.092C44.1875 173.751 40.9981 168.175 40.9981 162.758C40.9981 157.34 44.1536 155.474 48.2365 157.827C50.3083 159.048 51.9818 160.843 53.0545 162.995V160.858L57.3184 163.323V175.041C57.2549 175.657 57.3615 176.279 57.6267 176.84C57.8919 177.4 58.3055 177.877 58.8226 178.219C60.259 179.056 61.1412 177.642 61.1412 173.446C61.1412 166.106 56.4362 158.324 49.4806 154.309C42.5249 150.294 37.8313 153.088 37.8313 160.643C37.9224 164.652 39.0271 168.572 41.0423 172.039C43.0575 175.506 45.9177 178.406 49.3562 180.469C51.2231 181.619 53.3432 182.295 55.5314 182.437L56.538 186.339C53.9901 186.134 51.5281 185.323 49.3562 183.975C40.3082 178.739 34.3252 168.198 34.3252 158.652C34.3252 149.107 40.3647 145.646 49.4806 150.916C58.291 155.995 64.2966 166.162 64.2966 175.233ZM53.1224 169.793C53.1444 168.359 52.7944 166.943 52.1066 165.685C51.4188 164.426 50.4167 163.367 49.1978 162.611C46.9358 161.288 45.3185 162.215 45.3185 165.291C45.2894 166.728 45.6311 168.148 46.3106 169.413C46.9902 170.679 47.9845 171.749 49.1978 172.518C51.4598 173.796 53.1224 172.971 53.1224 169.793Z" fill="white"/>
</g>
<path d="M81.6578 233.196L36.678 207.183C36.1611 206.823 35.5615 206.598 34.9347 206.531C34.308 206.464 33.6744 206.556 33.0927 206.799C32.9698 206.856 32.8524 206.924 32.7421 207.003L22.959 212.737H23.0268C21.7941 213.438 21.0137 215.067 21.0137 217.385V267.398C21.0137 271.639 23.581 276.548 26.7591 278.38L71.7389 304.393C72.3084 304.808 72.9882 305.046 73.6925 305.076C74.3969 305.107 75.0944 304.928 75.6974 304.562L75.6183 304.63L85.3335 298.919C86.6002 298.251 87.4033 296.657 87.4033 294.225V244.167C87.4033 239.937 84.8811 235.029 81.6578 233.196Z" fill="#001142"/>
<path d="M85.7972 237.935C84.8903 235.998 83.4556 234.356 81.6578 233.196L36.678 207.183C36.1611 206.823 35.5615 206.598 34.9347 206.531C34.308 206.464 33.6744 206.556 33.0927 206.799C32.9698 206.856 32.8524 206.924 32.7421 207.003L22.959 212.737C23.5561 212.428 24.2268 212.29 24.8972 212.338C25.5677 212.386 26.212 212.618 26.7591 213.008L71.7389 239.021C73.5984 240.236 75.0703 241.96 75.9802 243.986L85.7972 237.935Z" fill="#001142"/>
<path d="M77.4853 300.004C77.4853 302.266 76.7614 303.839 75.6191 304.585L85.3344 298.873C86.6011 298.206 87.4041 296.611 87.4041 294.18V244.167C87.3562 241.994 86.8066 239.861 85.7981 237.935L75.9811 243.975C76.9234 245.844 77.4373 247.899 77.4853 249.992V300.004Z" fill="#001142"/>
<path opacity="0.3" d="M85.7972 237.935C84.8903 235.998 83.4556 234.356 81.6578 233.196L36.678 207.183C36.1611 206.823 35.5615 206.598 34.9347 206.531C34.308 206.464 33.6744 206.556 33.0927 206.799C32.9698 206.856 32.8524 206.924 32.7421 207.003L22.959 212.737C23.5561 212.428 24.2268 212.29 24.8972 212.338C25.5677 212.386 26.212 212.618 26.7591 213.008L71.7389 239.021C73.5984 240.236 75.0703 241.96 75.9802 243.986L85.7972 237.935Z" fill="black"/>
<path opacity="0.6" d="M77.4853 300.004C77.4853 302.266 76.7614 303.839 75.6191 304.585L85.3344 298.873C86.6011 298.206 87.4041 296.611 87.4041 294.18V244.167C87.3562 241.994 86.8066 239.861 85.7981 237.935L75.9811 243.975C76.9234 245.844 77.4373 247.899 77.4853 249.992V300.004Z" fill="black"/>
<path d="M44.2213 255.556L33.375 237.935V261.811L44.2213 255.556Z" fill="#001142"/>
<path d="M54.2988 260.635L65.1225 279.375V255.534L54.2988 260.635Z" fill="#001142"/>
<path d="M35.0156 237.132L46.156 255.228C46.2031 255.268 46.2449 255.314 46.2804 255.364C46.2902 255.409 46.2902 255.455 46.2804 255.5L49.5942 260.883L52.3991 259.56C52.4427 259.513 52.4921 259.471 52.5461 259.436C52.6567 259.371 52.7804 259.332 52.908 259.323L64.218 254.018L35.0156 237.132Z" fill="#001142"/>
<path d="M52.66 261.404L49.6289 262.829C49.5121 262.883 49.3845 262.91 49.2557 262.908C49.0996 262.91 48.9457 262.871 48.8089 262.796C48.6722 262.72 48.5572 262.611 48.4753 262.478L45.1614 257.094L34.2812 263.383L63.5628 280.28L52.66 261.404Z" fill="#001142"/>
<g opacity="0.9">
<path d="M44.2223 255.556L33.376 237.935V261.811L44.2223 255.556Z" fill="white"/>
<path d="M54.2998 260.634L65.1235 279.375V255.534L54.2998 260.634Z" fill="white"/>
<path d="M35.0156 237.132L46.156 255.228C46.2031 255.268 46.2449 255.313 46.2804 255.364C46.2902 255.409 46.2902 255.455 46.2804 255.5L49.5942 260.883L52.3991 259.56C52.4427 259.512 52.4921 259.471 52.5461 259.435C52.6567 259.371 52.7804 259.332 52.908 259.322L64.218 254.018L35.0156 237.132Z" fill="white"/>
<path d="M52.659 261.403L49.6279 262.829C49.5111 262.883 49.3835 262.91 49.2547 262.908C49.0986 262.909 48.9447 262.871 48.8079 262.795C48.6712 262.72 48.5562 262.611 48.4743 262.478L45.1605 257.094L34.2803 263.383L63.5618 280.28L52.659 261.403Z" fill="white"/>
</g>
<path d="M81.6578 55.0417L36.678 29.0287C36.1611 28.6679 35.5615 28.4436 34.9347 28.3763C34.308 28.3091 33.6744 28.4012 33.0927 28.6442C32.9698 28.7009 32.8524 28.7691 32.7421 28.8477L22.959 34.5819H23.0268C21.7941 35.2718 21.0137 36.9118 21.0137 39.2303V89.243C21.0137 93.473 23.581 98.3928 26.7591 100.225L71.7389 126.238C72.3084 126.654 72.9882 126.891 73.6925 126.922C74.3969 126.952 75.0944 126.773 75.6974 126.408L75.6183 126.464L85.3335 120.809C86.6002 120.142 87.4033 118.547 87.4033 116.116V65.9784C87.4033 61.7485 84.8811 56.8286 81.6578 55.0417Z" fill="#001142"/>
<path d="M85.7972 59.7466C84.8905 57.8061 83.456 56.16 81.6578 54.9964L36.678 29.0287C36.1611 28.6679 35.5615 28.4436 34.9347 28.3763C34.308 28.3091 33.6744 28.4012 33.0927 28.6442C32.9698 28.7009 32.8524 28.7691 32.7421 28.8477L22.959 34.5819C23.5561 34.2731 24.2268 34.1351 24.8972 34.183C25.5677 34.2309 26.212 34.4629 26.7591 34.8533L71.7389 60.8663C73.5984 62.0817 75.0703 63.8048 75.9802 65.8314L85.7972 59.7466Z" fill="#001142"/>
<path d="M77.4853 121.771C77.4853 124.033 76.7614 125.605 75.6191 126.295L85.3344 120.64C86.6011 119.972 87.4041 118.378 87.4041 115.946V65.9785C87.3562 63.8052 86.8066 61.6724 85.7981 59.7467L75.9811 65.7862C76.9234 67.6551 77.4373 69.7106 77.4853 71.8031V121.771Z" fill="#001142"/>
<path opacity="0.3" d="M85.7972 59.7466C84.8905 57.8061 83.456 56.16 81.6578 54.9964L36.678 29.0287C36.1611 28.6679 35.5615 28.4436 34.9347 28.3763C34.308 28.3091 33.6744 28.4012 33.0927 28.6442C32.9698 28.7009 32.8524 28.7691 32.7421 28.8477L22.959 34.5819C23.5561 34.2731 24.2268 34.1351 24.8972 34.183C25.5677 34.2309 26.212 34.4629 26.7591 34.8533L71.7389 60.8663C73.5984 62.0817 75.0703 63.8048 75.9802 65.8314L85.7972 59.7466Z" fill="black"/>
<path opacity="0.6" d="M77.4853 121.771C77.4853 124.033 76.7614 125.605 75.6191 126.295L85.3344 120.64C86.6011 119.972 87.4041 118.378 87.4041 115.946V65.9785C87.3562 63.8052 86.8066 61.6724 85.7981 59.7467L75.9811 65.7862C76.9234 67.6551 77.4373 69.7106 77.4853 71.8031V121.771Z" fill="black"/>
<path d="M62.7693 100.282C61.0389 97.4314 59.2971 94.6266 57.5667 91.7538C57.2922 91.2097 56.9085 90.728 56.4396 90.3388C55.9706 89.9496 55.4264 89.6613 54.841 89.4918C54.0041 89.3222 53.1671 89.1299 52.3076 88.8811C52.0014 88.7535 51.7439 88.5316 51.5724 88.2477C48.7408 83.4016 46.4897 78.2388 44.8656 72.8662C44.831 72.7513 44.8212 72.6304 44.8368 72.5115C44.8524 72.3926 44.8931 72.2783 44.9561 72.1763C45.4876 71.6447 46.0871 71.1584 46.63 70.6833C47.1728 70.2083 47.4556 69.1113 47.0597 67.6862C46.2228 64.6664 45.4198 61.6467 44.5829 58.6382C44.4209 57.7834 44.0367 56.9863 43.4689 56.3272C42.901 55.668 42.1696 55.17 41.3482 54.8833C39.5243 54.3762 37.5881 54.4474 35.8063 55.0869C35.1164 55.347 34.7545 55.9691 34.7432 57.0435C35.0372 59.1132 35.2295 61.1603 35.6253 63.264C38.4151 78.4344 45.1257 92.3834 55.7571 105.111C56.0347 105.533 56.4075 105.884 56.8456 106.135C57.2837 106.387 57.7748 106.532 58.2792 106.559C60.0393 106.517 61.7303 105.865 63.0634 104.715C64.0699 103.81 63.9681 102.204 62.7693 100.282Z" fill="#001142"/>
<path d="M62.6341 84.8659C62.3975 81.6127 61.5009 78.4418 59.9989 75.5465C58.8774 73.2846 57.4503 71.1877 55.7576 69.3147C55.3165 68.8171 54.9433 68.6587 54.7171 69.0319C54.4909 69.4052 54.7171 69.9367 55.1469 70.4231L55.588 70.932C58.714 74.5405 60.6842 79.0048 61.243 83.7462C61.2374 84.0921 61.2716 84.4374 61.3448 84.7754C61.4868 85.1644 61.7149 85.5162 62.012 85.8046C62.2496 85.9743 62.521 85.8046 62.7133 85.8046C62.6454 85.3409 62.6567 85.1034 62.6341 84.8659Z" fill="#001142"/>
<path d="M52.3874 75.5805C53.8077 77.1427 54.6707 79.1312 54.8417 81.2355C54.9162 81.5555 55.0341 81.8637 55.1923 82.1516C55.8822 82.7171 56.2215 82.5249 56.2215 81.8123C55.9797 79.1142 54.8638 76.5688 53.0434 74.5626C52.6136 74.1216 52.263 73.9858 52.0594 74.3591C51.9862 74.5722 51.9783 74.8023 52.0367 75.0199C52.0952 75.2376 52.2173 75.4328 52.3874 75.5805Z" fill="#001142"/>
<g opacity="0.9">
<path d="M62.7703 100.281C61.0398 97.4313 59.2981 94.6264 57.5677 91.7537C57.2932 91.2096 56.9095 90.7279 56.4405 90.3387C55.9716 89.9495 55.4274 89.6612 54.842 89.4917C54.005 89.3221 53.1681 89.1298 52.3085 88.881C52.0024 88.7533 51.7449 88.5315 51.5734 88.2476C48.7418 83.4014 46.4907 78.2387 44.8666 72.8661C44.832 72.7512 44.8222 72.6303 44.8378 72.5114C44.8534 72.3925 44.894 72.2782 44.9571 72.1761C45.4886 71.6446 46.0881 71.1582 46.6309 70.6832C47.1738 70.2082 47.4566 69.1111 47.0607 67.6861C46.2238 64.6663 45.4208 61.6465 44.5838 58.6381C44.4219 57.7833 44.0377 56.9862 43.4698 56.327C42.902 55.6679 42.1706 55.1699 41.3492 54.8832C39.5253 54.3761 37.589 54.4472 35.8073 55.0868C35.1174 55.3469 34.7555 55.9689 34.7441 57.0434C35.0382 59.1131 35.2305 61.1602 35.6263 63.2639C38.4161 78.4343 45.1267 92.3833 55.7581 105.111C56.0356 105.533 56.4085 105.884 56.8466 106.135C57.2847 106.387 57.7758 106.532 58.2802 106.558C60.0403 106.517 61.7313 105.865 63.0643 104.715C64.0709 103.81 63.9691 102.204 62.7703 100.281Z" fill="white"/>
<path d="M62.6341 84.8659C62.3975 81.6127 61.5009 78.4418 59.9989 75.5465C58.8774 73.2846 57.4503 71.1877 55.7576 69.3147C55.3165 68.8171 54.9433 68.6587 54.7171 69.0319C54.4909 69.4052 54.7171 69.9367 55.1469 70.4231L55.588 70.932C58.714 74.5405 60.6842 79.0048 61.243 83.7462C61.2374 84.0921 61.2716 84.4374 61.3448 84.7754C61.4868 85.1644 61.7149 85.5162 62.012 85.8046C62.2496 85.9743 62.521 85.8046 62.7133 85.8046C62.6454 85.3409 62.6567 85.1034 62.6341 84.8659Z" fill="white"/>
<path d="M52.3884 75.5804C53.8087 77.1426 54.6717 79.1311 54.8427 81.2354C54.9172 81.5554 55.0351 81.8636 55.1933 82.1515C55.8832 82.717 56.2225 82.5247 56.2225 81.8122C55.9807 79.1141 54.8648 76.5686 53.0444 74.5625C52.6146 74.1214 52.264 73.9857 52.0604 74.3589C51.9872 74.5721 51.9793 74.8022 52.0377 75.0198C52.0962 75.2374 52.2183 75.4327 52.3884 75.5804Z" fill="white"/>
</g>
<path d="M312.438 25.0477L323.035 31.0759V27.321C323.035 27.0608 323.035 26.7894 323.035 26.5293C323.035 26.2691 323.035 26.0203 323.035 25.7715V25.6358C323.42 20.6707 327.186 18.7593 331.778 21.4172C333.857 22.6958 335.638 24.4041 337.003 26.4275C338.032 19.6415 343.54 17.2438 350.202 21.0779C357.599 25.353 363.593 35.7808 363.593 44.2859V52.316C363.582 52.9584 363.741 53.5922 364.052 54.154C364.364 54.7157 364.818 55.1857 365.369 55.5167L371.612 59.1699C372.959 59.9687 374.076 61.1037 374.853 62.4637C375.63 63.8237 376.041 65.3621 376.045 66.9285C376.045 67.5784 375.874 68.2168 375.549 68.7795C375.224 69.3422 374.757 69.8093 374.194 70.1339C373.631 70.4584 372.992 70.6288 372.342 70.628C371.692 70.6272 371.054 70.4552 370.492 70.1292L312.596 36.663C311.06 35.771 309.785 34.4927 308.896 32.955C308.007 31.4173 307.536 29.6739 307.529 27.8978C307.529 27.3229 307.679 26.7579 307.966 26.2595C308.253 25.7612 308.665 25.3469 309.162 25.0582C309.659 24.7695 310.224 24.6166 310.799 24.6148C311.374 24.6129 311.939 24.7622 312.438 25.0477Z" fill="#E6E6E6"/>
<path d="M393.225 23.4755L400.927 27.8977V25.1381C400.927 24.9458 400.927 24.7535 400.927 24.5613C400.927 24.369 400.927 24.188 400.927 24.0071V23.9392C401.21 20.3313 403.947 18.9402 407.283 20.8742C408.794 21.8 410.089 23.0377 411.083 24.5047C411.841 19.5962 415.845 17.8205 420.685 20.6141C426.069 23.7243 430.423 31.2794 430.423 37.4886V43.3358C430.427 43.7942 430.55 44.2437 430.78 44.6402C431.01 45.0367 431.339 45.3667 431.735 45.5978L436.259 48.2557C437.244 48.8346 438.059 49.6613 438.625 50.6535C439.19 51.6456 439.486 52.7686 439.483 53.9107C439.482 54.3784 439.359 54.8379 439.127 55.2438C438.894 55.6498 438.56 55.9881 438.157 56.2256C437.754 56.463 437.296 56.5914 436.829 56.598C436.361 56.6046 435.9 56.4892 435.49 56.2631L393.338 31.9241C392.221 31.2779 391.293 30.3495 390.648 29.232C390.003 28.1144 389.663 26.8469 389.662 25.5565C389.661 25.1389 389.77 24.7284 389.978 24.366C390.185 24.0035 390.484 23.7019 390.845 23.4913C391.205 23.2806 391.615 23.1683 392.033 23.1655C392.45 23.1628 392.861 23.2697 393.225 23.4755Z" fill="#E6E6E6"/>
</svg>
