<svg width="500" height="374" viewBox="0 0 500 374" fill="none" xmlns="http://www.w3.org/2000/svg">
<path d="M500 328.062H0V328.312H500V328.062Z" fill="#EBEBEB"/>
<path d="M357.68 334.872H324.56V335.122H357.68V334.872Z" fill="#EBEBEB"/>
<path d="M437.26 337.062H428.57V337.312H437.26V337.062Z" fill="#EBEBEB"/>
<path d="M377.87 344.152H358.68V344.402H377.87V344.152Z" fill="#EBEBEB"/>
<path d="M250 340.772H206.81V341.022H250V340.772Z" fill="#EBEBEB"/>
<path d="M197.9 340.772H191.57V341.022H197.9V340.772Z" fill="#EBEBEB"/>
<path d="M170.99 336.552H77.3101V336.802H170.99V336.552Z" fill="#EBEBEB"/>
<path d="M237 283.462H43.91C42.3973 283.46 40.9475 282.857 39.8788 281.786C38.8102 280.716 38.21 279.265 38.21 277.752V6.32235C38.2231 4.81838 38.8292 3.38033 39.8964 2.32057C40.9637 1.26081 42.4059 0.66493 43.91 0.662354H237C238.514 0.662354 239.967 1.26394 241.038 2.33477C242.108 3.40561 242.71 4.85797 242.71 6.37235V277.752C242.71 279.267 242.108 280.719 241.038 281.79C239.967 282.861 238.514 283.462 237 283.462ZM43.91 0.862354C42.4636 0.865003 41.0774 1.44142 40.0556 2.46508C39.0338 3.48874 38.46 4.876 38.46 6.32235V277.752C38.46 279.199 39.0338 280.586 40.0556 281.61C41.0774 282.633 42.4636 283.21 43.91 283.212H237C238.447 283.21 239.834 282.634 240.858 281.61C241.881 280.587 242.457 279.2 242.46 277.752V6.32235C242.457 4.87508 241.881 3.48785 240.858 2.46447C239.834 1.44109 238.447 0.864998 237 0.862354H43.91Z" fill="#EBEBEB"/>
<path d="M453.31 283.462H260.21C258.696 283.46 257.246 282.857 256.175 281.787C255.105 280.717 254.503 279.266 254.5 277.752V6.32235C254.516 4.81747 255.124 3.37943 256.193 2.31995C257.262 1.26046 258.705 0.664902 260.21 0.662354H453.31C454.812 0.667558 456.252 1.2646 457.317 2.32408C458.382 3.38356 458.987 4.82011 459 6.32235V277.752C459 279.263 458.401 280.713 457.335 281.783C456.268 282.853 454.821 283.457 453.31 283.462ZM260.21 0.862354C258.763 0.864998 257.375 1.44109 256.352 2.46447C255.329 3.48785 254.753 4.87508 254.75 6.32235V277.752C254.753 279.2 255.329 280.587 256.352 281.61C257.375 282.634 258.763 283.21 260.21 283.212H453.31C454.757 283.21 456.145 282.634 457.168 281.61C458.191 280.587 458.767 279.2 458.77 277.752V6.32235C458.767 4.87508 458.191 3.48785 457.168 2.46447C456.145 1.44109 454.757 0.864998 453.31 0.862354H260.21Z" fill="#EBEBEB"/>
<path d="M96.6401 233.522H60.5701V236.832H96.6401V233.522Z" fill="#EBEBEB"/>
<path d="M79.1 223.332C78.6762 223.244 78.2739 223.073 77.9162 222.83C77.5586 222.586 77.2525 222.274 77.0156 221.912C76.7787 221.549 76.6157 221.144 76.5358 220.718C76.4559 220.293 76.4607 219.856 76.55 219.432L79.84 203.662C79.9281 203.238 80.0989 202.836 80.3427 202.479C80.5865 202.121 80.8985 201.815 81.2608 201.578C81.6231 201.341 82.0286 201.178 82.454 201.098C82.8795 201.018 83.3165 201.023 83.74 201.112C84.5947 201.293 85.343 201.804 85.821 202.535C86.299 203.266 86.4676 204.157 86.29 205.012L83 220.782C82.8198 221.637 82.308 222.385 81.577 222.863C80.846 223.341 79.9552 223.51 79.1 223.332Z" fill="#F0F0F0"/>
<path d="M77.1201 222.992C76.3861 223.105 75.6372 222.923 75.0362 222.487C74.4352 222.051 74.0306 221.395 73.9101 220.662L71.8501 207.052C71.7411 206.313 71.9291 205.56 72.3731 204.959C72.8172 204.357 73.4812 203.956 74.2201 203.842C74.9597 203.733 75.7124 203.921 76.3139 204.365C76.9153 204.809 77.3166 205.473 77.4301 206.212L79.4301 219.822C79.5344 220.548 79.3512 221.285 78.9197 221.877C78.4882 222.469 77.8424 222.869 77.1201 222.992Z" fill="#F0F0F0"/>
<path d="M84.7299 233.522H72.4699L69.9199 218.922H87.2799L84.7299 233.522Z" fill="#E6E6E6"/>
<path d="M88.21 216.842H68.98V221.012H88.21V216.842Z" fill="#E0E0E0"/>
<path d="M100.75 328.062L92.5799 236.832H86.1399L98.3099 328.062H100.75Z" fill="#F5F5F5"/>
<path d="M56.45 328.062L64.61 236.832H71.0599L58.8899 328.062H56.45Z" fill="#F5F5F5"/>
<path d="M74.3301 328.062L76.6501 236.832H83.0901L76.7801 328.062H74.3301Z" fill="#F5F5F5"/>
<path d="M412.05 236.832H448.12V233.522H412.05V236.832Z" fill="#EBEBEB"/>
<path d="M429.59 223.332C430.445 223.152 431.193 222.64 431.671 221.909C432.149 221.178 432.318 220.287 432.14 219.432L428.85 203.662C428.762 203.238 428.591 202.836 428.347 202.479C428.104 202.121 427.792 201.815 427.429 201.578C427.067 201.341 426.662 201.178 426.236 201.098C425.811 201.018 425.374 201.023 424.95 201.112C424.094 201.29 423.343 201.801 422.863 202.532C422.383 203.264 422.213 204.156 422.39 205.012L425.68 220.762C425.858 221.621 426.37 222.375 427.103 222.857C427.836 223.338 428.731 223.51 429.59 223.332Z" fill="#F0F0F0"/>
<path d="M431.57 222.992C432.31 223.101 433.062 222.913 433.664 222.469C434.265 222.025 434.666 221.361 434.78 220.622L436.84 207.012C436.949 206.273 436.761 205.52 436.317 204.919C435.873 204.317 435.209 203.916 434.47 203.802C434.104 203.747 433.73 203.764 433.37 203.854C433.01 203.943 432.672 204.102 432.374 204.322C432.076 204.542 431.824 204.819 431.633 205.136C431.442 205.454 431.315 205.806 431.26 206.172L429.2 219.782C429.091 220.522 429.279 221.275 429.723 221.876C430.167 222.478 430.831 222.879 431.57 222.992Z" fill="#F0F0F0"/>
<path d="M423.96 233.522H436.21L438.77 218.922H421.4L423.96 233.522Z" fill="#E6E6E6"/>
<path d="M420.47 221.012H439.7V216.842H420.47V221.012Z" fill="#E0E0E0"/>
<path d="M407.93 328.062L416.1 236.832H422.54L410.38 328.062H407.93Z" fill="#F5F5F5"/>
<path d="M452.24 328.062L444.07 236.832H437.63L449.79 328.062H452.24Z" fill="#F5F5F5"/>
<path d="M434.35 328.062L432.04 236.832H425.59L431.91 328.062H434.35Z" fill="#F5F5F5"/>
<path d="M232.61 156.292V20.9324L60.3501 20.9324V156.292H232.61Z" fill="#E6E6E6"/>
<path d="M234.58 156.302V20.9424L62.3201 20.9424V156.302H234.58Z" fill="#F0F0F0"/>
<path d="M73.66 142.992L223.24 142.992V32.2723L73.66 32.2723V142.992Z" fill="white"/>
<path d="M200.69 85.3924L204.5 61.7824C204.529 61.6798 204.53 61.5714 204.503 61.4683C204.476 61.3652 204.422 61.2711 204.347 61.1958C204.271 61.1204 204.177 61.0665 204.074 61.0395C203.971 61.0126 203.863 61.0136 203.76 61.0424L180.15 64.8524C168.27 66.7724 157.05 78.0024 155.15 89.8524L151.34 113.462C151.313 113.564 151.314 113.672 151.342 113.773C151.37 113.875 151.424 113.967 151.499 114.041C151.574 114.115 151.667 114.168 151.769 114.195C151.871 114.221 151.978 114.22 152.08 114.192L175.69 110.382C187.54 108.492 198.77 97.2724 200.69 85.3924Z" fill="#F0F0F0"/>
<path d="M141.76 85.3922L145.58 61.7822C145.606 61.68 145.604 61.5729 145.576 61.4713C145.548 61.3697 145.494 61.2771 145.42 61.2026C145.345 61.1281 145.253 61.0741 145.151 61.046C145.049 61.0179 144.942 61.0166 144.84 61.0422L121.23 64.8522C109.35 66.7722 98.1301 78.0022 96.2301 89.8522L92.4001 113.492C92.3743 113.593 92.3752 113.699 92.4027 113.8C92.4302 113.9 92.4834 113.992 92.5571 114.065C92.6307 114.139 92.7223 114.192 92.8228 114.22C92.9232 114.247 93.0291 114.248 93.1301 114.222L116.74 110.412C128.62 108.492 139.85 97.2722 141.76 85.3922Z" fill="#F0F0F0"/>
<path d="M171.23 85.3924L175 61.7824C175.029 61.6798 175.03 61.5714 175.003 61.4683C174.976 61.3652 174.922 61.2711 174.847 61.1958C174.771 61.1204 174.677 61.0665 174.574 61.0395C174.471 61.0126 174.363 61.0136 174.26 61.0424L150.65 64.8524C138.77 66.7724 127.55 78.0024 125.65 89.8524L121.84 113.462C121.814 113.563 121.815 113.669 121.843 113.77C121.87 113.87 121.923 113.962 121.997 114.035C122.071 114.109 122.162 114.162 122.263 114.19C122.363 114.217 122.469 114.218 122.57 114.192L146.18 110.382C158.08 108.492 169.31 97.2724 171.23 85.3924Z" fill="#E6E6E6"/>
<path d="M385.45 54.7424H286.64V257.852H385.45V54.7424Z" fill="#E6E6E6"/>
<path d="M399.4 54.7424H290.35V257.852H399.4V54.7424Z" fill="#F0F0F0"/>
<path d="M381.73 240.182V72.4124H308.03V240.182H381.73Z" fill="white"/>
<path d="M364.61 194.172V118.412C364.61 114.524 361.458 111.372 357.57 111.372H332.18C328.292 111.372 325.14 114.524 325.14 118.412V194.172C325.14 198.06 328.292 201.212 332.18 201.212H357.57C361.458 201.212 364.61 198.06 364.61 194.172Z" fill="#F5F5F5"/>
<path d="M250 373.222C357.083 373.222 443.89 368.154 443.89 361.902C443.89 355.651 357.083 350.582 250 350.582C142.918 350.582 56.1101 355.651 56.1101 361.902C56.1101 368.154 142.918 373.222 250 373.222Z" fill="#F5F5F5"/>
<path opacity="0.3" d="M374.24 88.6623C373.491 84.4427 372.489 80.2718 371.24 76.1723L372.24 75.8823C373.485 80.0237 374.486 84.2342 375.24 88.4923L374.24 88.6623Z" fill="#001142"/>
<path opacity="0.3" d="M368.1 67.0724C364.869 59.0204 360.711 51.3722 355.71 44.2824L356.53 43.7024C361.564 50.8455 365.749 58.5508 369 66.6624L368.1 67.0724Z" fill="#001142"/>
<path opacity="0.3" d="M371.64 126.982C374.178 112.92 373.896 98.4927 370.809 84.54C367.723 70.5874 361.894 57.3874 353.661 45.7074C345.428 34.0273 334.956 24.1 322.853 16.5027C310.75 8.90538 297.257 3.78948 283.16 1.45236C225.77 -8.07764 170.64 30.2824 159.64 87.4524C156.017 106.18 157.43 125.533 163.734 143.536C170.037 161.538 181.006 177.546 195.52 189.922C199.54 193.412 202.577 197.891 204.332 202.917C206.086 207.943 206.495 213.34 205.52 218.572L204.24 225.652C203.279 230.988 204.476 236.488 207.568 240.941C210.66 245.395 215.394 248.438 220.73 249.402L258 256.082C263.336 257.044 268.835 255.847 273.289 252.754C277.743 249.662 280.786 244.928 281.75 239.592L283.03 232.502C283.967 227.238 286.264 222.309 289.693 218.206C293.123 214.103 297.565 210.968 302.58 209.112C320.26 202.644 335.938 191.659 348.054 177.25C360.17 162.841 368.302 145.51 371.64 126.982Z" fill="#001142"/>
<path d="M230.18 79.498C245.761 79.1308 258.094 66.2021 257.727 50.621C257.36 35.0398 244.431 22.7065 228.85 23.0737C213.269 23.4409 200.936 36.3695 201.303 51.9507C201.67 67.5318 214.599 79.8652 230.18 79.498Z" fill="white"/>
<path d="M279.036 47.8126C284.521 46.162 287.628 40.3782 285.978 34.894C284.327 29.4098 278.543 26.302 273.059 27.9526C267.575 29.6031 264.467 35.387 266.118 40.8712C267.768 46.3554 273.552 49.4632 279.036 47.8126Z" fill="white"/>
<path d="M149.6 99.9623C149.15 102.112 148.65 104.502 148.21 106.762C147.77 109.022 147.37 111.342 147.02 113.592C146.67 115.842 146.42 118.052 146.31 120.092C146.25 121.092 146.31 122.092 146.31 122.912C146.31 123.732 146.49 124.402 146.45 124.482L146 123.662C145.79 123.462 145.42 123.272 145.35 123.362C145.28 123.452 145.53 123.602 145.97 123.722C147.285 123.995 148.636 124.055 149.97 123.902C151.648 123.766 153.318 123.536 154.97 123.212C156.67 122.912 158.49 122.472 160.14 122.132L160.44 122.072C161.246 121.894 162.089 121.995 162.83 122.36C163.57 122.725 164.164 123.332 164.514 124.08C164.863 124.828 164.947 125.672 164.752 126.475C164.557 127.277 164.094 127.989 163.44 128.492C161.793 129.758 160.052 130.895 158.23 131.892C156.365 132.924 154.414 133.794 152.4 134.492C150.066 135.325 147.608 135.758 145.13 135.772C143.467 135.761 141.82 135.446 140.27 134.842C138.268 134.061 136.533 132.721 135.27 130.982C135.14 130.794 135.023 130.597 134.92 130.392L134.81 130.192C133.935 128.449 133.325 126.586 133 124.662C132.749 123.154 132.602 121.631 132.56 120.102C132.473 117.356 132.57 114.606 132.85 111.872C133.09 109.222 133.48 106.642 133.92 104.092C134.36 101.542 134.92 99.0923 135.62 96.4423C136.155 94.6861 137.339 93.2 138.932 92.287C140.524 91.374 142.405 91.1029 144.191 91.5289C145.976 91.9549 147.532 93.0459 148.541 94.5796C149.55 96.1132 149.936 97.9739 149.62 99.7823L149.6 99.9623Z" fill="#001142"/>
<path opacity="0.2" d="M149.6 99.9623C149.15 102.112 148.65 104.502 148.21 106.762C147.77 109.022 147.37 111.342 147.02 113.592C146.67 115.842 146.42 118.052 146.31 120.092C146.25 121.092 146.31 122.092 146.31 122.912C146.31 123.732 146.49 124.402 146.45 124.482L146 123.662C145.79 123.462 145.42 123.272 145.35 123.362C145.28 123.452 145.53 123.602 145.97 123.722C147.285 123.995 148.636 124.055 149.97 123.902C151.648 123.766 153.318 123.536 154.97 123.212C156.67 122.912 158.49 122.472 160.14 122.132L160.44 122.072C161.246 121.894 162.089 121.995 162.83 122.36C163.57 122.725 164.164 123.332 164.514 124.08C164.863 124.828 164.947 125.672 164.752 126.475C164.557 127.277 164.094 127.989 163.44 128.492C161.793 129.758 160.052 130.895 158.23 131.892C156.365 132.924 154.414 133.794 152.4 134.492C150.066 135.325 147.608 135.758 145.13 135.772C143.467 135.761 141.82 135.446 140.27 134.842C138.268 134.061 136.533 132.721 135.27 130.982C135.14 130.794 135.023 130.597 134.92 130.392L134.81 130.192C133.935 128.449 133.325 126.586 133 124.662C132.749 123.154 132.602 121.631 132.56 120.102C132.473 117.356 132.57 114.606 132.85 111.872C133.09 109.222 133.48 106.642 133.92 104.092C134.36 101.542 134.92 99.0923 135.62 96.4423C136.155 94.6861 137.339 93.2 138.932 92.287C140.524 91.374 142.405 91.1029 144.191 91.5289C145.976 91.9549 147.532 93.0459 148.541 94.5796C149.55 96.1132 149.936 97.9739 149.62 99.7823L149.6 99.9623Z" fill="black"/>
<path d="M127.21 276.662C127.21 276.662 122.63 271.092 122.85 269.232L117.56 266.232L114.1 271.662L118.42 274.112L119.24 273.902L119.74 274.902C121.954 276.313 124.372 277.372 126.91 278.042C127.085 277.864 127.205 277.64 127.258 277.396C127.311 277.151 127.295 276.897 127.21 276.662Z" fill="#001142"/>
<path d="M132.63 206.662C136.57 178.442 135.29 161.292 139.42 147.382L165.05 145.322C165.05 145.322 153.69 190.042 148.48 208.662C143.27 227.282 123.29 269.922 123.29 269.922L116.29 265.922C116.29 265.922 125.69 228.442 132.63 206.662Z" fill="#FF8C32"/>
<path d="M153.53 166.142C151.79 170.142 148.39 196.052 148.4 208.982C148.4 208.882 148.4 208.782 148.48 208.682C150.31 202.132 152.9 192.352 155.48 182.412L153.53 166.142Z" fill="black"/>
<path d="M173.79 276.222C173.79 276.222 163 274.662 162.22 272.942H155.48L155.8 279.372H159.55L160.16 278.782L161.08 279.372C164.08 279.372 172.76 278.532 174.49 277.372C174.483 277.136 174.415 276.906 174.292 276.705C174.17 276.503 173.996 276.337 173.79 276.222Z" fill="#001142"/>
<path d="M155.34 207.402C149.71 169.162 149.71 145.492 149.71 145.492L174.79 145.082C174.79 145.082 171.79 190.692 170.73 209.792C169.64 229.652 163.44 273.362 163.44 273.362H154.7C154.7 273.362 152.7 231.962 155.34 207.402Z" fill="#FF8C32"/>
<path d="M151.83 73.5325C150.67 78.5325 149.83 85.0625 148.34 88.7825C150.87 91.1325 154.97 94.0525 160.44 93.9725C165.91 93.8925 164.91 90.2025 163.44 88.2925C159.52 86.2925 159.37 84.2925 160.33 82.5625L151.83 73.5325Z" fill="#CE7A63"/>
<path d="M143.25 90.0123C144.72 88.6919 146.287 87.4851 147.94 86.4023C149.32 85.7123 159.94 85.9423 162.37 86.4023C164.8 86.8623 167.83 90.5223 167.83 90.5223L143.25 90.0123Z" fill="white"/>
<path d="M169.1 72.9024C168.98 73.3924 169.16 73.9024 169.48 73.9024C169.8 73.9024 170.16 73.6324 170.27 73.1324C170.38 72.6324 170.21 72.1824 169.88 72.1324C169.55 72.0824 169.21 72.4124 169.1 72.9024Z" fill="#263238"/>
<path d="M168.91 73.5923C169.164 75.2267 169.642 76.8184 170.33 78.3223C169.937 78.4867 169.513 78.5655 169.088 78.5534C168.662 78.5413 168.243 78.4387 167.86 78.2523L168.91 73.5923Z" fill="#630F0F"/>
<path d="M170.81 70.0624C170.767 70.0843 170.719 70.0958 170.67 70.0958C170.621 70.0958 170.574 70.0843 170.53 70.0624C170.193 69.902 169.823 69.8255 169.45 69.8394C169.078 69.8533 168.714 69.9573 168.39 70.1424C168.324 70.181 168.245 70.1928 168.171 70.1753C168.096 70.1579 168.031 70.1125 167.989 70.0485C167.946 69.9845 167.93 69.9067 167.944 69.8312C167.957 69.7556 167.999 69.6881 168.06 69.6424C168.466 69.4039 168.924 69.2675 169.394 69.2448C169.864 69.2222 170.333 69.314 170.76 69.5123C170.833 69.5453 170.891 69.6054 170.921 69.68C170.951 69.7546 170.951 69.8379 170.92 69.9123C170.894 69.9692 170.856 70.0202 170.81 70.0624Z" fill="#263238"/>
<path d="M152.7 67.8723C151.7 74.0223 150.82 77.5723 153.2 81.3423C156.77 87.0223 164.9 85.8623 167.71 80.1223C170.24 74.9523 171.44 65.7723 166.02 62.0723C164.821 61.254 163.435 60.7533 161.99 60.6168C160.545 60.4804 159.089 60.7128 157.758 61.2923C156.427 61.8717 155.265 62.7793 154.38 63.9301C153.496 65.0809 152.918 66.4372 152.7 67.8723Z" fill="#CE7A63"/>
<path d="M162.76 76.8323C156.15 80.8824 152.2 79.9423 150.56 77.5323C147.87 73.5923 150.56 71.3824 150.56 71.3824C147.37 71.4924 146.47 65.9924 148.69 64.1024C146.69 62.1024 148.02 57.4424 151.43 58.1624C151.15 54.7224 156.52 51.3324 161.69 54.9424C165.93 52.7224 171.82 54.3824 173.26 58.2724C174.7 62.1624 172.54 63.8323 172.54 63.8323C173.82 65.2224 171.54 69.4223 167.48 69.2624C166.76 71.4424 166.48 73.1623 163.87 73.2624C163.26 76.1024 163.93 75.8323 162.76 76.8323Z" fill="#263238"/>
<path d="M161.17 72.8924C160.801 74.1706 160.937 75.5416 161.55 76.7224C162.36 78.1824 163.95 77.5124 164.71 75.9324C165.4 74.5124 165.82 72.0324 164.53 71.1324C163.24 70.2324 161.62 71.2524 161.17 72.8924Z" fill="#CE7A63"/>
<path d="M143.6 89.3223C153.07 88.2447 162.639 88.3926 172.07 89.7623C174.044 90.1147 175.845 91.1118 177.191 92.5975C178.538 94.0832 179.353 95.9735 179.51 97.9723C180.51 110.142 177.81 131.412 175.51 152.832C156.74 159.132 137.68 152.742 137.68 152.742C137.26 148.422 139.59 134.272 141.04 126.742C139.98 118.942 137.27 110.002 135.74 99.6423C135.564 98.4466 135.629 97.2279 135.931 96.0578C136.233 94.8876 136.766 93.7895 137.498 92.8281C138.23 91.8667 139.147 91.0614 140.195 90.4593C141.243 89.8573 142.401 89.4707 143.6 89.3223Z" fill="#001142"/>
<path opacity="0.2" d="M169.1 106.362C170.37 113.692 174.43 122.422 178.1 128.202C178.61 123.142 179.04 118.312 179.31 113.872L169.1 106.362Z" fill="black"/>
<path d="M216.84 113.972L214.98 113.252C214.635 113.12 214.264 113.072 213.897 113.112C213.53 113.152 213.178 113.279 212.87 113.482L209.94 115.412C209.364 115.792 208.887 116.305 208.549 116.907C208.212 117.509 208.023 118.183 208 118.872V119.742C211 121.142 215.28 120.442 215.28 120.442L216.52 120.382C216.776 120.376 217.028 120.319 217.261 120.215C217.495 120.111 217.705 119.961 217.881 119.775C218.057 119.59 218.194 119.371 218.285 119.132C218.375 118.893 218.418 118.638 218.41 118.382L218.32 115.922C218.29 115.488 218.134 115.073 217.872 114.726C217.609 114.38 217.25 114.118 216.84 113.972Z" fill="#CE7A63"/>
<path d="M178.39 94.9323C179.39 96.9323 180.39 99.1023 181.45 101.162C182.51 103.222 183.58 105.302 184.67 107.292C185.76 109.282 186.93 111.192 188.09 112.882C188.67 113.722 189.27 114.482 189.8 115.112C190.33 115.742 190.8 116.192 190.87 116.272L190.02 115.922C190.935 116.341 191.933 116.55 192.94 116.532C194.468 116.563 195.996 116.477 197.51 116.272C199.15 116.072 200.83 115.772 202.51 115.432C204.19 115.092 206 114.682 207.65 114.352L207.93 114.292C208.736 114.114 209.579 114.215 210.319 114.58C211.06 114.945 211.654 115.552 212.004 116.3C212.353 117.048 212.437 117.892 212.242 118.695C212.047 119.497 211.584 120.209 210.93 120.712C209.346 121.951 207.675 123.073 205.93 124.072C204.158 125.09 202.317 125.982 200.42 126.742C198.35 127.574 196.198 128.184 194 128.562C191.321 129.076 188.561 128.988 185.92 128.302C185.731 128.252 185.547 128.185 185.37 128.102L185.07 127.952C183.318 127.098 181.706 125.982 180.29 124.642C179.168 123.605 178.122 122.489 177.16 121.302C175.41 119.184 173.807 116.948 172.36 114.612C170.93 112.372 169.66 110.092 168.46 107.802C167.26 105.512 166.17 103.232 165.13 100.702C164.741 99.8389 164.526 98.9073 164.498 97.9608C164.469 97.0144 164.627 96.0715 164.963 95.1861C165.641 93.3979 167.001 91.9523 168.745 91.1673C170.489 90.3823 172.473 90.3221 174.261 91C175.147 91.3357 175.957 91.8425 176.647 92.4915C177.336 93.1404 177.891 93.9189 178.28 94.7823L178.39 94.9323Z" fill="#001142"/>
<path d="M185.15 279.372H99.3201V286.412H185.15V279.372Z" fill="#263238"/>
<path d="M175.15 317.342H89.3201V324.382H175.15V317.342Z" fill="#263238"/>
<path d="M165.15 355.312H79.3201V362.352H165.15V355.312Z" fill="#263238"/>
<path d="M185.15 279.372H183.21V362.352H185.15V279.372Z" fill="#263238"/>
<path d="M160.43 362.352H162.37L181.31 279.372H179.36L160.43 362.352Z" fill="#263238"/>
<path d="M111.68 279.372H109.74V362.352H111.68V279.372Z" fill="#263238"/>
<path d="M86.96 362.352H88.9L107.84 279.372H105.89L86.96 362.352Z" fill="#263238"/>
<path d="M291.4 263.332C282.62 262.332 278.92 270.112 285.27 273.932C291.62 277.752 274.27 289.412 282.54 295.582C290.81 301.752 300.87 314.932 306.62 302.462C312.37 289.992 296.79 283.462 303.79 277.402C310.79 271.342 301.35 253.832 291.4 263.332Z" fill="#E0E0E0"/>
<path d="M306.62 302.712C306.577 302.713 306.536 302.702 306.499 302.681C306.462 302.66 306.431 302.629 306.41 302.592C306.377 302.534 306.367 302.464 306.384 302.399C306.401 302.334 306.442 302.278 306.5 302.242C308.45 301.102 309.58 299.792 309.94 298.242C310.63 295.242 308.36 291.862 306.17 288.552C303.51 284.552 300.76 280.372 303.91 277.342C305.84 275.482 306.45 272.552 305.59 269.282C304.59 265.402 301.79 262.282 298.69 261.462C296.13 260.812 293.53 261.782 291.18 264.272C291.133 264.318 291.07 264.344 291.005 264.344C290.94 264.344 290.877 264.318 290.83 264.272C290.806 264.249 290.786 264.221 290.773 264.19C290.76 264.159 290.753 264.126 290.753 264.092C290.753 264.059 290.76 264.025 290.773 263.995C290.786 263.964 290.806 263.936 290.83 263.912C293.96 260.602 296.91 260.482 298.83 260.972C302.11 261.802 305.02 265.092 306.1 269.142C307.01 272.592 306.34 275.702 304.28 277.692C301.43 280.432 303.95 284.242 306.61 288.262C308.86 291.662 311.18 295.172 310.44 298.352C310.05 300.042 308.85 301.452 306.77 302.672C306.724 302.698 306.673 302.712 306.62 302.712Z" fill="#E0E0E0"/>
<path d="M272.23 330.262L290.44 333.602C292.09 343.122 287.95 355.362 271.58 355.362C251.66 355.362 232.69 351.542 235.51 342.362C238.92 331.372 272.23 330.262 272.23 330.262Z" fill="#263238"/>
<path opacity="0.5" d="M272.23 330.262L290.44 333.602C292.09 343.122 287.95 355.362 271.58 355.362C251.66 355.362 232.69 351.542 235.51 342.362C238.92 331.372 272.23 330.262 272.23 330.262Z" fill="#FF8C32"/>
<path d="M290.9 346.662C294.63 349.822 301.25 355.902 300.35 356.612C295.95 360.122 291.25 352.412 286.47 353.612C287.15 350.172 290.9 346.662 290.9 346.662Z" fill="#263238"/>
<path d="M299.15 333.602C300.8 343.122 296.66 358.522 280.29 358.522C253.45 358.522 237.78 358.952 235.6 349.622C233.42 340.292 271.88 339.242 271.88 339.242C270.845 337.649 270.169 335.85 269.899 333.969C269.63 332.089 269.774 330.172 270.32 328.352C288.05 328.662 299.15 333.602 299.15 333.602Z" fill="#FF8C32"/>
<path d="M280.94 299.782C279.87 301.782 278.75 303.462 277.56 305.242C276.351 306.998 275.052 308.69 273.67 310.312C272.249 311.992 270.709 313.566 269.06 315.022C268.193 315.789 267.281 316.504 266.33 317.162C265.85 317.502 265.33 317.822 264.81 318.162L264 318.622C263.559 318.864 263.097 319.065 262.62 319.222C260.931 319.735 259.129 319.735 257.44 319.222C256.175 318.855 254.959 318.335 253.82 317.672C251.892 316.513 250.095 315.149 248.46 313.602C245.394 310.725 242.655 307.519 240.29 304.042C239.977 303.592 239.841 303.042 239.906 302.498C239.972 301.954 240.234 301.452 240.645 301.088C241.055 300.725 241.585 300.524 242.133 300.525C242.682 300.526 243.211 300.728 243.62 301.092L243.69 301.162C246.55 303.736 249.555 306.143 252.69 308.372C254.126 309.398 255.656 310.285 257.26 311.022C257.896 311.315 258.569 311.521 259.26 311.632C259.81 311.712 260.08 311.632 260 311.572C259.92 311.512 259.92 311.572 260 311.572L260.47 311.242C260.78 311.002 261.1 310.772 261.42 310.502C262.04 309.972 262.67 309.402 263.29 308.782C264.55 307.488 265.735 306.122 266.84 304.692C267.97 303.232 269.08 301.692 270.13 300.142C271.18 298.592 272.23 296.922 273.13 295.432L273.2 295.322C273.815 294.33 274.791 293.615 275.923 293.329C277.055 293.043 278.254 293.208 279.267 293.79C280.279 294.372 281.026 295.324 281.349 296.446C281.673 297.567 281.548 298.771 281 299.802L280.94 299.782Z" fill="#CE7A63"/>
<path d="M277.28 292.482C271.35 293.662 266.59 303.762 266.59 303.762L275.84 314.182C275.84 314.182 280.75 307.282 281.69 304.082C282.63 300.882 280.68 291.802 277.28 292.482Z" fill="#001142"/>
<path d="M235.18 301.132L235.88 298.252C235.92 298.088 235.992 297.932 236.092 297.796C236.192 297.659 236.318 297.544 236.464 297.456C236.609 297.369 236.77 297.311 236.937 297.286C237.105 297.262 237.276 297.27 237.44 297.312L239.52 297.832C240.328 298.035 241.055 298.482 241.6 299.112L244.97 303.002L243.31 305.722C241.78 305.488 240.308 304.969 238.97 304.192L235.84 302.582C235.582 302.451 235.377 302.236 235.257 301.972C235.137 301.709 235.11 301.413 235.18 301.132Z" fill="#CE7A63"/>
<path d="M277.28 292.482C284.67 290.952 290.41 290.072 298.39 293.482C300.472 294.381 302.191 295.956 303.269 297.952C304.347 299.947 304.72 302.248 304.33 304.482C302.56 314.932 299.42 324.142 299.15 333.632C280.72 341.252 270.02 334.452 270.32 328.382C274.67 316.992 271.56 304.012 273.12 297.662C273.92 294.392 274.84 292.992 277.28 292.482Z" fill="#001142"/>
<path d="M292.37 279.162C291.67 282.742 290.8 290.032 293.3 292.412C289.591 295.161 286.104 298.197 282.87 301.492C278.87 295.582 282.17 292.372 282.17 292.372C286.17 291.372 286.24 287.772 285.54 284.992L292.37 279.162Z" fill="#CE7A63"/>
<path opacity="0.2" d="M289.59 281.542L285.59 284.992C285.757 285.649 285.871 286.318 285.93 286.992C287.46 286.772 289.85 285.472 290.18 283.822C290.179 283.025 289.976 282.24 289.59 281.542Z" fill="black"/>
<path d="M300.45 277.502C297.2 282.502 295.93 284.732 291.8 285.922C285.58 287.722 280.11 282.622 281.8 276.732C283.32 271.422 288.38 264.092 294.64 264.882C296.021 265.053 297.336 265.573 298.459 266.395C299.583 267.216 300.478 268.31 301.06 269.574C301.642 270.838 301.891 272.23 301.784 273.617C301.678 275.005 301.218 276.342 300.45 277.502Z" fill="#CE7A63"/>
<path opacity="0.2" d="M292.07 274.362C292.34 274.377 292.603 274.448 292.843 274.572C293.082 274.697 293.293 274.87 293.46 275.082C292.952 274.941 292.479 274.695 292.07 274.362Z" fill="black"/>
<path opacity="0.2" d="M291.94 274.752C292.183 274.825 292.406 274.954 292.592 275.127C292.778 275.301 292.921 275.515 293.01 275.752C292.586 275.499 292.221 275.158 291.94 274.752Z" fill="black"/>
<path opacity="0.2" d="M289.81 267.242C291.243 267.814 292.558 268.644 293.69 269.692C292.319 269.005 291.02 268.185 289.81 267.242Z" fill="black"/>
<path d="M290.86 264.042C293.66 270.122 296.7 272.222 297.95 272.842C293.83 274.842 294 280.152 298.16 281.542C302.32 282.932 303.5 274.662 303.37 271.622C303.24 268.582 297.85 261.952 290.86 264.042Z" fill="#E0E0E0"/>
<path d="M284.78 277.402C287.29 277.734 289.771 278.259 292.2 278.972C291.2 280.112 289.72 280.872 286.96 280.122C284.2 279.372 284.78 277.402 284.78 277.402Z" fill="white"/>
<path d="M291.36 274.212C291.13 274.642 290.71 274.852 290.43 274.702C290.15 274.552 290.12 274.072 290.36 273.652C290.6 273.232 291.02 273.012 291.29 273.162C291.56 273.312 291.6 273.792 291.36 274.212Z" fill="#263238"/>
<path d="M286.57 271.522C286.33 271.942 285.91 272.162 285.64 272.002C285.37 271.842 285.33 271.372 285.57 271.002C285.81 270.632 286.22 270.362 286.5 270.522C286.78 270.682 286.81 271.092 286.57 271.522Z" fill="#263238"/>
<path d="M286.61 270.562L285.76 269.692C285.76 269.692 285.83 270.782 286.61 270.562Z" fill="#263238"/>
<path d="M287.62 273.112C286.707 273.863 285.698 274.489 284.62 274.972C284.88 275.802 285.97 276.102 285.97 276.102L287.62 273.112Z" fill="#ED847E"/>
<path d="M299.29 282.662C298.3 283.261 297.114 283.445 295.99 283.172C294.5 282.792 294.52 281.282 295.57 280.272C296.62 279.262 298.43 278.472 299.62 279.382C299.868 279.592 300.061 279.859 300.182 280.16C300.304 280.46 300.35 280.786 300.318 281.109C300.285 281.432 300.175 281.742 299.996 282.013C299.817 282.283 299.574 282.506 299.29 282.662Z" fill="#CE7A63"/>
<path d="M293.63 273.572C293.575 273.548 293.529 273.506 293.499 273.454C293.468 273.402 293.455 273.342 293.46 273.282C293.445 272.816 293.334 272.358 293.135 271.937C292.935 271.515 292.651 271.139 292.3 270.832C292.273 270.806 292.252 270.775 292.238 270.741C292.223 270.706 292.216 270.67 292.216 270.632C292.216 270.595 292.223 270.558 292.238 270.524C292.252 270.489 292.273 270.458 292.3 270.432C292.326 270.406 292.357 270.385 292.391 270.37C292.426 270.356 292.463 270.348 292.5 270.348C292.537 270.348 292.574 270.356 292.608 270.37C292.643 270.385 292.674 270.406 292.7 270.432C293.126 270.795 293.467 271.246 293.702 271.753C293.937 272.261 294.059 272.813 294.06 273.372C294.056 273.409 294.045 273.445 294.027 273.477C294.01 273.51 293.986 273.539 293.957 273.562C293.928 273.585 293.895 273.603 293.859 273.613C293.824 273.623 293.787 273.626 293.75 273.622L293.63 273.572Z" fill="#263238"/>
<path d="M286.19 268.392C286.141 268.384 286.095 268.363 286.056 268.331C286.018 268.3 285.988 268.259 285.97 268.212C285.956 268.177 285.949 268.139 285.95 268.101C285.951 268.063 285.959 268.025 285.975 267.991C285.991 267.956 286.014 267.925 286.042 267.899C286.071 267.874 286.104 267.854 286.14 267.842C286.558 267.669 287.012 267.6 287.463 267.64C287.914 267.68 288.349 267.828 288.73 268.072C288.792 268.117 288.834 268.183 288.847 268.258C288.86 268.333 288.843 268.41 288.8 268.472C288.753 268.53 288.686 268.569 288.612 268.58C288.538 268.591 288.462 268.574 288.4 268.532C288.094 268.344 287.748 268.231 287.389 268.203C287.031 268.175 286.671 268.233 286.34 268.372C286.293 268.394 286.241 268.401 286.19 268.392Z" fill="#263238"/>
<path d="M291.4 273.252L290.55 272.392C290.55 272.392 290.63 273.482 291.4 273.252Z" fill="#263238"/>
<path d="M229.29 280.482C228.665 280.531 228.059 280.721 227.518 281.039C226.977 281.356 226.516 281.793 226.169 282.315C225.822 282.837 225.599 283.432 225.516 284.053C225.433 284.675 225.492 285.307 225.69 285.902C229.29 296.412 241.07 303.522 254.36 302.422C267.65 301.322 278.1 292.352 279.92 281.422C280.017 280.802 279.971 280.169 279.786 279.569C279.601 278.97 279.282 278.42 278.853 277.962C278.424 277.504 277.897 277.15 277.311 276.927C276.724 276.703 276.095 276.616 275.47 276.672L229.29 280.482Z" fill="#263238"/>
<path d="M303 303.122C301.92 305.122 300.81 306.792 299.62 308.562C298.417 310.316 297.122 312.005 295.74 313.622C294.33 315.298 292.799 316.869 291.16 318.322C290.298 319.083 289.393 319.794 288.45 320.452C287.97 320.792 287.45 321.112 286.94 321.452L286.13 321.902L285.49 322.232C285.223 322.352 284.949 322.455 284.67 322.542C283.467 322.91 282.186 322.934 280.97 322.612C280.014 322.34 279.118 321.889 278.33 321.282C277.233 320.407 276.284 319.36 275.52 318.182C274.303 316.298 273.297 314.286 272.52 312.182C271.06 308.278 269.992 304.238 269.33 300.122C269.244 299.585 269.357 299.035 269.647 298.575C269.937 298.115 270.385 297.776 270.907 297.622C271.428 297.468 271.988 297.508 272.482 297.737C272.976 297.965 273.37 298.365 273.59 298.862V298.932C275.12 302.482 276.79 306.082 278.59 309.352C279.418 310.905 280.392 312.375 281.5 313.742C281.868 314.215 282.314 314.621 282.82 314.942C282.96 315.012 283.01 314.942 282.82 314.942C282.575 314.871 282.315 314.871 282.07 314.942C282.027 314.94 281.983 314.94 281.94 314.942C281.94 314.942 281.83 315.002 281.94 314.942L282.42 314.622C282.73 314.382 283.05 314.142 283.36 313.882C283.99 313.342 284.61 312.772 285.23 312.152C286.487 310.861 287.669 309.499 288.77 308.072C289.89 306.612 290.99 305.072 292.04 303.542C293.09 302.012 294.13 300.322 295.04 298.842L295.11 298.732C295.704 297.697 296.685 296.939 297.838 296.627C298.99 296.315 300.219 296.473 301.255 297.067C302.291 297.661 303.048 298.643 303.36 299.795C303.672 300.947 303.514 302.177 302.92 303.212L303 303.122Z" fill="#CE7A63"/>
<path d="M299.48 295.162C293.48 295.212 288.65 307.092 288.65 307.092L297.89 317.522C297.89 317.522 302.81 310.622 303.75 307.422C304.69 304.222 304 295.132 299.48 295.162Z" fill="#001142"/>
<path d="M266 294.812L268.1 292.522C268.218 292.391 268.362 292.284 268.522 292.208C268.682 292.133 268.856 292.09 269.033 292.083C269.21 292.075 269.387 292.103 269.553 292.165C269.719 292.227 269.871 292.321 270 292.442L271.65 293.962C272.29 294.558 272.73 295.337 272.91 296.192L274.04 301.452L271.14 303.112C269.854 302.127 268.766 300.909 267.93 299.522L265.87 296.472C265.705 296.22 265.628 295.921 265.651 295.62C265.675 295.32 265.797 295.035 266 294.812Z" fill="#CE7A63"/>
<path d="M297.39 283.662C297.382 283.928 297.297 284.186 297.144 284.404C296.991 284.621 296.778 284.789 296.53 284.887C296.283 284.985 296.012 285.008 295.752 284.953C295.492 284.899 295.253 284.769 295.066 284.58C294.878 284.391 294.75 284.152 294.698 283.891C294.645 283.631 294.67 283.36 294.769 283.113C294.869 282.867 295.038 282.655 295.257 282.503C295.476 282.352 295.734 282.268 296 282.262C296.185 282.257 296.369 282.289 296.541 282.358C296.713 282.426 296.869 282.529 296.999 282.661C297.129 282.792 297.231 282.948 297.299 283.121C297.366 283.293 297.397 283.477 297.39 283.662Z" fill="white"/>
<path d="M364.84 204.382C365.42 205.202 365.84 205.882 366.3 206.642C366.76 207.402 367.16 208.122 367.57 208.872C368.38 210.372 369.11 211.872 369.8 213.472C370.49 215.072 371.11 216.612 371.66 218.232C371.95 219.032 372.19 219.852 372.44 220.662L372.79 221.892C372.9 222.322 373.01 222.632 373.17 223.392C373.36 224.528 373.36 225.687 373.17 226.822C373.014 227.786 372.784 228.735 372.48 229.662C371.903 231.345 371.187 232.977 370.34 234.542C368.714 237.515 366.802 240.322 364.63 242.922C364.356 243.278 363.959 243.517 363.517 243.594C363.075 243.67 362.621 243.578 362.243 243.336C361.866 243.093 361.594 242.717 361.48 242.283C361.367 241.849 361.42 241.389 361.63 240.992V240.932C362.31 239.532 363.02 238.082 363.63 236.642C364.24 235.202 364.88 233.762 365.39 232.322C365.906 230.936 366.327 229.516 366.65 228.072C366.942 226.983 366.99 225.842 366.79 224.732L366.07 222.812C365.77 222.102 365.51 221.372 365.2 220.662C364.61 219.242 363.95 217.842 363.29 216.442C362.63 215.042 361.89 213.692 361.14 212.342C360.78 211.672 360.4 211.002 360.01 210.342L358.87 208.472L358.77 208.312C358.274 207.517 358.109 206.559 358.31 205.643C358.511 204.728 359.062 203.927 359.846 203.412C360.63 202.898 361.583 202.71 362.504 202.89C363.424 203.069 364.237 203.601 364.77 204.372L364.84 204.382Z" fill="#CE7A63"/>
<path d="M363.39 248.662L364.87 247.502C365.142 247.286 365.36 247.009 365.504 246.692C365.648 246.376 365.715 246.03 365.7 245.682L365.55 242.392C365.522 241.743 365.339 241.11 365.015 240.546C364.691 239.982 364.237 239.504 363.69 239.152L363 238.712C360.42 240.462 358.92 244.262 358.92 244.262L358.38 245.262C358.261 245.472 358.185 245.702 358.156 245.941C358.127 246.18 358.146 246.422 358.211 246.653C358.276 246.885 358.386 247.101 358.535 247.29C358.685 247.479 358.87 247.636 359.08 247.752L361.08 248.862C361.442 249.06 361.854 249.146 362.265 249.11C362.676 249.075 363.067 248.919 363.39 248.662Z" fill="#CE7A63"/>
<path d="M355.34 185.252C354.34 188.922 353.12 195.652 355.51 198.112C355.51 198.112 357.34 201.552 346.51 201.002C338.92 200.612 344.09 198.112 344.09 198.112C348.26 197.112 348.38 194.112 347.88 191.232L355.34 185.252Z" fill="#CE7A63"/>
<path d="M371.31 338.942L378.31 336.352C378.989 340.972 379.93 345.55 381.13 350.062L376.21 352.172C376.21 352.172 372.94 342.252 371.31 338.942Z" fill="#CE7A63"/>
<path d="M375.07 360.302C378.83 357.552 378.52 357.682 380.59 356.062C382.36 354.672 382.94 354.592 384.37 353.492C385.57 352.582 384.76 351.382 383.5 350.252C383.02 349.812 382.42 349.332 381.73 348.702C381.538 348.528 381.292 348.426 381.033 348.413C380.774 348.4 380.518 348.478 380.31 348.632L375.91 351.852C375.751 351.968 375.621 352.118 375.53 352.291C375.438 352.464 375.387 352.656 375.38 352.852C375.357 353.919 375.117 354.97 374.676 355.942C374.234 356.913 373.599 357.784 372.81 358.502C371 360.302 373.57 361.402 375.07 360.302Z" fill="#263238"/>
<path d="M340.88 237.072C340.88 237.072 348.28 275.172 354.01 292.922C360.01 311.572 368.84 332.322 372.83 344.472C374.07 344.632 377.61 343.152 379.34 341.682C379.34 341.682 376.7 309.822 367.68 293.372C368.59 245.372 359.46 237.072 359.46 237.072H340.88Z" fill="#001142"/>
<path opacity="0.2" d="M354.62 251.362L347 265.902C348.74 273.542 350.68 281.452 352.52 287.902C358.07 272.432 354.62 251.362 354.62 251.362Z" fill="black"/>
<path d="M371.32 342.212C371.56 343.04 371.727 343.886 371.82 344.742C371.828 344.815 371.853 344.884 371.891 344.946C371.93 345.008 371.981 345.06 372.043 345.1C372.104 345.139 372.173 345.164 372.245 345.173C372.318 345.182 372.391 345.175 372.46 345.152C375.058 344.31 377.54 343.148 379.85 341.692C379.951 341.63 380.033 341.541 380.088 341.435C380.142 341.329 380.167 341.211 380.16 341.092L379.84 338.652C379.827 338.575 379.795 338.502 379.749 338.439C379.702 338.377 379.641 338.326 379.571 338.291C379.501 338.256 379.424 338.237 379.345 338.238C379.267 338.238 379.19 338.257 379.12 338.292L371.71 341.502C371.572 341.556 371.457 341.657 371.386 341.786C371.315 341.916 371.291 342.067 371.32 342.212Z" fill="#263238"/>
<path opacity="0.1" d="M371.32 342.212C371.56 343.04 371.727 343.886 371.82 344.742C371.828 344.815 371.853 344.884 371.891 344.946C371.93 345.008 371.981 345.06 372.043 345.1C372.104 345.139 372.173 345.164 372.245 345.173C372.318 345.182 372.391 345.175 372.46 345.152C375.058 344.31 377.54 343.148 379.85 341.692C379.951 341.63 380.033 341.541 380.088 341.435C380.142 341.329 380.167 341.211 380.16 341.092L379.84 338.652C379.827 338.575 379.795 338.502 379.749 338.439C379.702 338.377 379.641 338.326 379.571 338.291C379.501 338.256 379.424 338.237 379.345 338.238C379.267 338.238 379.19 338.257 379.12 338.292L371.71 341.502C371.572 341.556 371.457 341.657 371.386 341.786C371.315 341.916 371.291 342.067 371.32 342.212Z" fill="white"/>
<path d="M334.73 342.212L341.47 342.702C340.37 348.082 339.21 356.582 339.21 356.582H333.85C333.85 356.582 334.81 345.892 334.73 342.212Z" fill="#CE7A63"/>
<path d="M328.19 361.902C332.84 361.902 332.51 361.832 335.13 361.742C337.37 361.662 337.9 361.942 339.71 361.902C341.21 361.902 341.15 360.432 340.71 358.772C340.53 358.142 340.28 357.392 340.02 356.482C339.952 356.224 339.8 355.996 339.588 355.833C339.377 355.67 339.117 355.582 338.85 355.582H333.4C333.203 355.578 333.008 355.623 332.833 355.714C332.658 355.805 332.509 355.938 332.4 356.102C331.803 356.947 331.029 357.653 330.134 358.171C329.238 358.689 328.24 359.006 327.21 359.102C324.69 359.482 326.33 361.902 328.19 361.902Z" fill="#263238"/>
<path d="M335.14 237.072C335.14 237.072 334.29 270.272 333.54 290.952C332.79 311.632 334.4 348.162 334.4 348.162C334.55 349.162 339.82 348.772 340.72 348.162C340.72 348.162 350.78 318.552 346.94 292.922C360.41 259.692 356.53 237.922 356.53 237.922L335.14 237.072Z" fill="#001142"/>
<path d="M333.68 345.402C333.68 346.082 333.62 347.292 333.56 348.192C333.549 348.336 333.593 348.479 333.685 348.591C333.776 348.703 333.907 348.775 334.05 348.792C336.381 348.984 338.724 348.961 341.05 348.722C341.162 348.711 341.267 348.665 341.35 348.589C341.433 348.513 341.489 348.413 341.51 348.302L341.98 345.852C341.994 345.772 341.991 345.69 341.971 345.611C341.951 345.532 341.914 345.458 341.863 345.394C341.812 345.331 341.747 345.279 341.674 345.242C341.602 345.206 341.522 345.185 341.44 345.182L334.25 344.902C334.179 344.892 334.106 344.898 334.037 344.918C333.968 344.939 333.904 344.974 333.85 345.022C333.796 345.069 333.753 345.128 333.724 345.193C333.694 345.259 333.679 345.33 333.68 345.402Z" fill="#263238"/>
<path opacity="0.1" d="M333.68 345.402C333.68 346.082 333.62 347.292 333.56 348.192C333.549 348.336 333.593 348.479 333.685 348.591C333.776 348.703 333.907 348.775 334.05 348.792C336.381 348.984 338.724 348.961 341.05 348.722C341.162 348.711 341.267 348.665 341.35 348.589C341.433 348.513 341.489 348.413 341.51 348.302L341.98 345.852C341.994 345.772 341.991 345.69 341.971 345.611C341.951 345.532 341.914 345.458 341.863 345.394C341.812 345.331 341.747 345.279 341.674 345.242C341.602 345.206 341.522 345.185 341.44 345.182L334.25 344.902C334.179 344.892 334.106 344.898 334.037 344.918C333.968 344.939 333.904 344.974 333.85 345.022C333.796 345.069 333.753 345.128 333.724 345.193C333.694 345.259 333.679 345.33 333.68 345.402Z" fill="white"/>
<path d="M358.15 231.282C358.276 233.225 358.516 235.158 358.87 237.072H335.39L335.14 231.072C335.14 231.072 353.24 230.072 358.15 231.282Z" fill="#CE7A63"/>
<path d="M332.88 206.892C332.738 210.503 332.791 214.118 333.04 217.722C333.24 222.422 332.34 223.572 333.04 231.282C335.61 232.782 352.55 232.722 360.87 231.652C360.37 224.982 359.75 220.492 364.26 205.492C364.509 204.687 364.572 203.836 364.442 203.003C364.312 202.17 363.994 201.377 363.512 200.686C363.03 199.994 362.396 199.422 361.659 199.012C360.923 198.603 360.102 198.367 359.26 198.322C358.26 198.222 357.2 198.142 356.12 198.092C352.318 197.842 348.503 197.842 344.7 198.092C343.45 198.202 342.17 198.352 340.94 198.512C338.832 198.755 336.875 199.724 335.404 201.253C333.933 202.783 333.041 204.777 332.88 206.892Z" fill="#FF8C32"/>
<path d="M304.46 191.662C304.667 195.487 303.982 199.308 302.46 202.822C302.257 203.239 302.174 203.703 302.22 204.164C302.266 204.625 302.439 205.064 302.72 205.432C306.31 210.272 313.05 208.542 315.72 207.592C316.082 207.463 316.41 207.252 316.679 206.977C316.947 206.701 317.15 206.368 317.27 206.002C318.42 202.542 319.54 198.172 318.55 193.652C318.485 193.287 318.331 192.943 318.1 192.652C315.87 189.962 310.87 189.652 307.4 189.082C307.03 189.018 306.651 189.037 306.29 189.138C305.928 189.24 305.594 189.421 305.312 189.668C305.03 189.916 304.807 190.224 304.66 190.569C304.512 190.914 304.444 191.287 304.46 191.662Z" fill="white"/>
<path d="M317.29 184.992C319.549 184.992 321.38 182.722 321.38 179.922C321.38 177.122 319.549 174.852 317.29 174.852C315.031 174.852 313.2 177.122 313.2 179.922C313.2 182.722 315.031 184.992 317.29 184.992Z" fill="white"/>
<path d="M300.66 194.342C298.66 194.752 298.45 195.082 298.12 197.502C297.79 195.082 297.52 194.752 295.58 194.342C297.52 193.932 297.79 193.602 298.12 191.192C298.45 193.602 298.71 193.932 300.66 194.342Z" fill="white"/>
<path d="M314.18 192.502L315.18 194.072C315.375 194.364 315.495 194.698 315.532 195.046C315.569 195.395 315.52 195.747 315.39 196.072L314.19 199.152C313.954 199.758 313.577 200.298 313.09 200.727C312.603 201.157 312.02 201.464 311.39 201.622L310.6 201.822C308.72 199.332 308.51 195.252 308.51 195.252L308.33 194.102C308.284 193.866 308.285 193.624 308.334 193.388C308.382 193.153 308.478 192.929 308.613 192.731C308.749 192.533 308.923 192.364 309.125 192.233C309.327 192.103 309.553 192.014 309.79 191.972L312.07 191.572C312.474 191.505 312.889 191.557 313.264 191.722C313.639 191.887 313.957 192.158 314.18 192.502Z" fill="#CE7A63"/>
<path d="M335.56 209.662C335.32 209.942 335.22 210.032 335.07 210.192L334.65 210.602C334.37 210.856 334.09 211.096 333.81 211.322C333.25 211.772 332.69 212.182 332.12 212.582C330.979 213.333 329.786 214.001 328.55 214.582C327.34 215.159 326.094 215.656 324.82 216.072C323.565 216.473 322.29 216.807 321 217.072L320.79 217.122C320.635 217.152 320.478 217.172 320.32 217.182C319.527 217.198 318.739 217.059 318 216.772C317.375 216.532 316.791 216.195 316.27 215.772C315.486 215.109 314.811 214.326 314.27 213.452C313.391 212.035 312.692 210.513 312.19 208.922C311.715 207.464 311.331 205.978 311.04 204.472C310.755 202.985 310.551 201.482 310.43 199.972C310.393 199.541 310.514 199.112 310.769 198.762C311.025 198.413 311.398 198.169 311.82 198.073C312.242 197.978 312.684 198.039 313.065 198.245C313.445 198.451 313.739 198.787 313.89 199.192V199.262C314.38 200.532 314.89 201.872 315.43 203.142C315.97 204.412 316.54 205.672 317.16 206.842C317.714 207.941 318.385 208.977 319.16 209.932C319.415 210.255 319.722 210.533 320.07 210.752C320.32 210.872 320.25 210.752 320.07 210.752L319.39 210.862C320.44 210.492 321.47 210.102 322.48 209.672C323.49 209.242 324.48 208.762 325.4 208.252C326.325 207.75 327.223 207.2 328.09 206.602C328.52 206.312 328.93 206.012 329.31 205.702C329.51 205.552 329.68 205.392 329.86 205.242L330.1 205.032C330.17 205.032 330.28 204.862 330.24 204.912C330.544 204.531 330.923 204.215 331.353 203.985C331.783 203.754 332.255 203.613 332.742 203.571C333.228 203.528 333.717 203.585 334.181 203.738C334.644 203.89 335.072 204.136 335.438 204.459C335.803 204.782 336.1 205.176 336.308 205.617C336.517 206.058 336.634 206.537 336.652 207.024C336.67 207.512 336.589 207.998 336.413 208.453C336.237 208.909 335.971 209.323 335.63 209.672L335.56 209.662Z" fill="#CE7A63"/>
<path d="M342 198.382C337.28 198.282 332.44 200.972 325.15 206.932C325 210.172 330.61 215.562 330.61 215.562C330.61 215.562 348.29 205.812 342 198.382Z" fill="#FF8C32"/>
<path d="M343.38 178.422C343.21 178.902 342.82 179.222 342.51 179.132C342.2 179.042 342.09 178.582 342.26 178.132C342.43 177.682 342.82 177.332 343.13 177.422C343.44 177.512 343.55 177.952 343.38 178.422Z" fill="#263238"/>
<path d="M343.26 177.472L342.26 176.812C342.26 176.812 342.5 177.872 343.26 177.472Z" fill="#263238"/>
<path d="M343 179.322C342.185 180.296 341.247 181.16 340.21 181.892C340.395 182.136 340.634 182.334 340.908 182.471C341.182 182.608 341.484 182.68 341.79 182.682L343 179.322Z" fill="#BA4D3C"/>
<path d="M344.1 174.462C344.065 174.455 344.032 174.441 344.003 174.42C343.973 174.399 343.949 174.373 343.93 174.342C343.893 174.274 343.884 174.195 343.905 174.12C343.925 174.046 343.974 173.982 344.04 173.942C344.443 173.686 344.899 173.524 345.374 173.47C345.849 173.417 346.33 173.472 346.78 173.632C346.814 173.648 346.844 173.671 346.869 173.699C346.894 173.727 346.912 173.76 346.924 173.796C346.935 173.832 346.939 173.869 346.935 173.907C346.931 173.944 346.919 173.98 346.9 174.012C346.864 174.082 346.803 174.136 346.729 174.164C346.655 174.192 346.574 174.191 346.5 174.162C346.143 174.039 345.763 174 345.389 174.047C345.014 174.093 344.656 174.225 344.34 174.432C344.266 174.471 344.181 174.482 344.1 174.462Z" fill="#263238"/>
<path d="M359.77 181.132C357.49 186.722 356.64 189.132 352.77 191.242C346.92 194.412 340.52 190.792 341.08 184.732C341.58 179.282 345.22 171.052 351.61 170.362C352.975 170.169 354.366 170.343 355.64 170.868C356.915 171.393 358.025 172.249 358.858 173.348C359.69 174.446 360.213 175.747 360.374 177.116C360.534 178.484 360.326 179.871 359.77 181.132Z" fill="#CE7A63"/>
<path d="M347.72 181.002C344.42 176.122 347.25 173.572 348.66 172.822C345.57 171.932 343.32 171.082 343.57 168.232C343.675 167.566 343.919 166.928 344.286 166.362C344.653 165.795 345.135 165.313 345.701 164.945C346.267 164.577 346.904 164.332 347.57 164.227C348.237 164.121 348.918 164.157 349.57 164.332C348.84 164.932 352.04 168.882 354.69 167.632C356.472 166.962 358.432 166.94 360.228 167.571C362.023 168.202 363.54 169.445 364.51 171.082C366.67 174.962 366.01 182.082 360.37 185.252C362.48 188.512 355.58 193.012 350.69 191.252C345.8 189.492 343.72 182.582 347.72 181.002Z" fill="#263238"/>
<path d="M368.11 169.912C369.38 173.492 367.88 176.782 364.72 177.442C361.81 178.042 358.11 176.362 357.8 172.942C357.53 170.002 358.61 166.552 361.19 165.422C364 164.192 366.87 166.392 368.11 169.912Z" fill="white"/>
<path d="M378.81 168.502C378.958 169.82 378.807 171.155 378.369 172.407C377.931 173.658 377.216 174.796 376.279 175.734C375.342 176.672 374.205 177.388 372.954 177.827C371.702 178.266 370.368 178.419 369.05 178.272C363.66 177.892 358.05 173.752 359.28 168.502C360.28 163.972 363.97 159.292 369.05 158.732C374.56 158.122 378.45 162.662 378.81 168.502Z" fill="#263238"/>
<path d="M349.11 181.302C348.815 181.798 348.42 182.227 347.95 182.561C347.48 182.895 346.945 183.127 346.38 183.242C344.97 183.472 344.53 181.832 345.15 180.302C345.71 178.932 347.15 177.162 348.42 177.642C349.69 178.122 350 179.992 349.11 181.302Z" fill="#CE7A63"/>
<path d="M359.51 198.382C363.6 199.012 365.25 200.252 368.59 208.482C367.07 211.552 359.96 214.482 359.96 214.482C359.96 214.482 355.25 203.832 359.51 198.382Z" fill="#FF8C32"/>
<path d="M335.09 238.872C343.484 239.812 351.956 239.812 360.35 238.872C360.437 238.857 360.52 238.823 360.592 238.771C360.663 238.719 360.722 238.651 360.764 238.573C360.805 238.495 360.828 238.408 360.831 238.32C360.834 238.231 360.817 238.143 360.78 238.062C360.58 237.582 360.37 237.062 360.17 236.612C360.129 236.506 360.054 236.415 359.956 236.356C359.859 236.296 359.744 236.27 359.63 236.282C351.561 237.167 343.419 237.167 335.35 236.282C335.278 236.276 335.206 236.283 335.137 236.305C335.068 236.326 335.005 236.361 334.95 236.408C334.895 236.455 334.85 236.512 334.817 236.576C334.785 236.64 334.765 236.711 334.76 236.782L334.61 238.292C334.606 238.431 334.652 238.566 334.741 238.673C334.829 238.78 334.953 238.851 335.09 238.872Z" fill="#263238"/>
</svg>
