<svg width="109" height="109" viewBox="0 0 109 109" fill="none" xmlns="http://www.w3.org/2000/svg">
<path d="M89.5058 19.0021L76.5445 18.9456C76.9464 17.8529 77.079 16.6795 76.9312 15.5247C76.7833 14.3699 76.3594 13.2677 75.6953 12.3114C75.0312 11.3552 74.1464 10.573 73.116 10.0312C72.0855 9.48938 70.9396 9.20384 69.7754 9.19877C68.6111 9.19369 67.4628 9.46921 66.4277 10.002C65.3925 10.5348 64.501 11.3092 63.8285 12.2596C63.1561 13.2101 62.7226 14.3085 62.5647 15.462C62.4068 16.6155 62.5291 17.79 62.9214 18.8862L49.3614 18.827L49.3023 32.3862C48.5133 32.0942 47.679 31.9436 46.8377 31.9416C45.8852 31.936 44.941 32.1183 44.059 32.478C43.177 32.8376 42.3746 33.3677 41.6977 34.0378C41.0207 34.7078 40.4825 35.5048 40.1139 36.3831C39.7452 37.2613 39.5533 38.2036 39.5492 39.1561C39.545 40.1086 39.7287 41.0526 40.0897 41.934C40.4507 42.8154 40.9819 43.617 41.653 44.293C42.3241 44.9689 43.1218 45.5059 44.0007 45.8733C44.8795 46.2406 45.8221 46.4311 46.7746 46.4339C47.6158 46.4392 48.4514 46.2961 49.2428 46.0109L49.1837 59.57L65.1896 59.6399L64.5567 58.7017C63.9426 57.7897 63.5887 56.7276 63.533 55.6295C63.4773 54.5315 63.722 53.439 64.2406 52.4696C64.7593 51.5001 65.5324 50.6904 66.4768 50.1274C67.4211 49.5644 68.5011 49.2695 69.6006 49.2742C70.7 49.279 71.7774 49.5834 72.7168 50.1546C73.6562 50.7258 74.4222 51.5422 74.9324 52.5161C75.4426 53.4901 75.6777 54.5846 75.6125 55.6821C75.5472 56.7797 75.1841 57.8386 74.5621 58.7452L73.921 59.678L89.9268 59.7477L89.9853 46.3237C91.0645 46.6485 92.2045 46.7171 93.3148 46.524C94.4251 46.331 95.475 45.8816 96.3812 45.2117C97.2874 44.5417 98.0248 43.6696 98.5349 42.6647C99.045 41.6598 99.3136 40.5498 99.3195 39.4229C99.3254 38.2959 99.0683 37.1831 98.5687 36.173C98.0692 35.1628 97.3409 34.2831 96.4417 33.6037C95.5425 32.9244 94.4973 32.4641 93.3891 32.2595C92.2809 32.0549 91.1402 32.1116 90.0577 32.4251L90.1822 25.6063C90.1836 25.5277 90.1696 25.4496 90.1408 25.3765C90.1121 25.3033 90.0692 25.2365 90.0146 25.1799C89.96 25.1233 89.8949 25.078 89.8228 25.0466C89.7507 25.0152 89.6732 24.9983 89.5946 24.9969C89.516 24.9955 89.4379 25.0095 89.3647 25.0383C89.2915 25.067 89.2247 25.1099 89.1681 25.1645C89.1115 25.219 89.0663 25.2842 89.0349 25.3563C89.0034 25.4283 88.9865 25.5059 88.9851 25.5845L88.8281 34.1982L89.6805 33.8307C90.6028 33.4329 91.6097 33.2709 92.6102 33.3595C93.6108 33.4481 94.5735 33.7845 95.4115 34.3382C96.2495 34.892 96.9365 35.6457 97.4103 36.5314C97.8841 37.4171 98.13 38.4068 98.1256 39.4112C98.1213 40.4157 97.8668 41.4032 97.3853 42.2847C96.9038 43.1663 96.2104 43.914 95.3676 44.4605C94.5248 45.0069 93.5592 45.3349 92.5579 45.4148C91.5566 45.4948 90.5512 45.3241 89.6324 44.9182L88.7959 44.5486L88.735 58.5449L76.0928 58.4899C76.6278 57.3876 76.8745 56.1677 76.81 54.9442C76.7454 53.7206 76.3717 52.5334 75.7236 51.4936C75.0756 50.4537 74.1745 49.5952 73.1046 48.9982C72.0346 48.4012 70.8307 48.0853 69.6055 48.08C68.3803 48.0746 67.1737 48.3801 66.0986 48.9678C65.0235 49.5554 64.1149 50.4061 63.4579 51.4403C62.8009 52.4745 62.4168 53.6584 62.3416 54.8813C62.2665 56.1043 62.5026 57.3263 63.028 58.4332L50.3861 58.378L50.4481 44.1118L49.571 44.5639C48.6472 45.0396 47.6165 45.2692 46.5782 45.2306C45.5399 45.1919 44.5291 44.8864 43.6433 44.3434C42.7575 43.8004 42.0265 43.0383 41.5209 42.1306C41.0153 41.2229 40.7522 40.2002 40.7569 39.1612C40.7658 37.5575 41.4104 36.0227 42.5494 34.8937C43.6883 33.7646 45.2287 33.1334 46.8324 33.1385C47.8038 33.1411 48.7598 33.3804 49.6179 33.8356L50.4911 34.2952L50.5533 20.0294L64.821 20.0915L64.3684 19.2141C63.8916 18.2901 63.661 17.2587 63.699 16.2196C63.737 15.1805 64.0422 14.1687 64.5851 13.2819C65.1281 12.3951 65.8905 11.6633 66.7987 11.157C67.707 10.6507 68.7304 10.3872 69.7702 10.3917C70.81 10.3963 71.8311 10.6688 72.7348 11.183C73.6386 11.6971 74.3946 12.4356 74.9298 13.3271C75.465 14.2186 75.7613 15.233 75.7902 16.2724C75.8191 17.3118 75.5796 18.3411 75.0947 19.261L74.6343 20.1343L89.5006 20.199C89.5801 20.2006 89.659 20.1865 89.7329 20.1573C89.8068 20.1281 89.8741 20.0846 89.931 20.0291C89.9879 19.9736 90.0331 19.9074 90.0641 19.8343C90.0952 19.7612 90.1113 19.6826 90.1117 19.6032C90.112 19.5237 90.0965 19.445 90.0662 19.3716C90.0358 19.2982 89.9911 19.2316 89.9347 19.1757C89.8783 19.1197 89.8114 19.0755 89.7377 19.0457C89.6641 19.0159 89.5852 19.0012 89.5058 19.0021Z" fill="white"/>
<path d="M92.008 71.3143C91.3116 71.3135 90.6187 71.4141 89.9511 71.6127V58.1887H76.1119C76.6422 57.0841 76.8837 55.8631 76.8139 54.6398C76.744 53.4165 76.3651 52.2309 75.7126 51.1938C75.0601 50.1568 74.1552 49.3021 73.0826 48.7097C72.0101 48.1174 70.8048 47.8067 69.5795 47.8067C68.3543 47.8067 67.149 48.1174 66.0764 48.7097C65.0038 49.3021 64.099 50.1568 63.4465 51.1938C62.7939 52.2309 62.415 53.4165 62.3452 54.6398C62.2754 55.8631 62.5169 57.0841 63.0471 58.1887H50.405V43.9225L49.5298 44.3785C48.6698 44.8299 47.7127 45.065 46.7413 45.0633C45.9458 45.065 45.1578 44.9099 44.4223 44.6067C43.6869 44.3035 43.0184 43.8582 42.4553 43.2963C41.8922 42.7344 41.4454 42.067 41.1406 41.3322C40.8357 40.5974 40.6788 39.8097 40.6788 39.0142C40.6788 38.2187 40.8357 37.431 41.1406 36.6962C41.4454 35.9614 41.8922 35.294 42.4553 34.7321C43.0184 34.1702 43.6869 33.7249 44.4223 33.4217C45.1578 33.1185 45.9458 32.9634 46.7413 32.9651C47.7127 32.9634 48.6698 33.1985 49.5298 33.65L50.405 34.1059V18.6426H35.5318L35.7856 19.4257C36.0808 20.3336 36.1569 21.2985 36.0077 22.2414C35.8585 23.1844 35.4882 24.0786 34.9271 24.851C34.366 25.6234 33.6301 26.252 32.7795 26.6855C31.9289 27.1189 30.9878 27.3449 30.0331 27.3449C29.0784 27.3449 28.1373 27.1189 27.2867 26.6855C26.4361 26.252 25.7002 25.6234 25.1391 24.851C24.578 24.0786 24.2077 23.1844 24.0585 22.2414C23.9093 21.2985 23.9854 20.3336 24.2806 19.4257L24.5344 18.6426H9.66146V32.1849C8.88676 31.9079 8.07 31.7669 7.24727 31.7682H7.24626C5.32446 31.7682 3.48138 32.5317 2.12246 33.8906C0.763551 35.2495 0.00012207 37.0926 0.00012207 39.0144C0.00012207 40.9362 0.763551 42.7792 2.12246 44.1382C3.48138 45.4971 5.32446 46.2605 7.24626 46.2605C8.06935 46.2618 8.88647 46.1208 9.66151 45.8437V74.105L10.5879 73.4987C11.5004 72.9015 12.5573 72.5622 13.6468 72.5166C14.7364 72.4709 15.818 72.7206 16.7773 73.2393C17.7365 73.7579 18.5377 74.5262 19.0961 75.4629C19.6545 76.3996 19.9493 77.4698 19.9493 78.5603C19.9494 79.6508 19.6546 80.7211 19.0962 81.6578C18.5379 82.5945 17.7367 83.3628 16.7774 83.8815C15.8182 84.4002 14.7366 84.65 13.647 84.6043C12.5575 84.5587 11.5005 84.2194 10.588 83.6223L9.66151 83.0159V98.3336C9.66151 98.4924 9.72458 98.6446 9.83683 98.7569C9.94909 98.8691 10.1013 98.9322 10.2601 98.9322C10.4188 98.9322 10.5711 98.8691 10.6833 98.7569C10.7956 98.6446 10.8587 98.4924 10.8587 98.3336V85.1384C11.9628 85.6485 13.1775 85.8726 14.391 85.7899C15.6044 85.7072 16.7775 85.3203 17.8022 84.6651C18.8268 84.0098 19.67 83.1071 20.2541 82.0403C20.8382 80.9734 21.1443 79.7767 21.1443 78.5605C21.1443 77.3442 20.8382 76.1475 20.2541 75.0807C19.67 74.0138 18.8268 73.1112 17.8022 72.4559C16.7775 71.8006 15.6044 71.4138 14.391 71.3311C13.1775 71.2483 11.9628 71.4724 10.8587 71.9825V59.386H23.1698C22.9156 60.1304 22.7862 60.9118 22.7871 61.6985C22.7871 63.6203 23.5505 65.4633 24.9094 66.8223C26.2683 68.1812 28.1114 68.9446 30.0332 68.9446C31.955 68.9446 33.7981 68.1812 35.157 66.8223C36.5159 65.4633 37.2794 63.6203 37.2794 61.6985C37.2802 60.9118 37.1509 60.1304 36.8966 59.386H49.2078V74.0621L50.1296 73.4704C51.0435 72.8836 52.0985 72.5536 53.1839 72.5152C54.2692 72.4768 55.3449 72.7312 56.298 73.2519C57.2511 73.7726 58.0465 74.5403 58.6005 75.4743C59.1546 76.4084 59.447 77.4744 59.447 78.5605C59.447 79.6465 59.1546 80.7126 58.6005 81.6466C58.0465 82.5807 57.2511 83.3484 56.298 83.869C55.3449 84.3897 54.2692 84.6442 53.1839 84.6058C52.0985 84.5673 51.0435 84.2374 50.1296 83.6506L49.2078 83.0589V97.735H35.1065L35.5063 98.5877C35.8853 99.3887 36.082 100.264 36.0822 101.15C36.0822 102.754 35.4449 104.293 34.3105 105.427C33.1761 106.562 31.6375 107.199 30.0332 107.199C28.4289 107.199 26.8903 106.562 25.7559 105.427C24.6215 104.293 23.9842 102.754 23.9842 101.15C23.9844 100.264 24.181 99.3888 24.56 98.5879L24.9602 97.735H16.2606C16.1018 97.735 15.9496 97.798 15.8373 97.9103C15.725 98.0225 15.662 98.1748 15.662 98.3335C15.662 98.4923 15.725 98.6445 15.8373 98.7568C15.9496 98.869 16.1018 98.9321 16.2606 98.9321H23.1384C22.905 99.6482 22.7864 100.397 22.787 101.15C22.787 103.072 23.5505 104.915 24.9094 106.274C26.2683 107.633 28.1114 108.396 30.0332 108.396C31.955 108.396 33.798 107.633 35.1569 106.274C36.5159 104.915 37.2793 103.072 37.2793 101.15C37.2799 100.397 37.1613 99.6482 36.9278 98.9321H49.2076H65.3094L64.6415 97.9879C64.0008 97.0825 63.6214 96.0184 63.5447 94.9118C63.4681 93.8053 63.6971 92.699 64.2068 91.7139C64.7165 90.7288 65.4873 89.9028 66.4348 89.3262C67.3823 88.7496 68.4702 88.4447 69.5793 88.4447C70.6885 88.4447 71.7763 88.7496 72.7238 89.3262C73.6714 89.9028 74.4421 90.7288 74.9518 91.7139C75.4616 92.699 75.6906 93.8053 75.6139 94.9118C75.5373 96.0184 75.1579 97.0825 74.5172 97.9879L73.8493 98.9322H89.9512V85.5083C90.9479 85.8033 91.9963 85.8805 93.0254 85.7346C94.0545 85.5887 95.0402 85.2231 95.9155 84.6626C96.7908 84.1021 97.5353 83.3599 98.0985 82.4863C98.6617 81.6127 99.0303 80.6282 99.1793 79.5995C99.3284 78.5709 99.2544 77.5222 98.9624 76.5247C98.6704 75.5271 98.1672 74.6041 97.487 73.8182C96.8068 73.0323 95.9654 72.4019 95.0201 71.9699C94.0747 71.5379 93.0475 71.3143 92.0081 71.3143H92.008ZM49.2077 58.1887H35.0437L35.4647 59.05C35.871 59.8737 36.0823 60.7799 36.0821 61.6983C36.0821 63.3026 35.4448 64.8412 34.3104 65.9756C33.176 67.11 31.6374 67.7473 30.0332 67.7473C28.4289 67.7473 26.8903 67.11 25.7559 65.9756C24.6215 64.8412 23.9842 63.3026 23.9842 61.6983C23.9841 60.7799 24.1954 59.8737 24.6016 59.05L25.0227 58.1887H10.8586V43.9567L9.98807 44.4008C9.14004 44.8371 8.19994 45.0643 7.24626 45.0633C5.64197 45.0633 4.10339 44.426 2.96898 43.2916C1.83458 42.1571 1.19728 40.6186 1.19728 39.0143C1.19728 37.41 1.83458 35.8714 2.96898 34.737C4.10339 33.6026 5.64197 32.9653 7.24626 32.9653H7.24697C8.20036 32.9643 9.14015 33.1914 9.98792 33.6276L10.8585 34.0717V19.8397H22.9348C22.7185 20.893 22.7394 21.9811 22.9959 23.0253C23.2523 24.0694 23.7379 25.0434 24.4175 25.8767C25.097 26.7099 25.9535 27.3814 26.9247 27.8426C27.896 28.3038 28.9577 28.5431 30.0329 28.5431C31.1081 28.5431 32.1698 28.3038 33.1411 27.8426C34.1124 27.3814 34.9688 26.7099 35.6484 25.8767C36.3279 25.0434 36.8135 24.0694 37.07 23.0253C37.3264 21.9811 37.3473 20.893 37.1311 19.8397H49.2076V32.2017C48.4173 31.9131 47.5823 31.7663 46.7411 31.768C45.7882 31.7661 44.8444 31.9521 43.9635 32.3153C43.0827 32.6786 42.2821 33.2121 41.6077 33.8851C40.9333 34.5582 40.3982 35.3577 40.0331 36.2378C39.668 37.1179 39.4801 38.0614 39.4801 39.0142C39.4801 39.967 39.668 40.9105 40.0331 41.7906C40.3982 42.6707 40.9333 43.4702 41.6077 44.1433C42.2821 44.8163 43.0827 45.3498 43.9635 45.7131C44.8444 46.0763 45.7882 46.2623 46.7411 46.2604C47.5823 46.2621 48.4173 46.1153 49.2076 45.8267L49.2077 58.1887ZM92.008 84.6095C91.1764 84.6103 90.3537 84.4383 89.5921 84.1043L88.7541 83.7384V97.735H76.0617C76.6136 96.6303 76.874 95.4028 76.8181 94.1692C76.7623 92.9355 76.3921 91.7366 75.7427 90.6862C75.0933 89.6358 74.1862 88.7688 73.1075 88.1675C72.0288 87.5663 70.8144 87.2507 69.5795 87.2507C68.3445 87.2507 67.1301 87.5663 66.0514 88.1675C64.9728 88.7688 64.0657 89.6358 63.4162 90.6862C62.7668 91.7366 62.3966 92.9355 62.3408 94.1692C62.285 95.4028 62.5454 96.6303 63.0973 97.735H50.4049V85.1602C51.5086 85.6605 52.7202 85.8761 53.9288 85.7872C55.1374 85.6982 56.3043 85.3076 57.3229 84.651C58.3415 83.9944 59.1791 83.0928 59.7591 82.0288C60.3392 80.9648 60.6431 79.7723 60.6431 78.5605C60.6431 77.3486 60.3392 76.1561 59.7591 75.0921C59.1791 74.0281 58.3415 73.1266 57.3229 72.47C56.3043 71.8134 55.1374 71.4228 53.9288 71.3338C52.7202 71.2448 51.5086 71.4604 50.4049 71.9608V59.3858H65.2137L64.5767 58.4504C63.9586 57.5411 63.6 56.4805 63.5394 55.3827C63.4789 54.2849 63.7188 53.1913 64.2332 52.2196C64.7476 51.2478 65.5172 50.4347 66.4591 49.8675C67.4011 49.3004 68.4798 49.0007 69.5793 49.0007C70.6788 49.0007 71.7575 49.3004 72.6994 49.8675C73.6414 50.4347 74.4109 51.2478 74.9254 52.2196C75.4398 53.1913 75.6796 54.2849 75.6191 55.3827C75.5586 56.4805 75.2 57.5411 74.5819 58.4504L73.9449 59.3858H88.7537V73.3825L89.5917 73.0166C90.4159 72.6574 91.3097 72.4864 92.2083 72.5161C93.1068 72.5458 93.9875 72.7755 94.7861 73.1884C95.5847 73.6012 96.2813 74.187 96.825 74.9029C97.3688 75.6189 97.7461 76.4471 97.9295 77.3272C98.1129 78.2073 98.0979 79.1173 97.8853 79.9909C97.6728 80.8644 97.2682 81.6796 96.701 82.3771C96.1338 83.0747 95.4182 83.637 94.6063 84.0231C93.7944 84.4093 92.9067 84.6096 92.0076 84.6095L92.008 84.6095Z" fill="white"/>
</svg>
