<svg width="84" height="99" viewBox="0 0 84 99" fill="none" xmlns="http://www.w3.org/2000/svg">
<path d="M67.7286 50.5393C67.8929 50.6735 68.0929 50.7566 68.304 50.7784C68.515 50.8001 68.7278 50.7595 68.916 50.6616C69.1042 50.5637 69.2596 50.4127 69.363 50.2274C69.4663 50.0421 69.5131 49.8306 69.4974 49.619L68.8767 41.1654C70.1757 38.952 70.8626 36.4329 70.8669 33.8665C70.8669 30.2072 69.4779 26.7281 66.8518 23.7699C66.9249 23.1214 66.9619 22.4692 66.9624 21.8166C66.9733 9.78837 54.6998 0 39.6266 0C24.5534 0 12.293 9.78837 12.293 21.8209C12.2984 25.0501 13.1693 28.2188 14.8149 30.9972L13.9273 40.9571C13.9091 41.161 13.949 41.3659 14.0423 41.5482C14.1357 41.7304 14.2787 41.8825 14.4548 41.9869C14.6309 42.0913 14.833 42.1438 15.0377 42.1382C15.2424 42.1326 15.4413 42.0693 15.6115 41.9554L21.3955 38.0835C24.0032 39.9271 26.8956 41.3305 29.9576 42.2376C33.784 47.8415 41.0656 51.3076 49.0808 51.3076C54.3873 51.3076 59.4356 49.7883 63.4052 47.0167L67.7286 50.5393ZM21.4215 35.6722C21.2065 35.6718 20.9963 35.7361 20.8182 35.8567L16.2908 38.8952L17.0092 30.8475C17.0283 30.6199 16.9752 30.392 16.8573 30.1964C15.3033 27.6834 14.4768 24.7886 14.4699 21.8339C14.4699 10.9973 25.7558 2.18339 39.6462 2.18339C53.5365 2.18339 64.8029 10.9842 64.8029 21.8209C64.8029 32.6576 53.517 41.4714 39.6396 41.4714C33.0504 41.4714 26.8171 39.4899 22.09 35.8936C21.898 35.7476 21.6628 35.6697 21.4215 35.6722ZM49.0764 49.1285C42.8344 49.1285 37.1068 46.8626 33.4346 43.071C35.4769 43.4493 37.5495 43.6404 39.6266 43.6418C52.6488 43.6418 63.581 36.3277 66.3048 26.5719C67.8406 28.6956 68.6752 31.2457 68.6922 33.8665C68.6845 36.155 68.0429 38.3967 66.8387 40.3429C66.7193 40.538 66.6646 40.7659 66.6825 40.994L67.1448 47.2772L64.1171 44.8138C63.9283 44.6604 63.6934 44.5748 63.4502 44.5709C63.207 44.567 62.9694 44.6449 62.7758 44.7921C59.0905 47.5919 54.2245 49.1372 49.0764 49.1372V49.1285Z" fill="#011142"/>
<path d="M39.5963 21.5193C36.9789 21.5193 36.9745 25.5887 39.5963 25.5887C42.2181 25.5887 42.2312 21.5193 39.5963 21.5193Z" fill="#011142"/>
<path d="M26.754 21.5193C24.1366 21.5193 24.1322 25.5887 26.754 25.5887C29.3758 25.5887 29.3758 21.5193 26.754 21.5193Z" fill="#011142"/>
<path d="M52.4319 25.5887C55.0515 25.5887 55.0558 21.5193 52.4319 21.5193C49.8079 21.5193 49.8274 25.5887 52.4319 25.5887Z" fill="#011142"/>
<path d="M16.0955 75.4399C17.9412 74.3408 19.3774 72.6689 20.1855 70.6786C20.9937 68.6882 21.1296 66.4883 20.5725 64.4136C20.0154 62.3389 18.7959 60.503 17.0994 59.1852C15.403 57.8673 13.3225 57.1397 11.1745 57.1129C9.02647 57.0862 6.92853 57.7619 5.19983 59.0372C3.47114 60.3124 2.20633 62.1174 1.59783 64.1776C0.989324 66.2378 1.07045 68.4404 1.82885 70.4503C2.58725 72.4601 3.98141 74.1672 5.79923 75.3118C4.08982 75.9916 2.62352 77.1683 1.58973 78.69C0.555953 80.2116 0.00219536 82.0083 0 83.8479V97.5451C0 97.8329 0.114333 98.1089 0.317844 98.3125C0.521356 98.516 0.797376 98.6303 1.08519 98.6303C1.37299 98.6303 1.64902 98.516 1.85253 98.3125C2.05604 98.1089 2.17037 97.8329 2.17037 97.5451V83.8479C2.17267 81.9882 2.91245 80.2054 4.22745 78.8904C5.54245 77.5754 7.32532 76.8356 9.18501 76.8333H12.2648C14.2966 76.8356 16.2445 77.6437 17.6812 79.0804C19.1179 80.5171 19.9261 82.4651 19.9283 84.4969V97.5451C19.9283 97.8329 20.0427 98.1089 20.2462 98.3125C20.4497 98.516 20.7257 98.6303 21.0135 98.6303C21.3013 98.6303 21.5774 98.516 21.7809 98.3125C21.9844 98.1089 22.0987 97.8329 22.0987 97.5451V84.4969C22.097 82.5647 21.5269 80.6758 20.4594 79.0654C19.392 77.4549 17.8743 76.1941 16.0955 75.4399ZM3.36407 66.9754C3.36407 65.4554 3.81481 63.9696 4.65928 62.7057C5.50375 61.4419 6.70403 60.4569 8.10833 59.8752C9.51263 59.2935 11.0579 59.1413 12.5487 59.4378C14.0395 59.7344 15.4089 60.4663 16.4837 61.5411C17.5585 62.6159 18.2904 63.9853 18.587 65.4761C18.8835 66.9669 18.7313 68.5122 18.1496 69.9165C17.568 71.3208 16.5829 72.5211 15.3191 73.3655C14.0552 74.21 12.5694 74.6607 11.0494 74.6607C9.01218 74.6584 7.05906 73.8483 5.61835 72.408C4.17764 70.9677 3.36695 69.0148 3.36407 66.9776V66.9754Z" fill="#011142"/>
<path d="M77.1568 75.4399C79.0025 74.3408 80.4387 72.6689 81.2468 70.6786C82.055 68.6882 82.1908 66.4883 81.6338 64.4136C81.0767 62.3389 79.8572 60.503 78.1607 59.1852C76.4643 57.8673 74.3838 57.1397 72.2358 57.1129C70.0878 57.0862 67.9898 57.7619 66.2611 59.0372C64.5324 60.3124 63.2676 62.1174 62.6591 64.1776C62.0506 66.2378 62.1317 68.4404 62.8901 70.4503C63.6485 72.4601 65.0427 74.1672 66.8605 75.3118C65.1509 75.9914 63.6845 77.168 62.6506 78.6897C61.6168 80.2114 61.0632 82.0082 61.0613 83.8479V97.5451C61.0613 97.8329 61.1756 98.1089 61.3791 98.3125C61.5826 98.516 61.8587 98.6303 62.1465 98.6303C62.4343 98.6303 62.7103 98.516 62.9138 98.3125C63.1173 98.1089 63.2317 97.8329 63.2317 97.5451V83.8479C63.2339 81.9882 63.9737 80.2054 65.2887 78.8904C66.6037 77.5754 68.3866 76.8356 70.2463 76.8333H73.326C75.3578 76.8356 77.3058 77.6437 78.7425 79.0804C80.1792 80.5171 80.9873 82.4651 80.9896 84.4969V97.5451C80.9896 97.8329 81.104 98.1089 81.3075 98.3125C81.511 98.516 81.787 98.6303 82.0748 98.6303C82.3626 98.6303 82.6386 98.516 82.8422 98.3125C83.0457 98.1089 83.16 97.8329 83.16 97.5451V84.4969C83.1583 82.5647 82.5882 80.6758 81.5207 79.0654C80.4532 77.4549 78.9356 76.1941 77.1568 75.4399ZM64.4254 66.9754C64.4254 65.4554 64.8761 63.9696 65.7206 62.7057C66.565 61.4419 67.7653 60.4569 69.1696 59.8752C70.5739 59.2935 72.1192 59.1413 73.61 59.4378C75.1008 59.7344 76.4701 60.4663 77.545 61.5411C78.6198 62.6159 79.3517 63.9853 79.6482 65.4761C79.9448 66.9669 79.7926 68.5122 79.2109 69.9165C78.6292 71.3208 77.6442 72.5211 76.3804 73.3655C75.1165 74.21 73.6306 74.6607 72.1106 74.6607C70.0733 74.659 68.1198 73.8491 66.679 72.4086C65.2382 70.9682 64.4277 69.015 64.4254 66.9776V66.9754Z" fill="#011142"/>
</svg>
