<svg width="155" height="155" viewBox="0 0 155 155" fill="none" xmlns="http://www.w3.org/2000/svg">
<path d="M128.482 92.5325C112.439 87.5963 95.5739 84.7169 79.2227 89.7559C70.8928 92.3269 67.3963 79.1636 75.829 76.6955C84.2617 74.2274 93.1058 73.6104 101.744 74.2274C89.4036 58.5961 72.1269 42.142 53.9246 55.6138C45.9032 61.5784 38.3961 68.4685 31.1974 75.4615C24.9243 81.5289 19.3711 89.7559 10.6299 91.9155C8.05896 92.6354 4.56247 90.5786 4.97382 87.4935C6.41355 75.3586 19.2683 65.589 27.8038 57.4649C36.3393 49.3407 46.3146 38.5427 58.3466 35.7661C82.5135 30.11 102.875 51.9116 117.273 70.0111C113.673 57.979 112.234 45.4328 111.925 32.3724C111.925 30.11 115.422 29.493 115.936 31.8583C119.946 50.0605 126.22 67.4401 135.372 83.5856C137.737 88.0077 133.521 94.0751 128.482 92.5325Z" fill="#001142"/>
</svg>
