<svg width="501" height="471" viewBox="0 0 501 471" fill="none" xmlns="http://www.w3.org/2000/svg">
<path d="M481.822 204.158C481.822 204.158 493.656 288.061 433.651 354.8C373.645 421.539 277.748 441.054 200.487 458.834C123.226 476.614 55.4713 441.955 34.7695 376.552C14.0677 311.148 70.3986 281.921 89.5483 200.586C108.698 119.251 101.428 94.6688 161.913 36.8428C222.398 -20.9831 334.638 -9.34256 404.858 61.9498C475.077 133.242 481.822 204.158 481.822 204.158Z" fill="#011142"/>
<path d="M481.822 204.158C481.822 204.158 493.656 288.061 433.651 354.8C373.645 421.539 277.748 441.054 200.487 458.834C123.226 476.614 55.4713 441.955 34.7695 376.552C14.0677 311.148 70.3986 281.921 89.5483 200.586C108.698 119.251 101.428 94.6688 161.913 36.8428C222.398 -20.9831 334.638 -9.34256 404.858 61.9498C475.077 133.242 481.822 204.158 481.822 204.158Z" fill="#FF8C32"/>
<path d="M27.1455 367.924H487.117" stroke="#263238" stroke-miterlimit="10"/>
<path d="M27.1455 280.849H487.117" stroke="#263238" stroke-miterlimit="10"/>
<path d="M27.1455 193.761H487.117" stroke="#263238" stroke-miterlimit="10"/>
<path d="M27.1455 106.675H487.117" stroke="#263238" stroke-miterlimit="10"/>
<path d="M131.728 57.2252V368.141" stroke="#263238" stroke-miterlimit="10"/>
<path d="M408.201 57.2252V368.141" stroke="#263238" stroke-miterlimit="10"/>
<path d="M141.987 172.478L138.575 176.084" stroke="#263238" stroke-miterlimit="10"/>
<path d="M200.292 110.988L146.118 168.129" stroke="#263238" stroke-miterlimit="10"/>
<path d="M203.671 120.289L173.234 151.57" stroke="#263238" stroke-miterlimit="10"/>
<path d="M420.024 172.478L416.611 176.084" stroke="#263238" stroke-miterlimit="10"/>
<path d="M478.329 110.988L424.155 168.129" stroke="#263238" stroke-miterlimit="10"/>
<path d="M481.707 120.289L451.271 151.57" stroke="#263238" stroke-miterlimit="10"/>
<path d="M20.2414 348.341L16.8291 351.947" stroke="#263238" stroke-miterlimit="10"/>
<path d="M78.547 286.84L24.373 343.992" stroke="#263238" stroke-miterlimit="10"/>
<path d="M81.9248 296.141L51.4883 327.422" stroke="#263238" stroke-miterlimit="10"/>
<path d="M65.0575 98.0812L61.6338 101.687" stroke="#263238" stroke-miterlimit="10"/>
<path d="M123.352 36.5804L69.1777 93.7216" stroke="#263238" stroke-miterlimit="10"/>
<path d="M126.74 45.8815L96.3037 77.1625" stroke="#263238" stroke-miterlimit="10"/>
<path d="M318.409 98.0812L314.985 101.687" stroke="#263238" stroke-miterlimit="10"/>
<path d="M376.703 36.5804L322.529 93.7216" stroke="#263238" stroke-miterlimit="10"/>
<path d="M380.093 45.8815L349.656 77.1625" stroke="#263238" stroke-miterlimit="10"/>
<path d="M240.065 262.943L236.652 266.549" stroke="#263238" stroke-miterlimit="10"/>
<path d="M298.37 201.453L244.196 258.595" stroke="#263238" stroke-miterlimit="10"/>
<path d="M301.748 210.754L271.312 242.035" stroke="#263238" stroke-miterlimit="10"/>
<path d="M208.566 145.659H272.406C278.005 145.659 283.376 147.883 287.335 151.842C291.294 155.802 293.519 161.172 293.519 166.771V351.091H187.453V166.76C187.456 161.163 189.682 155.795 193.641 151.838C197.6 147.881 202.968 145.659 208.566 145.659Z" fill="#263238" stroke="#263238" stroke-linecap="round" stroke-linejoin="round"/>
<path d="M306.026 458.948L250.004 442.469V424.129H246.842V356.42H236.891V424.129H233.73V441.978L177.707 458.948V461.63H178.46C178.028 462.421 177.804 463.308 177.81 464.209C177.806 465.156 178.049 466.088 178.515 466.913C178.981 467.737 179.654 468.426 180.467 468.912C181.28 469.398 182.205 469.663 183.152 469.683C184.099 469.703 185.035 469.475 185.867 469.024C186.699 468.572 187.4 467.911 187.899 467.107C188.399 466.302 188.68 465.381 188.716 464.435C188.752 463.488 188.54 462.549 188.103 461.709C187.665 460.869 187.017 460.157 186.221 459.644L186.335 459.53L237.69 453.356V460.751C237.033 461.55 236.616 462.518 236.488 463.544C236.36 464.571 236.526 465.612 236.968 466.547C237.409 467.482 238.107 468.273 238.981 468.826C239.854 469.38 240.867 469.674 241.901 469.674C242.935 469.674 243.948 469.38 244.821 468.826C245.695 468.273 246.393 467.482 246.834 466.547C247.276 465.612 247.442 464.571 247.314 463.544C247.186 462.518 246.769 461.55 246.112 460.751V453.356L297.353 459.519C296.432 460.062 295.69 460.864 295.221 461.825C294.752 462.786 294.575 463.863 294.714 464.924C294.852 465.985 295.299 466.981 295.999 467.789C296.699 468.598 297.622 469.183 298.651 469.471C299.681 469.76 300.773 469.739 301.791 469.412C302.81 469.085 303.709 468.466 304.378 467.631C305.048 466.797 305.457 465.784 305.555 464.719C305.653 463.654 305.436 462.584 304.931 461.641H306.072L306.026 458.948Z" fill="#263238" stroke="#263238" stroke-linecap="round" stroke-linejoin="round"/>
<path d="M290.233 350.977H192.704C188.115 350.977 184.396 354.696 184.396 359.285V367.65C184.396 372.238 188.115 375.958 192.704 375.958H290.233C294.821 375.958 298.541 372.238 298.541 367.65V359.285C298.541 354.696 294.821 350.977 290.233 350.977Z" fill="white" stroke="#263238" stroke-linecap="round" stroke-linejoin="round"/>
<path d="M282.062 310.463H202.781V354.549H282.062V310.463Z" fill="white" stroke="#263238" stroke-linecap="round" stroke-linejoin="round"/>
<path d="M235.156 183.582L223.014 188.341C223.014 188.341 227.407 215.627 233.285 229.71C239.162 243.793 260.571 266.149 260.571 266.149C260.571 266.149 271.664 249.955 275.533 237.105C279.402 224.255 275.362 188.158 275.362 188.158C272.593 186.546 269.547 185.47 266.38 184.985C260.868 184.107 235.156 183.582 235.156 183.582Z" fill="white" stroke="#263238" stroke-linecap="round" stroke-linejoin="round"/>
<path d="M246.957 202.777L252.572 213.562L243.26 234.115L258.221 256.643L267.374 236.044L256.281 213.162L262.09 203.12L253.816 194.846L246.957 202.777Z" fill="#263238" stroke="#263238" stroke-linecap="round" stroke-linejoin="round"/>
<path d="M236.925 182.349L233.045 183.41L229.348 189.915L238.477 215.798L253.45 200.312L269.816 217.031C269.816 217.031 271.756 190.977 271.756 187.987C271.756 184.997 269.119 183.935 267.191 183.422C265.262 182.908 236.925 182.349 236.925 182.349Z" fill="white" stroke="#263238" stroke-linecap="round" stroke-linejoin="round"/>
<path d="M233.046 183.411C233.046 183.411 234.723 206.817 244.458 227.416C249.491 238.03 258.895 252.945 258.895 252.42C258.895 251.895 268.218 224.255 268.572 214.92C268.926 205.585 270.683 185.693 270.683 185.693C270.683 185.693 288.738 192.883 293.052 195.382C299.739 199.251 308.184 200.129 308.013 204.706C307.944 206.372 309.086 217.259 310.535 230.532C310.763 232.643 322.096 250.754 322.335 252.945C324.766 275.051 316.515 284.363 316.104 284.466C315.408 284.637 300.789 284.466 300.789 284.466C300.789 284.466 308.721 320.552 309.919 322.492L311.151 324.42H248.258L245.634 316.5L243.294 324.42H178.644L187.271 285.162H177.765C177.765 285.162 175.3 280.232 178.644 261.744C181.987 243.256 193.263 196.957 193.263 195.382C193.263 193.807 229.348 187.279 233.046 183.411Z" fill="#011142" stroke="#263238" stroke-linecap="round" stroke-linejoin="round"/>
<path d="M246.49 274.88L245.634 316.5" stroke="#263238" stroke-linecap="round" stroke-linejoin="round"/>
<path d="M270.717 259.108C281.113 249.431 285.69 230.064 285.69 230.064L276.354 226.013L285.336 221.607L277.576 188.512C273.182 184.723 270.603 184.826 270.728 185.659C270.728 185.659 268.971 205.55 268.617 214.886C268.263 224.221 258.917 251.896 258.917 252.421C258.917 252.945 248.566 238.429 244.48 227.416C234.962 201.784 233.136 186.332 232.862 183.376C232.859 183.327 232.843 183.28 232.816 183.24C232.788 183.199 232.751 183.167 232.706 183.146C232.662 183.125 232.613 183.116 232.564 183.12C232.515 183.125 232.468 183.142 232.429 183.171C231.116 183.947 227.864 184.586 225.581 186.595C224.942 191.16 224.121 197.779 223.55 205.06C222.5 218.617 222.5 224.597 222.5 224.597L234.643 227.599L226.015 232.529C226.015 232.529 235.521 242.207 243.442 249.431C251.362 256.654 256.634 259.279 256.634 259.279L246.489 274.88C246.489 274.88 260.332 268.797 270.717 259.108Z" fill="#011142" stroke="#263238" stroke-linecap="round" stroke-linejoin="round"/>
<path d="M235.156 170.732V185.876C235.156 185.876 239.036 198.543 252.765 199.422C267.202 200.358 269.667 186.401 269.667 186.401V173.014C269.667 173.014 242.939 179.53 235.156 170.732Z" fill="white" stroke="#263238" stroke-linecap="round" stroke-linejoin="round"/>
<path d="M273.011 150.304C273.011 150.304 273.536 143.456 277.759 143.456C281.981 143.456 281.992 151.376 280.931 154.549C279.87 157.722 274.415 160.004 272.657 157.539" fill="white"/>
<path d="M273.011 150.304C273.011 150.304 273.536 143.456 277.759 143.456C281.981 143.456 281.992 151.376 280.931 154.549C279.87 157.722 274.415 160.004 272.657 157.539" stroke="#263238" stroke-linecap="round" stroke-linejoin="round"/>
<path d="M255.494 116.033C255.494 116.033 239.939 115.462 234.564 119.456C229.189 123.451 230.319 134.167 230.319 137.556C230.319 140.946 232.864 170.081 234.564 174.326C236.264 178.572 248.647 185.031 259.443 182.543C270.239 180.055 273.583 172.363 274.142 168.403C274.701 164.443 274.712 134.167 274.142 126.269C273.571 118.372 263.118 116.877 255.494 116.033Z" fill="white" stroke="#263238" stroke-linecap="round" stroke-linejoin="round"/>
<path d="M274.301 129.362C274.301 128.107 274.21 127.08 274.141 126.212C273.582 118.292 263.117 116.877 255.482 116.033C255.482 116.033 239.928 115.462 234.552 119.456C229.177 123.451 230.307 134.167 230.307 137.556C230.307 138.914 230.718 144.403 231.323 150.749C231.595 150.902 231.899 150.99 232.211 151.005C232.524 151.02 232.835 150.963 233.121 150.836C233.407 150.71 233.659 150.519 233.858 150.278C234.057 150.036 234.197 149.752 234.267 149.448C235.408 146.332 233.708 143.513 235.123 139.553C236.538 135.593 237.097 133.048 240.498 131.063C242.63 129.841 244.908 128.894 247.277 128.244C247.277 128.244 240.213 136.438 255.768 136.152C265.868 135.924 271.562 133.824 274.301 129.362Z" fill="#263238" stroke="#263238" stroke-linecap="round" stroke-linejoin="round"/>
<path d="M258.574 143.799C258.574 143.799 261.211 156.295 258.746 157.493C256.281 158.692 254.706 159.08 252.583 154.857" stroke="#263238" stroke-linecap="round" stroke-linejoin="round"/>
<path d="M244.846 157.345C244.846 157.345 244.31 163.165 256.11 162.275" stroke="#263238" stroke-linecap="round" stroke-linejoin="round"/>
<path d="M248.543 144.061C248.543 145.271 248.03 146.264 247.402 146.264C246.774 146.264 246.261 145.271 246.261 144.061C246.261 142.851 246.774 141.859 247.402 141.859C248.03 141.859 248.543 142.84 248.543 144.061Z" fill="#263238"/>
<path d="M266.233 144.061C266.233 145.271 265.719 146.264 265.091 146.264C264.464 146.264 263.95 145.271 263.95 144.061C263.95 142.851 264.464 141.859 265.091 141.859C265.719 141.859 266.233 142.84 266.233 144.061Z" fill="#263238"/>
<path d="M251.236 149.254H241.673C241.178 149.252 240.698 149.078 240.317 148.761C239.936 148.445 239.677 148.006 239.584 147.519L238.329 140.797H254.169L253.348 147.394C253.281 147.907 253.03 148.379 252.642 148.721C252.254 149.063 251.754 149.252 251.236 149.254V149.254Z" stroke="#263238" stroke-width="2" stroke-linecap="round" stroke-linejoin="round"/>
<path d="M271.664 149.254H262.1C261.604 149.254 261.124 149.081 260.743 148.764C260.361 148.447 260.103 148.007 260.012 147.519L258.745 140.797H274.597L273.752 147.394C273.686 147.903 273.439 148.372 273.055 148.713C272.672 149.055 272.178 149.247 271.664 149.254V149.254Z" stroke="#263238" stroke-width="2" stroke-linecap="round" stroke-linejoin="round"/>
<path d="M254.169 140.797H258.745" stroke="#263238" stroke-width="2" stroke-linecap="round" stroke-linejoin="round"/>
<path d="M238.329 140.797L230.763 144.141" stroke="#263238" stroke-width="2" stroke-linecap="round" stroke-linejoin="round"/>
<path d="M232.52 150.304C232.52 150.304 231.995 143.456 227.761 143.456C223.527 143.456 223.539 151.376 224.6 154.549C225.661 157.722 231.105 160.004 232.874 157.539" fill="white"/>
<path d="M232.52 150.304C232.52 150.304 231.995 143.456 227.761 143.456C223.527 143.456 223.539 151.376 224.6 154.549C225.661 157.722 231.105 160.004 232.874 157.539" stroke="#263238" stroke-linecap="round" stroke-linejoin="round"/>
<path d="M278.113 238.155C275.732 235.909 272.83 234.289 269.668 233.442C268.646 233.089 267.55 233.003 266.484 233.191C265.069 233.191 258.051 230.657 256.293 230.132C254.536 229.607 253.474 231.365 254.011 233.305C254.547 235.245 258.302 236.888 259.717 237.242C261.132 237.596 260.527 237.63 260.527 237.63C260.527 237.63 262.81 243.268 261.76 245.379C260.71 247.49 257.001 252.226 258.233 255.593C259.466 258.96 261.406 260.694 265.275 260.694C269.143 260.694 271.437 260.865 272.316 260.694C273.195 260.523 288.864 268.261 287.152 268.443C285.44 268.626 286.444 252.774 286.444 252.774L278.113 238.155Z" fill="white" stroke="#263238" stroke-linecap="round" stroke-linejoin="round"/>
<path d="M242.552 247.49C242.552 247.49 250.826 243.439 254.877 239.388C258.928 235.336 260.332 234.286 261.724 233.933C263.117 233.579 268.766 231.992 270.169 230.76C271.573 229.527 272.634 231.821 270.523 233.579C268.98 234.834 267.33 235.952 265.593 236.923C264.714 237.459 263.836 239.924 263.836 239.924C263.836 239.924 272.463 236.226 275.453 237.105C278.443 237.984 281.41 240.654 281.228 242.229C281.045 243.804 280.498 243.051 278.557 242.868C276.617 242.686 273.867 241.853 271.71 242.731C269.553 243.61 267.145 245.733 267.145 246.612C267.145 247.49 269.61 248.015 271.55 247.844C273.49 247.673 274.894 247.137 276.823 247.49C278.751 247.844 280.349 248.894 280.52 249.955C280.692 251.017 279.824 251.005 277.702 251.188C275.579 251.37 271.893 251.542 270.66 252.42C269.428 253.299 263.094 256.289 264.155 257.35C265.216 258.412 265.844 258.412 267.955 258.412C270.067 258.412 272.326 256.791 273.559 256.883C275.214 257.008 276.104 257.134 276.104 257.134C276.104 257.134 279.037 257.259 278.774 258.412C278.363 260.261 277.382 260.318 273.125 260.512C269.793 260.671 268.903 260.341 265.913 261.048C263.349 261.873 260.684 262.346 257.993 262.452C252.88 262.806 243.727 260.341 243.727 260.341L242.552 247.49Z" fill="white" stroke="#263238" stroke-linecap="round" stroke-linejoin="round"/>
<path d="M275.773 235.998C275.773 235.998 272.213 232.677 270.17 232.575C268.127 232.472 261.896 237.927 261.04 239.97C260.184 242.013 262.181 241.236 263.836 240.734C265.491 240.232 269.953 238.178 271.482 237.55C272.732 236.935 274.16 236.785 275.511 237.128" fill="white"/>
<path d="M275.773 235.998C275.773 235.998 272.213 232.677 270.17 232.575C268.127 232.472 261.896 237.927 261.04 239.97C260.184 242.013 262.181 241.236 263.836 240.734C265.491 240.232 269.953 238.178 271.482 237.55C272.732 236.935 274.16 236.785 275.511 237.128" stroke="#263238" stroke-linecap="round" stroke-linejoin="round"/>
<path d="M280.361 243.256C280.361 243.256 275.271 240.712 272.087 242.115C268.903 243.519 264.954 246.326 264.954 247.593C264.954 248.86 265.593 248.62 268.378 248.483C271.162 248.346 276.195 247.536 276.869 247.502C277.877 247.618 278.873 247.82 279.847 248.107" fill="white"/>
<path d="M280.361 243.256C280.361 243.256 275.271 240.712 272.087 242.115C268.903 243.519 264.954 246.326 264.954 247.593C264.954 248.86 265.593 248.62 268.378 248.483C271.162 248.346 276.195 247.536 276.869 247.502C277.877 247.618 278.873 247.82 279.847 248.107" stroke="#263238" stroke-linecap="round" stroke-linejoin="round"/>
<path d="M208.931 227.953L204.526 251.542C204.526 251.542 242.735 243.964 244.138 245.025C245.542 246.087 246.82 274.081 246.82 274.081C246.82 274.081 197.485 282.697 191.676 284.637C185.867 286.577 179.876 286.92 177.765 285.162C175.653 283.405 175.482 279 177.057 270.326C178.632 261.653 193.787 198.68 193.787 198.68" fill="#011142"/>
<path d="M208.931 227.953L204.526 251.542C204.526 251.542 242.735 243.964 244.138 245.025C245.542 246.087 246.82 274.081 246.82 274.081C246.82 274.081 197.485 282.697 191.676 284.637C185.867 286.577 179.876 286.92 177.765 285.162C175.653 283.405 175.482 279 177.057 270.326C178.632 261.653 193.787 198.68 193.787 198.68" stroke="#263238" stroke-linecap="round" stroke-linejoin="round"/>
<path d="M297.479 226.366L299.065 253.299L286.386 252.774L285.165 275.097C285.165 275.097 320.109 283.234 322.049 284.226C323.99 285.219 323.636 283.177 325.918 279.821C328.201 276.466 330.152 269.265 329.97 266.127C329.787 262.988 322.574 252.432 322.403 252.923" fill="#011142"/>
<path d="M297.479 226.366L299.065 253.299L286.386 252.774L285.165 275.097C285.165 275.097 320.109 283.234 322.049 284.226C323.99 285.219 323.636 283.177 325.918 279.821C328.201 276.466 330.152 269.265 329.97 266.127C329.787 262.988 322.574 252.432 322.403 252.923" stroke="#263238" stroke-linecap="round" stroke-linejoin="round"/>
<path d="M299.065 253.299H310.866" stroke="#263238" stroke-linecap="round" stroke-linejoin="round"/>
<path d="M204.526 251.542L188.857 256.997" stroke="#263238" stroke-linecap="round" stroke-linejoin="round"/>
<path d="M208.27 442.412C208.27 442.412 205.713 453.402 202.141 457.248C198.569 461.094 195.294 463.639 195.499 466.697L195.75 469.767H232.521V460.546C232.521 455.182 230.238 445.71 230.238 441.91C230.238 438.109 207.254 442.161 207.254 442.161" fill="#263238"/>
<path d="M208.27 442.412C208.27 442.412 205.713 453.402 202.141 457.248C198.569 461.094 195.294 463.639 195.499 466.697L195.75 469.767H232.521V460.546C232.521 455.182 230.238 445.71 230.238 441.91C230.238 438.109 207.254 442.161 207.254 442.161" stroke="#263238" stroke-linecap="round" stroke-linejoin="round"/>
<path d="M196.378 463.616C195.754 464.509 195.444 465.585 195.499 466.674L195.75 469.744H232.521V463.616H196.378Z" fill="#586166" stroke="#263238" stroke-linecap="round" stroke-linejoin="round"/>
<path d="M240.19 344.871C240.19 344.871 243.762 322.149 237.633 311.684C231.505 301.219 210.05 300.957 198.056 308.101C186.061 315.245 181.394 326.965 185.73 342.03C190.067 357.094 200.098 357.39 200.098 357.39C200.098 357.39 197.542 378.069 197.542 386.241C197.542 394.412 206.227 445.231 206.227 445.231H231.528C231.528 445.231 239.676 355.599 240.19 344.871Z" fill="#586166" stroke="#263238" stroke-linecap="round" stroke-linejoin="round"/>
<path d="M200.099 357.39L202.644 336.449" stroke="#263238" stroke-linecap="round" stroke-linejoin="round"/>
<path d="M282.598 442.412C282.598 442.412 285.154 453.402 288.726 457.248C292.298 461.094 295.573 463.639 295.368 466.697L295.117 469.767H258.347V460.546C258.347 455.182 260.629 445.71 260.629 441.91C260.629 438.109 283.613 442.161 283.613 442.161" fill="#263238"/>
<path d="M282.598 442.412C282.598 442.412 285.154 453.402 288.726 457.248C292.298 461.094 295.573 463.639 295.368 466.697L295.117 469.767H258.347V460.546C258.347 455.182 260.629 445.71 260.629 441.91C260.629 438.109 283.613 442.161 283.613 442.161" stroke="#263238" stroke-linecap="round" stroke-linejoin="round"/>
<path d="M294.478 463.616C295.106 464.508 295.419 465.584 295.368 466.674L295.117 469.744H258.347V463.616H294.478Z" fill="#586166" stroke="#263238" stroke-linecap="round" stroke-linejoin="round"/>
<path d="M250.677 344.871C250.677 344.871 247.105 322.149 253.234 311.684C259.362 301.219 280.817 300.957 292.812 308.101C304.806 315.245 309.576 326.965 305.228 342.03C300.88 357.094 290.769 357.39 290.769 357.39C290.769 357.39 293.325 378.069 293.325 386.241C293.325 394.412 284.64 445.231 284.64 445.231H259.362C259.362 445.231 251.191 355.599 250.677 344.871Z" fill="#586166" stroke="#263238" stroke-linecap="round" stroke-linejoin="round"/>
<path d="M290.768 357.39L288.212 336.449" stroke="#263238" stroke-linecap="round" stroke-linejoin="round"/>
<path d="M302.991 74.3207H353.502C354.93 74.3207 356.3 74.8882 357.311 75.8984C358.321 76.9086 358.888 78.2787 358.888 79.7073V103.148C358.888 104.577 358.321 105.947 357.311 106.957C356.3 107.967 354.93 108.535 353.502 108.535H338.335L342.295 119.262L329.821 108.535H302.991C302.284 108.535 301.583 108.395 300.93 108.125C300.276 107.854 299.682 107.457 299.182 106.957C298.682 106.457 298.285 105.863 298.015 105.209C297.744 104.556 297.604 103.855 297.604 103.148V79.7073C297.604 78.9999 297.744 78.2994 298.015 77.6459C298.285 76.9924 298.682 76.3986 299.182 75.8984C299.682 75.3982 300.276 75.0014 300.93 74.7307C301.583 74.46 302.284 74.3207 302.991 74.3207Z" fill="white" stroke="#263238" stroke-linecap="round" stroke-linejoin="round"/>
<path d="M340.891 93.7215C342.511 93.7215 343.824 92.4084 343.824 90.7885C343.824 89.1687 342.511 87.8556 340.891 87.8556C339.271 87.8556 337.958 89.1687 337.958 90.7885C337.958 92.4084 339.271 93.7215 340.891 93.7215Z" fill="#011142"/>
<path d="M326.843 93.7215C328.463 93.7215 329.776 92.4084 329.776 90.7885C329.776 89.1687 328.463 87.8556 326.843 87.8556C325.223 87.8556 323.91 89.1687 323.91 90.7885C323.91 92.4084 325.223 93.7215 326.843 93.7215Z" fill="#011142"/>
<path d="M312.805 93.7215C314.425 93.7215 315.738 92.4084 315.738 90.7885C315.738 89.1687 314.425 87.8556 312.805 87.8556C311.185 87.8556 309.872 89.1687 309.872 90.7885C309.872 92.4084 311.185 93.7215 312.805 93.7215Z" fill="#011142"/>
<path d="M106.757 265.054L97.8896 283.781H123.031L131.898 265.967L106.757 265.054Z" fill="#263238" stroke="#263238" stroke-linecap="round" stroke-linejoin="round"/>
<path d="M161.959 265.054H106.758L115.637 283.781H170.826L161.959 265.054Z" fill="white" stroke="#263238" stroke-linecap="round" stroke-linejoin="round"/>
<path d="M63.8583 309.573H51.4189V469.676H63.8583V309.573Z" fill="#A3A3A3" stroke="#263238" stroke-linecap="round" stroke-linejoin="round"/>
<path d="M462.033 309.984H449.594V470.086H462.033V309.984Z" fill="#A3A3A3" stroke="#263238" stroke-linecap="round" stroke-linejoin="round"/>
<path d="M467.499 283.268H48.7148V437.573H467.499V283.268Z" fill="#A3A3A3" stroke="#263238" stroke-linecap="round" stroke-linejoin="round"/>
<path d="M467.499 283.268H48.7148V299.325H467.499V283.268Z" fill="#263238" stroke="#263238" stroke-linecap="round" stroke-linejoin="round"/>
<path d="M478.169 283.268H38.0557V292.843H478.169V283.268Z" fill="white" stroke="#263238" stroke-linecap="round" stroke-linejoin="round"/>
<path d="M55.4256 424.643C55.4256 424.643 27.1574 364.432 33.3087 362.686C39.4599 360.939 52.3557 370.537 52.3557 370.537C52.3557 370.537 14.5355 269.276 24.3158 261.47C34.0961 253.664 52.3557 293.756 52.3557 293.756C52.3557 293.756 32.8522 231.798 35.146 208.232C37.4399 184.666 62.2159 207.365 62.2159 207.365C62.2159 207.365 42.37 122.72 60.7894 118.349C79.2088 113.978 78.6039 215.216 78.6039 215.216C78.6039 215.216 84.6524 142.794 92.0361 162.857C99.4199 182.92 83.8992 250.126 83.8992 250.126C83.8992 250.126 94.0219 227.439 99.6481 248.38C105.274 269.322 88.4641 353.955 88.4641 353.955C88.4641 353.955 102.752 339.998 104.087 357.447C105.423 374.897 74.5183 429.048 74.5183 429.048L57.0347 430.748L55.4256 424.643Z" fill="#011142"/>
<path opacity="0.6" d="M55.4256 424.643C55.4256 424.643 27.1574 364.432 33.3087 362.686C39.4599 360.939 52.3557 370.537 52.3557 370.537C52.3557 370.537 14.5355 269.276 24.3158 261.47C34.0961 253.664 52.3557 293.756 52.3557 293.756C52.3557 293.756 32.8522 231.798 35.146 208.232C37.4399 184.666 62.2159 207.365 62.2159 207.365C62.2159 207.365 42.37 122.72 60.7894 118.349C79.2088 113.978 78.6039 215.216 78.6039 215.216C78.6039 215.216 84.6524 142.794 92.0361 162.857C99.4199 182.92 83.8992 250.126 83.8992 250.126C83.8992 250.126 94.0219 227.439 99.6481 248.38C105.274 269.322 88.4641 353.955 88.4641 353.955C88.4641 353.955 102.752 339.998 104.087 357.447C105.423 374.897 74.5183 429.048 74.5183 429.048L57.0347 430.748L55.4256 424.643Z" fill="white"/>
<path d="M61.4859 427.256C61.4859 427.256 37.9196 385.373 42.2905 377.521C46.6614 369.67 59.717 387.964 59.717 387.964C59.717 387.964 30.0452 313.784 34.416 306.823C38.7869 299.861 52.6757 330.377 52.6757 330.377C52.6757 330.377 47.4488 228.283 56.1678 231.776C64.8868 235.268 65.8226 284.112 65.8226 284.112C65.8226 284.112 60.5844 168.049 68.4474 171.542C76.3104 175.034 75.4203 304.175 75.4203 304.175C75.4203 304.175 91.1578 254.44 93.7484 277.173C96.339 299.907 73.6742 360.939 73.6742 360.939C73.6742 360.939 95.4945 312.951 98.1079 338.252C100.721 363.553 80.6585 410.674 80.6585 410.674C80.6585 410.674 88.5102 391.479 88.5102 401.955C88.5102 412.432 82.4046 425.51 82.4046 425.51" stroke="#263238" stroke-linecap="round" stroke-linejoin="round"/>
<path d="M93.3146 426.925H43.4316V470.086H93.3146V426.925Z" fill="#263238" stroke="#263238" stroke-miterlimit="10"/>
<path d="M367.095 134.817C367.095 134.817 361.982 143.251 361.217 147.074C360.453 150.897 361.731 152.438 360.704 155.245C359.677 158.053 355.352 158.064 355.352 160.871C355.352 163.679 358.41 166.235 359.437 167C360.464 167.764 358.661 171.085 360.453 175.936C362.245 180.786 363.009 186.914 366.068 186.914C369.234 186.747 372.389 186.404 375.517 185.887L377.046 195.211L398.148 193.294C398.148 193.294 397.896 184.164 403.511 180.272C409.126 176.381 420.242 154.481 413.6 140.181C406.958 125.881 379.089 123.074 367.095 134.817Z" fill="white" stroke="#263238" stroke-linecap="round" stroke-linejoin="round"/>
<path d="M360.099 124.226C359.407 126.471 359.129 128.822 359.277 131.165C359.593 135.67 360.995 140.032 363.363 143.878C365.965 148.181 372.196 150.92 373.736 155.507C374.238 157.037 375.517 161.122 379.089 162.149C382.661 163.177 381.908 163.165 380.88 170.058C379.853 176.951 382.923 183.844 389.052 185.636C391.938 186.474 394.987 186.586 397.927 185.963C400.868 185.34 403.609 184.001 405.907 182.064C410.758 178.229 419.945 162.4 420.207 148.101C420.652 122.8 395.716 110.44 373.223 113.522C370.225 113.819 367.382 114.993 365.048 116.897C362.714 118.801 360.992 121.35 360.099 124.226Z" fill="#263238" stroke="#263238" stroke-linecap="round" stroke-linejoin="round"/>
<path d="M387.146 188.672C383.742 188.727 380.389 189.505 377.309 190.954C374.456 192.46 364.538 201.933 361.982 203.507C359.426 205.082 354.576 204.272 357.417 205.55C360.259 206.828 362.267 207.08 367.118 205.299C371.968 203.519 382.182 199.935 385.24 199.935C388.299 199.935 399.54 201.465 400.567 201.727C401.594 201.99 408.225 205.037 408.225 205.037C408.225 205.037 404.904 197.893 401.081 194.321C397.257 190.749 392.51 188.409 387.146 188.672Z" fill="white" stroke="#263238" stroke-linecap="round" stroke-linejoin="round"/>
<path d="M378.849 156.9C378.308 157.115 377.854 157.505 377.558 158.007C377.263 158.509 377.143 159.095 377.217 159.673C377.651 163.042 377.594 166.455 377.046 169.807C376.03 174.144 381.451 174.144 382.638 167.034C383.414 162.332 381.634 155.907 378.849 156.9Z" fill="white" stroke="#263238" stroke-linecap="round" stroke-linejoin="round"/>
<path d="M336.19 215.764C336.19 215.764 333.131 217.294 332.88 224.7C332.629 232.107 319.847 284.204 319.083 292.375C318.318 300.546 322.666 305.898 330.061 308.717C337.456 311.536 351.516 316.112 354.027 314.845C356.538 313.579 361.434 287.262 363.214 275.77C364.994 264.278 343.551 224.415 342.535 222.92C341.519 221.425 337.981 216.027 336.19 215.764Z" fill="white" stroke="#263238" stroke-linecap="round" stroke-linejoin="round"/>
<path d="M352.796 276.797L338.747 297.738" stroke="#263238" stroke-linecap="round" stroke-linejoin="round"/>
<path d="M379.888 369.761L397.622 467.907C397.679 468.214 397.8 468.505 397.978 468.762C398.156 469.018 398.386 469.234 398.654 469.395C398.922 469.556 399.22 469.658 399.531 469.694C399.841 469.731 400.155 469.701 400.453 469.607C400.942 469.447 401.36 469.121 401.635 468.685C401.91 468.25 402.024 467.733 401.959 467.222L388.869 367.639L379.888 369.761Z" fill="white" stroke="#263238" stroke-linecap="round" stroke-linejoin="round"/>
<path d="M360.201 348.318C360.201 348.318 353.559 437.938 353.559 440.494C353.559 443.051 346.712 469.858 346.712 469.858H365.051C365.051 469.858 366.832 466.286 366.832 458.88C366.832 451.473 367.608 435.644 367.608 434.115C367.608 432.586 388.036 353.419 388.036 353.419C388.036 353.419 387.009 345.499 377.046 340.865C367.083 336.232 361.73 346.275 360.201 348.318Z" fill="white" stroke="#263238" stroke-linecap="round" stroke-linejoin="round"/>
<path d="M366.831 458.88C366.831 452.112 367.47 438.338 367.584 434.823C359.082 430.052 353.81 436.409 353.81 436.409C353.661 438.691 353.57 440.175 353.57 440.472C353.57 443.028 346.723 469.835 346.723 469.835H365.051C365.051 469.835 366.831 466.286 366.831 458.88Z" fill="#263238" stroke="#263238" stroke-linecap="round" stroke-linejoin="round"/>
<path d="M365.051 469.858C365.051 469.858 366.832 466.286 366.832 458.88C366.832 456.129 366.946 452.203 367.071 448.289C365.303 446.223 361.479 443.062 357.394 447.901C355.602 450.012 350.889 463.342 348.641 469.858H365.051Z" fill="#4F4F4F" stroke="#263238" stroke-linecap="round" stroke-linejoin="round"/>
<path d="M357.395 447.901L358.924 469.858H363.489L367.335 447.387C367.335 447.387 362.245 441.259 357.395 447.901Z" fill="#263238" stroke="#263238" stroke-linecap="round" stroke-linejoin="round"/>
<path d="M322.917 336.609C322.917 336.609 314.997 345.293 314.233 352.7C313.468 360.106 340.789 438.497 340.789 438.497C340.114 441.792 338.623 444.864 336.452 447.433C332.618 452.283 327.254 459.176 326.489 463.775C325.725 468.375 326.489 469.904 326.489 469.904H344.623C344.623 469.904 351.003 453.561 353.559 449.476C356.116 445.39 354.575 437.47 353.81 433.898C353.046 430.326 346.153 347.85 346.153 347.85C346.153 347.85 340.789 330.435 322.917 336.609Z" fill="white" stroke="#263238" stroke-linecap="round" stroke-linejoin="round"/>
<path d="M353.559 449.43C355.773 445.881 354.917 439.456 354.141 435.484C353.187 434.69 352.062 434.129 350.853 433.846C349.645 433.563 348.387 433.565 347.18 433.852C341.816 435.131 340.789 438.417 340.789 438.417C340.114 441.712 338.623 444.784 336.452 447.353C332.618 452.203 327.254 459.096 326.489 463.696C325.725 468.295 326.489 469.824 326.489 469.824H344.623C344.623 469.824 351.003 453.516 353.559 449.43Z" fill="#263238" stroke="#263238" stroke-linecap="round" stroke-linejoin="round"/>
<path d="M335.3 469.858H344.624C344.624 469.858 350.33 455.319 353.092 450.241C351.722 448.985 347.579 445.778 343.597 448.917C338.746 452.751 338.233 462.201 336.966 465.773C336.361 467.45 335.756 468.843 335.3 469.858Z" fill="#4F4F4F" stroke="#263238" stroke-linecap="round" stroke-linejoin="round"/>
<path d="M343.597 448.917L344.624 469.858H347.933L353.548 449.43C353.548 449.43 348.447 444.329 343.597 448.917Z" fill="#263238" stroke="#263238" stroke-linecap="round" stroke-linejoin="round"/>
<path d="M343.528 250.378C347.773 264.711 351.585 291.587 351.585 294.098C351.585 298.663 338.233 325.059 338.233 325.059C338.233 325.059 323.397 332.717 319.848 338.081C318.2 340.451 317.234 343.229 317.055 346.11C316.876 348.991 317.49 351.867 318.832 354.423C321.388 359.524 325.211 361.83 333.668 363.359C342.124 364.888 420.481 363.359 420.481 363.359C420.481 363.359 428.652 353.396 424.818 337.567C423.037 330.195 421.097 323.793 418.952 314.845C418.952 314.845 427.374 315.097 433.502 309.984C439.631 304.871 439.893 296.962 439.893 291.097C439.893 285.231 436.036 236.181 436.036 231.342C436.036 226.503 435.808 220.363 431.243 216.78C426.678 213.197 415.859 207.65 406.136 202.492C398.49 198.463 392.863 199.171 386.735 199.171C380.607 199.171 373.2 203.736 373.2 203.736C373.2 203.736 339.237 212.672 336.681 214.201C334.124 215.73 335.037 217.282 335.973 222.92" fill="white"/>
<path d="M343.528 250.378C347.773 264.711 351.585 291.587 351.585 294.098C351.585 298.663 338.233 325.059 338.233 325.059C338.233 325.059 323.397 332.717 319.848 338.081C318.2 340.451 317.234 343.229 317.055 346.11C316.876 348.991 317.49 351.867 318.832 354.423C321.388 359.524 325.211 361.83 333.668 363.359C342.124 364.888 420.481 363.359 420.481 363.359C420.481 363.359 428.652 353.396 424.818 337.567C423.037 330.195 421.097 323.793 418.952 314.845C418.952 314.845 427.374 315.097 433.502 309.984C439.631 304.871 439.893 296.962 439.893 291.097C439.893 285.231 436.036 236.181 436.036 231.342C436.036 226.503 435.808 220.363 431.243 216.78C426.678 213.197 415.859 207.65 406.136 202.492C398.49 198.463 392.863 199.171 386.735 199.171C380.607 199.171 373.2 203.736 373.2 203.736C373.2 203.736 339.237 212.672 336.681 214.201C334.124 215.73 335.037 217.282 335.973 222.92" stroke="#263238" stroke-linecap="round" stroke-linejoin="round"/>
<path d="M423.014 230.064C423.014 230.064 412.561 290.8 412.561 294.121C412.561 297.442 418.929 314.845 418.929 314.845" stroke="#263238" stroke-linecap="round" stroke-linejoin="round"/>
<path d="M351.037 296.666C348.527 304.734 338.233 325.059 338.233 325.059C338.233 325.059 323.397 332.717 319.848 338.081C318.2 340.451 317.234 343.229 317.055 346.11C316.876 348.991 317.49 351.867 318.832 354.423C321.388 359.524 325.211 361.83 333.668 363.359C342.124 364.888 420.481 363.359 420.481 363.359C420.481 363.359 428.652 353.396 424.818 337.567C423.037 330.195 421.097 323.793 418.952 314.845L412.561 296.666H351.037Z" fill="#263238" stroke="#263238" stroke-miterlimit="10"/>
<path d="M329.046 368.723L315.842 467.61C315.801 467.92 315.827 468.235 315.918 468.534C316.009 468.832 316.163 469.108 316.37 469.343C316.576 469.577 316.83 469.765 317.115 469.893C317.4 470.022 317.709 470.087 318.022 470.086C318.535 470.089 319.032 469.911 319.426 469.583C319.821 469.256 320.087 468.799 320.179 468.295L338.233 369.487L329.046 368.723Z" fill="white" stroke="#263238" stroke-linecap="round" stroke-linejoin="round"/>
<path d="M416.407 368.723L429.611 467.61C429.652 467.92 429.626 468.235 429.535 468.534C429.444 468.832 429.29 469.108 429.083 469.343C428.877 469.577 428.623 469.765 428.338 469.893C428.053 470.022 427.744 470.087 427.431 470.086C426.919 470.089 426.421 469.911 426.027 469.583C425.632 469.256 425.366 468.799 425.274 468.295L407.277 369.487L416.407 368.723Z" fill="white" stroke="#263238" stroke-linecap="round" stroke-linejoin="round"/>
<path d="M365.051 368.723L351.847 467.61C351.806 467.92 351.832 468.235 351.923 468.534C352.014 468.832 352.168 469.108 352.375 469.343C352.581 469.577 352.835 469.765 353.12 469.893C353.405 470.022 353.714 470.087 354.027 470.086C354.539 470.087 355.035 469.908 355.429 469.581C355.823 469.253 356.09 468.798 356.183 468.295L374.238 369.487L365.051 368.723Z" fill="white" stroke="#263238" stroke-linecap="round" stroke-linejoin="round"/>
<path d="M430.672 255.582H348.196C348.196 255.582 345.913 274.982 347.18 291.587C348.447 308.192 351.266 329.373 350.752 342.942C350.239 356.512 342.581 363.884 342.581 363.884H324.196C323.76 363.882 323.329 363.967 322.926 364.133C322.523 364.298 322.157 364.542 321.848 364.849C321.54 365.157 321.295 365.522 321.128 365.924C320.961 366.327 320.875 366.758 320.875 367.194C320.875 367.63 320.961 368.062 321.128 368.464C321.295 368.867 321.539 369.233 321.848 369.542C322.156 369.85 322.522 370.095 322.925 370.262C323.328 370.429 323.76 370.515 324.196 370.515H423.483C429.501 360.806 432.437 349.502 431.905 338.092C431.14 318.691 423.483 296.723 426.028 281.145C428.572 265.567 430.672 255.582 430.672 255.582Z" fill="#011142" stroke="#263238" stroke-linecap="round" stroke-linejoin="round"/>
<path d="M408.84 136.997C408.84 136.997 403.739 139.04 403.476 143.844C403.214 148.649 401.696 165.288 395.568 174.737C389.439 184.187 395.568 199.251 410.632 201.545C425.696 203.839 437.953 181.117 432.315 157.63C426.678 134.144 413.953 134.954 408.84 136.997Z" fill="#263238" stroke="#263238" stroke-linecap="round" stroke-linejoin="round"/>
<path d="M1 470.086H500.092" stroke="#263238" stroke-linecap="round" stroke-linejoin="round"/>
</svg>
