<svg width="114" height="103" viewBox="0 0 114 103" fill="none" xmlns="http://www.w3.org/2000/svg">
<path d="M7.63519 90.4939L6.39576 87.3238H2.3994L1.17587 90.4939H0L3.94074 80.4832H4.91798L8.83489 90.4939H7.63519ZM6.03824 86.283L4.87826 83.1924C4.72333 82.8011 4.5684 82.3224 4.4095 81.7544C4.3082 82.1894 4.16519 82.668 3.98047 83.1924L2.81255 86.283H6.03824Z" fill="white"/>
<path d="M22.4959 80.5232V86.9746C22.4959 88.1147 22.1503 89.0085 21.463 89.66C20.7798 90.3075 19.8363 90.6293 18.6346 90.6293C17.4369 90.6293 16.5093 90.3035 15.8538 89.6521C15.1964 88.9966 14.8687 88.0948 14.8687 86.9507V80.5232H16.0286V87.0302C16.0286 87.8624 16.2531 88.5 16.704 88.9449C17.1588 89.3899 17.8282 89.6123 18.7141 89.6123C19.5562 89.6123 20.2018 89.3899 20.6526 88.9449C21.1075 88.496 21.3359 87.8525 21.3359 87.0143V80.5232H22.4959Z" fill="white"/>
<path d="M32.9654 90.4942H31.8054V81.556H28.6433V80.5232H36.1196V81.556H32.9654V90.4942Z" fill="white"/>
<path d="M49.9487 90.4942H48.7887V85.7987H43.537V90.4942H42.385V80.5232H43.537V84.7658H48.7887V80.5232H49.9487V90.4942Z" fill="white"/>
<path d="M63.0013 90.4942H57.4478V80.5232H63.0013V81.556H58.5998V84.7658H62.7392V85.7908H58.5998V89.4614H63.0013V90.4942Z" fill="white"/>
<path d="M77.761 90.4942H76.4342L70.9839 82.1281H70.9362C71.0037 83.1093 71.0395 84.0091 71.0395 84.8294V90.4942H69.9749V80.5232H71.2778L76.7123 88.8575H76.7679C76.7619 88.7364 76.744 88.3411 76.7123 87.6737C76.6805 87.0064 76.6666 86.5296 76.6725 86.2436V80.5232H77.761V90.4942Z" fill="white"/>
<path d="M88.3294 90.4942H87.1695V81.556H84.0073V80.5232H91.4836V81.556H88.3294V90.4942Z" fill="white"/>
<path d="M97.7493 90.4942V80.5232H98.9013V90.4942H97.7493Z" fill="white"/>
<path d="M110.67 81.413C109.574 81.413 108.708 81.7785 108.072 82.5094C107.44 83.2403 107.127 84.2414 107.127 85.5126C107.127 86.8156 107.43 87.8246 108.04 88.5397C108.648 89.2508 109.52 89.6043 110.654 89.6043C111.353 89.6043 112.148 89.4772 113.038 89.223V90.2399C112.342 90.4981 111.49 90.6292 110.479 90.6292C109.011 90.6292 107.877 90.1843 107.079 89.2945C106.278 88.4046 105.879 87.1394 105.879 85.4967C105.879 84.4698 106.07 83.5701 106.451 82.7954C106.837 82.0228 107.393 81.4269 108.12 81.0078C108.845 80.5907 109.701 80.3801 110.686 80.3801C111.729 80.3801 112.642 80.5708 113.427 80.9522L112.934 81.9453C112.176 81.5917 111.421 81.413 110.67 81.413Z" fill="white"/>
<path d="M41.2105 96.453C40.5431 96.453 40.0148 96.6754 39.6294 97.1204C39.2421 97.5613 39.0495 98.1671 39.0495 98.9398C39.0495 99.7343 39.2342 100.35 39.6056 100.783C39.981 101.218 40.5133 101.435 41.2026 101.435C41.6256 101.435 42.1083 101.359 42.6486 101.204V101.824C42.2295 101.977 41.711 102.054 41.0913 102.054C40.2015 102.054 39.5123 101.784 39.0256 101.244C38.537 100.704 38.2947 99.9329 38.2947 98.9318C38.2947 98.3082 38.4099 97.7599 38.6443 97.2872C38.8826 96.8165 39.2203 96.453 39.6612 96.1987C40.1002 95.9445 40.6186 95.8174 41.2185 95.8174C41.8541 95.8174 42.4102 95.9346 42.8869 96.167L42.5929 96.7708C42.1321 96.5602 41.6713 96.453 41.2105 96.453Z" fill="white"/>
<path d="M53.7042 101.975L52.9495 100.044H50.5183L49.7715 101.975H49.0564L51.4558 95.8809H52.0517L54.4352 101.975H53.7042ZM52.727 99.4085L52.0278 97.5255C51.9325 97.2931 51.8372 97.0011 51.7418 96.6515C51.6822 96.9177 51.5948 97.2077 51.4796 97.5255L50.7646 99.4085H52.727Z" fill="white"/>
<path d="M64.6491 95.905H65.4118L63.2269 101.975H62.5278L60.3508 95.905H61.0977L62.496 99.8299C62.6549 100.287 62.782 100.726 62.8774 101.149C62.9727 100.7 63.1018 100.251 63.2667 99.806L64.6491 95.905Z" fill="white"/>
<path d="M75.5443 101.975H72.1597V95.905H75.5443V96.5327H72.8668V98.4872H75.3774V99.1148H72.8668V101.347H75.5443V101.975Z" fill="white"/>
<path d="M65.2082 23.0954C74.1185 19.5022 84.2683 21.5878 91.0713 28.3987C91.2123 28.5397 91.3891 28.6033 91.5738 28.6033C91.7565 28.6033 91.9333 28.5338 92.0743 28.3987C92.3504 28.1226 92.3504 27.6697 92.0743 27.3937C84.8761 20.1815 74.1265 17.9748 64.6838 21.7785C64.3243 21.9275 64.1475 22.3386 64.2885 22.6981C64.4375 23.0656 64.8546 23.2424 65.2082 23.0954Z" fill="white"/>
<path d="M91.0709 62.3795C86.5442 66.9142 80.5259 69.4089 74.1261 69.4089C67.7244 69.4089 61.706 66.9142 57.1813 62.3795C47.832 53.0103 47.832 37.7698 57.1813 28.3986C57.6342 27.9457 58.0851 27.5365 58.5459 27.1472L70.7952 53.1295C70.9143 53.3838 71.1686 53.5327 71.4387 53.5327C71.538 53.5327 71.6433 53.5109 71.7426 53.4612C72.0962 53.2924 72.2511 52.8753 72.0823 52.5217L59.4516 25.733L47.4983 0.372424C47.2659 -0.124141 46.4515 -0.124141 46.2191 0.372424L21.6292 52.5277C21.4604 52.8812 21.6153 53.3063 21.9689 53.4692C22.3224 53.638 22.7475 53.4831 22.9084 53.1295L35.3563 26.7162H56.8973C56.6569 26.9347 56.4166 27.1532 56.1763 27.3935C46.2748 37.3169 46.2748 53.4553 56.1763 63.3766C60.9651 68.1794 67.343 70.8251 74.1261 70.8251C80.9072 70.8251 87.2791 68.1794 92.068 63.3766C92.3441 63.1005 92.3441 62.6497 92.068 62.3736C91.7979 62.1034 91.347 62.1034 91.0709 62.3795ZM46.8488 2.33684L57.6759 25.3H36.0276L46.8488 2.33684Z" fill="white"/>
</svg>
