<svg version="1.2" xmlns="http://www.w3.org/2000/svg" viewBox="0 0 100 100" width="100" height="100">
	<title>our-expertise-svg</title>
	<style>
		.s0 { fill: #d5d5d5 } 
	</style>
	<path id="Layer" class="s0" d="m29.4 78.7l2.3 13.5-12.1-6.4-12.1 6.4 2.3-13.5-9.8-9.6 13.5-1.9 6.1-12.3 6 12.3 5.5 0.8-0.3 1.8-5.4-0.8-1-0.1-0.4-0.9-4.4-8.9-4.4 8.9-0.4 0.9-1 0.1-9.8 1.4 7.1 7 0.7 0.6-0.2 1-1.7 9.8 8.8-4.6 0.9-0.5 0.8 0.5 8.8 4.6-1.6-9.8-0.2-1 0.7-0.6 1.6-1.6z"/>
	<path id="Layer" class="s0" d="m90.2 78.7l2.3 13.5-12.1-6.4-12.1 6.4 2.3-13.5-0.3-0.3-0.5-3.1 2.1 2.1 0.7 0.6-0.2 1-1.6 9.8 8.8-4.6 0.8-0.5 0.9 0.5 8.8 4.6-1.7-9.8-0.2-1 0.7-0.6 7.1-7-9.8-1.4-1-0.1-0.4-0.9-4.4-8.9-4.4 8.9-0.4 0.9-1 0.1-5.7 0.8-0.4-1.8 5.9-0.8 6-12.3 6.1 12.3 13.5 1.9z"/>
	<path id="Layer" fill-rule="evenodd" class="s0" d="m64.4 55l3.5 20.2-18.1-9.6-18.1 9.6 3.5-20.2-14.7-14.3 20.2-2.9 9.1-18.3 9 18.3 20.3 2.9zm-1.8 0.3l-0.2-0.9 0.7-0.7 12.1-11.7-16.7-2.4-0.9-0.1-0.4-0.9-7.5-15-7.4 15-0.4 0.9-0.9 0.1-16.7 2.4 12.1 11.7 0.6 0.7-0.1 0.9-2.9 16.6 14.9-7.8 0.8-0.5 0.9 0.5 14.8 7.8z"/>
	<path id="Layer" class="s0" d="m20.2 29.5l-15.8-17.8 1.4-1.2 15.8 17.8z"/>
	<path id="Layer" class="s0" d="m17.2 38.6l-16.4-6 0.7-1.7 16.3 6z"/>
	<path id="Layer" class="s0" d="m30.7 27.5l-5.9-20 1.8-0.6 5.9 20.1z"/>
	<path id="Layer" class="s0" d="m79.5 29.5l-1.4-1.2 15.9-17.8 1.3 1.2z"/>
	<path id="Layer" class="s0" d="m82 36.9l16.3-6 0.6 1.7-16.3 6z"/>
	<path id="Layer" class="s0" d="m69 27.5l-1.8-0.5 5.9-20.1 1.8 0.6z"/>
</svg>