<svg version="1.2" xmlns="http://www.w3.org/2000/svg" viewBox="0 0 100 117" width="100" height="117">
	<title>regular-followups-svg</title>
	<style>
		.s0 { fill: #011142 } 
	</style>
	<path id="Layer" fill-rule="evenodd" class="s0" d="m83.9 76.4q0 0.4-0.2 0.8v30.5c0 0.3-0.1 0.7-0.4 0.9-0.2 0.3-0.6 0.4-0.9 0.4h-28.8v6.6c0 0.4-0.2 0.7-0.4 1-0.3 0.3-0.6 0.4-1 0.4-0.3 0-0.7-0.1-0.9-0.4-0.3-0.3-0.4-0.6-0.4-1v-6.6h-9.7v6.6c0 0.4-0.1 0.7-0.4 1-0.2 0.3-0.6 0.4-0.9 0.4-0.4 0-0.7-0.1-1-0.4-0.2-0.3-0.4-0.6-0.4-1v-7.8q0 0 0-0.1v-31.2c0-0.4 0.2-0.7 0.4-1 0.3-0.2 0.6-0.4 1-0.4h12.3c-0.9-1.3-1.3-2.8-1.3-4.3v-15.8c0-0.4 0.1-0.7 0.4-1 0.2-0.2 0.5-0.4 0.9-0.4 0.4 0 0.7 0.2 0.9 0.4 0.3 0.3 0.4 0.6 0.4 1v15.8c0 2.4 1.7 4.3 3.7 4.3 2.1 0 3.7-1.9 3.7-4.3v-23.1c0-5.4-2.9-9.9-7.2-11.5l-2.6-0.9c-3.6-1.3-7.4-2-11.2-2-3.9 0-7.7 0.7-11.3 2l-2.6 0.9c-4.3 1.6-7.2 6.1-7.2 11.4v23.2c0 2.4 1.6 4.3 3.6 4.3 2.1 0 3.8-1.9 3.8-4.3v-15.8c0-0.4 0.1-0.7 0.4-1 0.2-0.2 0.6-0.4 0.9-0.4 0.4 0 0.7 0.2 1 0.4 0.2 0.3 0.4 0.6 0.4 1 0 0.1 0 16 0 16.1 0 0 0 44.5 0 44.5 0 0.4-0.2 0.7-0.4 1-0.3 0.3-0.6 0.4-1 0.4-0.3 0-0.7-0.1-0.9-0.4-0.3-0.3-0.4-0.6-0.4-1v-39.1c-1.1 0.9-2.3 1.3-3.7 1.3-3.6 0-6.4-3.1-6.4-7v-23.1c0-6.5 3.6-12.1 9-14.1l2.6-0.9q2.2-0.8 4.6-1.3c-3.3-1.7-5.9-4.5-7.4-7.9-1.5-3.4-1.8-7.2-1-10.8 0.9-3.6 3-6.9 5.8-9.2 2.9-2.3 6.5-3.5 10.1-3.5 3.7 0 7.3 1.2 10.1 3.5 2.9 2.3 5 5.6 5.8 9.2 0.9 3.6 0.6 7.4-0.9 10.8-1.5 3.4-4.1 6.2-7.4 7.9q2.4 0.5 4.6 1.3l2.6 0.9c5.4 2 9 7.6 9 14v23.2c0 1.5-0.5 3-1.3 4.3h20.1q0.4 0 0.7 0.1 0.3 0.2 0.5 0.4 0.3 0.4 0.3 0.8zm-53.7-49.9c2.5 2.6 6 4.1 9.7 4.1 2.7 0 5.3-0.9 7.6-2.4 2.2-1.5 4-3.7 5-6.2 1.1-2.6 1.3-5.4 0.8-8.1-0.5-2.7-1.8-5.2-3.7-7.1-2-1.9-4.4-3.3-7.1-3.8-2.6-0.5-5.4-0.3-7.9 0.8-2.5 1-4.6 2.8-6.1 5.1-1.5 2.3-2.3 5-2.3 7.7 0 3.7 1.4 7.3 4 9.9zm13.6 51.3l17.5 14.4 17.5-14.4zm37.2 28.5v-26.8l-18.9 15.5q-0.4 0.3-0.9 0.3-0.4 0-0.8-0.3l-19.3-15.8v6.4q0 0 0 0.1v20.6z"/>
</svg>