<svg width="84" height="99" viewBox="0 0 84 99" fill="none" xmlns="http://www.w3.org/2000/svg">
<path d="M83.8469 92.6869L64.6131 78.7257H64.6005L50.6561 68.6037V36.643L65.9543 23.2308V29.2265C65.9543 29.5044 66.0647 29.7709 66.2612 29.9674C66.4577 30.1639 66.7242 30.2743 67.0021 30.2743C67.28 30.2743 67.5465 30.1639 67.743 29.9674C67.9396 29.7709 68.0499 29.5044 68.0499 29.2265V13.5929L77.4804 8.25949C77.6381 8.17032 77.7701 8.04177 77.8633 7.88639C77.9565 7.731 78.0078 7.55409 78.0123 7.37294C78.0167 7.19178 77.9741 7.01258 77.8886 6.85282C77.8031 6.69305 77.6776 6.5582 77.5244 6.46142L67.5638 0.161905C67.4052 0.0617763 67.2227 0.00602283 67.0353 0.000461134C66.8479 -0.00510056 66.6624 0.0397333 66.4982 0.130286C66.334 0.220838 66.1971 0.353791 66.1018 0.515275C66.0065 0.676759 65.9563 0.860857 65.9564 1.04836V15.5733C65.1579 15.073 64.2193 14.8435 63.28 14.919C62.3407 14.9946 61.4508 15.371 60.7424 15.9924L50.4926 24.9786C50.5386 24.6234 50.5624 24.2658 50.5639 23.9077C50.5639 21.67 49.675 19.524 48.0927 17.9418C46.5104 16.3595 44.3644 15.4706 42.1268 15.4706C39.8891 15.4706 37.7431 16.3595 36.1609 17.9418C34.5786 19.524 33.6897 21.67 33.6897 23.9077C33.6912 24.2658 33.715 24.6234 33.761 24.9786L23.5132 15.9924C23.0762 15.6081 22.5671 15.3146 22.0155 15.129C21.464 14.9433 20.881 14.8694 20.3005 14.9113C19.7201 14.9532 19.1538 15.1102 18.6346 15.3732C18.1154 15.6362 17.6538 15.9998 17.2766 16.443C16.5132 17.3382 16.132 18.4975 16.2151 19.6711C16.2982 20.8446 16.839 21.9386 17.7209 22.7174L33.5975 36.6346V68.5974L0.406615 92.6974C0.191247 92.864 0.0492101 93.1079 0.0105936 93.3775C-0.028023 93.647 0.0398147 93.921 0.199735 94.1414C0.359656 94.3618 0.599097 94.5113 0.867335 94.5582C1.13557 94.6051 1.41153 94.5458 1.63676 94.3927L22.2035 79.4654L22.3187 79.8846C22.6561 81.1228 23.2762 82.2658 24.1302 83.2238C24.9842 84.1818 26.0488 84.9285 27.2404 85.4052C28.4319 85.8819 29.7178 86.0757 30.9969 85.9712C32.276 85.8667 33.5134 85.4668 34.6118 84.803L36.7934 83.487L37.2125 84.0297C37.9801 85.0522 38.9753 85.8818 40.1194 86.4525C41.2635 87.0233 42.5248 87.3195 43.8033 87.3178H43.8222C45.098 87.3217 46.3573 87.0293 47.5009 86.4639C48.6446 85.8984 49.6414 85.0752 50.413 84.0591L50.7609 83.6022L51.6536 84.3399C52.6442 85.1575 53.8112 85.7338 55.0626 86.0235C56.3139 86.3132 57.6154 86.3083 58.8646 86.0092C60.1137 85.7101 61.2763 85.125 62.2608 84.3C63.2453 83.475 64.0247 82.4327 64.5376 81.2551L82.621 94.3802C82.732 94.466 82.8591 94.5287 82.9947 94.5645C83.1304 94.6004 83.2719 94.6086 83.4108 94.5887C83.5497 94.5688 83.6832 94.5212 83.8034 94.4487C83.9235 94.3762 84.0279 94.2804 84.1103 94.1668C84.1927 94.0532 84.2515 93.9243 84.2831 93.7875C84.3147 93.6508 84.3185 93.5092 84.2944 93.3709C84.2702 93.2327 84.2185 93.1008 84.1424 92.9829C84.0662 92.865 83.9672 92.7636 83.8511 92.6848L83.8469 92.6869ZM68.052 2.94912L74.9279 7.29549L68.052 11.185V2.94912ZM35.7791 23.9161C35.7783 22.8744 36.034 21.8486 36.5238 20.9293C37.0136 20.01 37.7223 19.2255 38.5873 18.6452C39.4523 18.0648 40.447 17.7065 41.4833 17.6018C42.5197 17.4972 43.5659 17.6494 44.5295 18.0451C45.493 18.4408 46.3443 19.0678 47.008 19.8706C47.6717 20.6734 48.1274 21.6273 48.3349 22.6481C48.5423 23.6689 48.4952 24.7251 48.1975 25.7233C47.8998 26.7215 47.3609 27.631 46.6282 28.3714L46.4564 28.5202C46.4181 28.5561 46.3824 28.5946 46.3495 28.6355C45.1877 29.6783 43.6816 30.2551 42.1205 30.2551C40.5593 30.2551 39.0532 29.6783 37.8915 28.6355C37.8586 28.5946 37.8229 28.5561 37.7846 28.5202L37.6148 28.3714C36.4407 27.1861 35.783 25.5845 35.7853 23.9161H35.7791ZM35.6827 36.1379C35.6813 36.0993 35.6778 36.0608 35.6722 36.0226C35.6722 35.9912 35.6722 35.9619 35.6575 35.9304C35.6428 35.899 35.6366 35.8634 35.6261 35.8298C35.6164 35.7983 35.6045 35.7675 35.5905 35.7376C35.5765 35.7072 35.5604 35.6778 35.5423 35.6496C35.5265 35.6193 35.509 35.5899 35.4899 35.5616C35.471 35.5364 35.45 35.5113 35.4291 35.4882C35.4081 35.4652 35.3788 35.4317 35.3515 35.4044L35.3285 35.3814L19.0956 21.1498C18.6278 20.7348 18.3415 20.1527 18.2984 19.5288C18.2553 18.9049 18.4588 18.289 18.8651 17.8135C19.0624 17.5816 19.3038 17.3913 19.5754 17.2536C19.847 17.1159 20.1433 17.0336 20.4469 17.0116C20.7506 16.9896 21.0557 17.0282 21.3443 17.1252C21.6329 17.2222 21.8993 17.3757 22.128 17.5767L36.2024 29.9159C37.7786 31.4762 39.9068 32.3514 42.1247 32.3514C44.3425 32.3514 46.4708 31.4762 48.047 29.9159L62.1214 17.5767C62.348 17.3738 62.6134 17.2191 62.9016 17.1218C63.1898 17.0246 63.4947 16.9868 63.7979 17.0109C64.1026 17.0328 64.4 17.115 64.6727 17.2528C64.9454 17.3905 65.188 17.5812 65.3864 17.8135C65.7922 18.2895 65.9949 18.9057 65.951 19.5297C65.9071 20.1536 65.6201 20.7354 65.1517 21.1498L48.9188 35.3814C48.9188 35.3814 48.9041 35.3981 48.8957 35.4044C48.8873 35.4107 48.8433 35.4589 48.8182 35.4882C48.793 35.5176 48.7763 35.5364 48.7574 35.5616C48.7383 35.5899 48.7208 35.6193 48.705 35.6496C48.6869 35.6778 48.6708 35.7072 48.6568 35.7376C48.6428 35.7675 48.6309 35.7983 48.6212 35.8298C48.6107 35.8634 48.5981 35.8969 48.5898 35.9304C48.5814 35.964 48.5898 35.9912 48.5751 36.0226C48.5729 36.061 48.5729 36.0995 48.5751 36.1379C48.5751 36.1484 48.5751 36.1589 48.5751 36.1693V67.076L43.1746 63.1655V53.1252C43.1746 52.8473 43.0642 52.5808 42.8677 52.3843C42.6712 52.1878 42.4047 52.0774 42.1268 52.0774C41.8489 52.0774 41.5824 52.1878 41.3859 52.3843C41.1894 52.5808 41.079 52.8473 41.079 53.1252V63.1655L35.6931 67.076V36.1693C35.6931 36.1589 35.6889 36.1484 35.6889 36.1379H35.6827ZM58.915 83.8139C57.9151 84.1575 56.8436 84.2377 55.8038 84.0468C54.7639 83.8559 53.7907 83.4004 52.978 82.7242L51.2449 81.297C51.1367 81.2067 51.0112 81.1395 50.8761 81.0995C50.7409 81.0594 50.599 81.0475 50.4591 81.0644C50.3192 81.0805 50.1841 81.1246 50.0616 81.1941C49.9392 81.2636 49.8321 81.357 49.7466 81.4689L48.7365 82.7891C48.1663 83.5571 47.4216 84.1784 46.5637 84.6015C45.7059 85.0246 44.7597 85.2373 43.8033 85.2222C42.8473 85.2229 41.9043 85.0012 41.0488 84.5745C40.1934 84.1479 39.4489 83.528 38.8743 82.764L37.8957 81.471C37.7393 81.2647 37.5121 81.1235 37.2579 81.0748C37.0037 81.026 36.7404 81.0731 36.5188 81.2069L33.5346 83.0113C32.7132 83.5073 31.7878 83.8059 30.8314 83.8836C29.875 83.9613 28.9135 83.816 28.0228 83.4591C27.132 83.1022 26.3363 82.5435 25.6981 81.8268C25.06 81.1102 24.5969 80.2552 24.3452 79.3292L24.0225 78.1389L42.1268 64.995L62.7815 79.9831C62.4742 80.8745 61.9664 81.6834 61.2971 82.3476C60.6279 83.0118 59.815 83.5134 58.9213 83.8139H58.915Z" fill="#011142"/>
</svg>
