<svg width="104" height="105" viewBox="0 0 104 105" fill="none" xmlns="http://www.w3.org/2000/svg">
<path d="M103.261 21.2555L93.359 14.3927C94.2418 13.7669 94.9608 12.9375 95.4551 11.9749C95.9494 11.0122 96.2045 9.94466 96.1988 8.86253C96.1931 7.78041 95.9267 6.7156 95.4222 5.75826C94.9177 4.80092 94.1899 3.97924 93.3005 3.3628C92.4111 2.74635 91.3863 2.35329 90.3128 2.21689C89.2393 2.08049 88.1487 2.20478 87.1334 2.57922C86.1181 2.95366 85.208 3.56723 84.4801 4.36799C83.7522 5.16874 83.228 6.1331 82.9518 7.17941L72.5929 -0.000488281L65.4135 10.3579C64.9626 9.71898 64.4025 9.16467 63.759 8.72043C63.0321 8.21502 62.2127 7.85789 61.3477 7.66944C60.4826 7.481 59.5889 7.46495 58.7177 7.62221C57.8464 7.77947 57.0147 8.10696 56.2702 8.58593C55.5256 9.06491 54.8828 9.68598 54.3784 10.4136C53.8741 11.1413 53.5182 11.9612 53.331 12.8265C53.1439 13.6918 53.1292 14.5856 53.2877 15.4566C53.4463 16.3276 53.775 17.1588 54.2551 17.9026C54.7352 18.6465 55.3572 19.2884 56.0856 19.7916C56.7273 20.2384 57.4429 20.5683 58.1994 20.7662L51.02 31.1245L63.2474 39.5994L63.2561 38.5475C63.2654 37.5256 63.5531 36.5256 64.0882 35.655C64.6232 34.7843 65.3855 34.076 66.293 33.606C67.2004 33.1361 68.2188 32.9224 69.2386 32.9879C70.2585 33.0534 71.2412 33.3956 72.0811 33.9778C72.921 34.5599 73.5863 35.36 74.0056 36.2919C74.4249 37.2239 74.5823 38.2525 74.4608 39.2672C74.3393 40.2818 73.9436 41.2442 73.3161 42.0508C72.6887 42.8575 71.8532 43.4778 70.8996 43.8452L69.9176 44.2226L82.1451 52.6973L89.2528 42.4423C89.9088 43.259 90.7463 43.9113 91.6986 44.3476C92.6509 44.7839 93.6918 44.992 94.7387 44.9554C95.7855 44.9189 96.8094 44.6386 97.7289 44.137C98.6485 43.6354 99.4384 42.9262 100.036 42.0658C100.633 41.2054 101.022 40.2175 101.17 39.1807C101.319 38.1438 101.224 37.0865 100.892 36.0929C100.561 35.0993 100.002 34.1966 99.2607 33.4568C98.5192 32.7169 97.6154 32.1602 96.621 31.8309L100.304 26.6717C100.346 26.6122 100.377 26.545 100.393 26.4738C100.41 26.4026 100.412 26.3288 100.4 26.2568C100.388 26.1847 100.362 26.1157 100.323 26.0537C100.284 25.9917 100.234 25.938 100.174 25.8955C100.115 25.8531 100.048 25.8227 99.9765 25.8063C99.9053 25.7898 99.8316 25.7875 99.7595 25.7996C99.6875 25.8116 99.6185 25.8377 99.5565 25.8764C99.4945 25.9151 99.4407 25.9656 99.3983 26.0251L94.7459 32.5426L95.5924 32.7095C96.5085 32.8899 97.3652 33.2956 98.0852 33.8899C98.8052 34.4842 99.3659 35.2485 99.7166 36.1137C100.067 36.9789 100.197 37.9179 100.094 38.8458C99.9913 39.7737 99.659 40.6614 99.1271 41.4288C98.5953 42.1961 97.8808 42.8189 97.048 43.241C96.2153 43.6631 95.2905 43.8712 94.3572 43.8465C93.4239 43.8218 92.5115 43.5651 91.7022 43.0995C90.893 42.6339 90.2124 41.9741 89.7219 41.1797L89.2755 40.4564L81.8647 51.1487L72.2068 44.4549C73.1967 43.8918 74.0276 43.0869 74.6219 42.1154C75.2162 41.144 75.5545 40.0376 75.6051 38.8999C75.6556 37.7622 75.4169 36.6303 74.9112 35.6099C74.4054 34.5895 73.6492 33.714 72.7132 33.0653C71.7772 32.4166 70.692 32.0158 69.559 31.9004C68.426 31.785 67.2823 31.9588 66.2347 32.4056C65.1872 32.8523 64.27 33.5574 63.569 34.4548C62.8679 35.3523 62.4059 36.4129 62.2261 37.5375L52.5685 30.8437L60.1221 19.9452L59.2121 19.8302C58.2541 19.7086 57.3435 19.3422 56.5683 18.7663C55.793 18.1905 55.1793 17.4245 54.7862 16.5424C54.3931 15.6602 54.234 14.6917 54.3242 13.7302C54.4144 12.7687 54.7509 11.8466 55.3012 11.053C56.1518 9.82882 57.4532 8.99202 58.9199 8.72615C60.3867 8.46028 61.8991 8.78706 63.1252 9.63479C63.8681 10.1479 64.4748 10.8342 64.8928 11.6345L65.3199 12.4461L72.8735 1.5479L83.7732 9.10243L83.888 8.19197C84.0088 7.23307 84.3748 6.32151 84.9506 5.54529C85.5265 4.76906 86.2927 4.15439 87.1753 3.76058C88.0579 3.36678 89.0271 3.20715 89.9894 3.29711C90.9517 3.38707 91.8745 3.72357 92.6689 4.27414C93.4632 4.8247 94.1022 5.57074 94.5242 6.44024C94.9461 7.30974 95.1368 8.27334 95.0779 9.23802C95.0189 10.2027 94.7122 11.1359 94.1875 11.9475C93.6627 12.7591 92.9376 13.4218 92.0821 13.8715L91.2698 14.2984L102.627 22.1698C102.687 22.2129 102.755 22.2436 102.827 22.2601C102.899 22.2766 102.973 22.2786 103.046 22.2661C103.119 22.2535 103.188 22.2266 103.251 22.1869C103.313 22.1471 103.366 22.0954 103.409 22.0348C103.451 21.9741 103.48 21.9056 103.495 21.8334C103.511 21.7612 103.512 21.6866 103.498 21.6141C103.484 21.5416 103.456 21.4725 103.415 21.4109C103.375 21.3493 103.322 21.2965 103.261 21.2554L103.261 21.2555Z" fill="white"/>
<path d="M85.5195 70.18C84.8722 70.1793 84.2282 70.2727 83.6077 70.4573V57.98H70.7444C71.2373 56.9533 71.4618 55.8184 71.3968 54.6813C71.3319 53.5443 70.9798 52.4423 70.3733 51.4784C69.7667 50.5145 68.9257 49.7201 67.9288 49.1695C66.9318 48.6189 65.8116 48.3301 64.6727 48.3301C63.5338 48.3301 62.4135 48.6189 61.4166 49.1695C60.4197 49.7201 59.5786 50.5145 58.9721 51.4784C58.3656 52.4423 58.0134 53.5443 57.9485 54.6813C57.8836 55.8184 58.1081 56.9533 58.601 57.98H46.8503V44.7199L46.0368 45.1436C45.2375 45.5633 44.3479 45.7818 43.445 45.7802C42.7056 45.7818 41.9732 45.6376 41.2896 45.3558C40.606 45.0739 39.9847 44.6601 39.4612 44.1378C38.9378 43.6155 38.5226 42.9952 38.2392 42.3122C37.9559 41.6292 37.81 40.8971 37.81 40.1577C37.81 39.4183 37.9559 38.6861 38.2392 38.0032C38.5226 37.3202 38.9378 36.6998 39.4612 36.1776C39.9847 35.6553 40.606 35.2414 41.2896 34.9596C41.9732 34.6778 42.7056 34.5336 43.445 34.5352C44.3479 34.5336 45.2375 34.7521 46.0368 35.1717L46.8503 35.5955V21.2227H33.026L33.2619 21.9506C33.5363 22.7944 33.607 23.6913 33.4683 24.5677C33.3296 25.4442 32.9854 26.2753 32.4639 26.9933C31.9424 27.7112 31.2584 28.2955 30.4678 28.6984C29.6772 29.1012 28.8024 29.3113 27.9151 29.3113C27.0277 29.3113 26.153 29.1012 25.3623 28.6984C24.5717 28.2955 23.8877 27.7112 23.3662 26.9933C22.8447 26.2753 22.5005 25.4442 22.3618 24.5677C22.2231 23.6913 22.2938 22.7944 22.5682 21.9506L22.8041 21.2227H8.98002V33.81C8.25995 33.5525 7.50079 33.4215 6.73609 33.4227H6.73514C4.94887 33.4227 3.23576 34.1323 1.97268 35.3954C0.709592 36.6585 0 38.3716 0 40.1578C0 41.9441 0.709592 43.6572 1.97268 44.9203C3.23576 46.1834 4.94887 46.893 6.73514 46.893C7.50019 46.8942 8.25969 46.7632 8.98007 46.5056V72.7739L9.84111 72.2103C10.6893 71.6553 11.6717 71.3399 12.6844 71.2975C13.6971 71.255 14.7024 71.4871 15.594 71.9692C16.4856 72.4513 17.2304 73.1654 17.7494 74.0361C18.2684 74.9067 18.5424 75.9014 18.5424 76.915C18.5424 77.9286 18.2684 78.9234 17.7494 79.794C17.2305 80.6647 16.4858 81.3788 15.5942 81.861C14.7026 82.3431 13.6972 82.5752 12.6845 82.5328C11.6718 82.4904 10.6894 82.175 9.84125 81.62L8.98007 81.0563V95.2939C8.98007 95.4415 9.03869 95.583 9.14303 95.6873C9.24737 95.7917 9.38888 95.8503 9.53644 95.8503C9.684 95.8503 9.82551 95.7917 9.92985 95.6873C10.0342 95.583 10.0928 95.4415 10.0928 95.2939V83.0292C11.119 83.5034 12.2481 83.7116 13.376 83.6348C14.5039 83.5579 15.5943 83.1983 16.5466 82.5892C17.499 81.9802 18.2828 81.1412 18.8257 80.1496C19.3686 79.158 19.6531 78.0456 19.6531 76.9152C19.6531 75.7847 19.3686 74.6724 18.8257 73.6807C18.2828 72.6891 17.499 71.8501 16.5466 71.2411C15.5943 70.632 14.5039 70.2724 13.376 70.1956C12.2481 70.1187 11.119 70.3269 10.0928 70.8011V59.0928H21.5358C21.2995 59.7848 21.1793 60.5111 21.18 61.2423C21.18 63.0285 21.8896 64.7416 23.1527 66.0047C24.4158 67.2678 26.1289 67.9774 27.9152 67.9774C29.7014 67.9774 31.4146 67.2678 32.6776 66.0047C33.9407 64.7416 34.6503 63.0285 34.6503 61.2423C34.6511 60.5111 34.5309 59.7848 34.2946 59.0928H45.7376V72.734L46.5944 72.184C47.4438 71.6386 48.4244 71.3319 49.4332 71.2962C50.4421 71.2605 51.4419 71.497 52.3278 71.981C53.2137 72.4649 53.9529 73.1785 54.4679 74.0467C54.983 74.9149 55.2547 75.9057 55.2547 76.9152C55.2547 77.9246 54.983 78.9155 54.4679 79.7837C53.9529 80.6519 53.2137 81.3654 52.3278 81.8494C51.4419 82.3333 50.4421 82.5699 49.4332 82.5341C48.4244 82.4984 47.4438 82.1917 46.5944 81.6463L45.7376 81.0963V94.7375H32.6306L33.0023 95.5301C33.3546 96.2746 33.5374 97.0879 33.5376 97.9115C33.5376 99.4027 32.9452 100.833 31.8908 101.887C30.8364 102.942 29.4063 103.534 27.9152 103.534C26.424 103.534 24.9939 102.942 23.9395 101.887C22.8851 100.833 22.2928 99.4027 22.2928 97.9115C22.2929 97.088 22.4757 96.2747 22.828 95.5303L23.1999 94.7375H15.1138C14.9662 94.7375 14.8247 94.7961 14.7203 94.9004C14.616 95.0047 14.5574 95.1463 14.5574 95.2938C14.5574 95.4414 14.616 95.5829 14.7203 95.6872C14.8247 95.7916 14.9662 95.8502 15.1138 95.8502H21.5065C21.2896 96.5158 21.1794 97.2115 21.18 97.9115C21.18 99.6978 21.8896 101.411 23.1527 102.674C24.4157 103.937 26.1288 104.647 27.9151 104.647C29.7014 104.647 31.4145 103.937 32.6776 102.674C33.9407 101.411 34.6503 99.6978 34.6503 97.9115C34.6508 97.2115 34.5406 96.5158 34.3236 95.8502H45.7374H60.7037L60.0829 94.9726C59.4874 94.131 59.1347 93.1419 59.0635 92.1134C58.9922 91.085 59.2051 90.0567 59.6789 89.141C60.1526 88.2254 60.869 87.4576 61.7497 86.9217C62.6305 86.3858 63.6416 86.1023 64.6725 86.1023C65.7035 86.1023 66.7146 86.3858 67.5953 86.9217C68.476 87.4576 69.1924 88.2254 69.6661 89.141C70.1399 90.0567 70.3528 91.085 70.2816 92.1134C70.2103 93.1419 69.8576 94.131 69.2621 94.9726L68.6414 95.8503H83.6078V83.373C84.5341 83.6472 85.5086 83.719 86.4652 83.5834C87.4217 83.4478 88.3379 83.1079 89.1515 82.587C89.9651 82.066 90.6571 81.3761 91.1805 80.5641C91.7039 79.7521 92.0466 78.837 92.1851 77.8809C92.3237 76.9248 92.2549 75.9501 91.9835 75.0229C91.7121 74.0957 91.2444 73.2378 90.6121 72.5073C89.9799 71.7768 89.1979 71.1909 88.3192 70.7893C87.4405 70.3878 86.4857 70.18 85.5196 70.18H85.5195ZM45.7375 57.98H32.5723L32.9636 58.7806C33.3413 59.5462 33.5377 60.3884 33.5375 61.2421C33.5375 62.7333 32.9452 64.1634 31.8908 65.2178C30.8364 66.2722 29.4063 66.8645 27.9151 66.8645C26.424 66.8645 24.9939 66.2722 23.9395 65.2178C22.8851 64.1634 22.2927 62.7333 22.2927 61.2421C22.2926 60.3884 22.489 59.5462 22.8666 58.7806L23.2579 57.98H10.0927V44.7516L9.2836 45.1644C8.49537 45.57 7.62157 45.7811 6.73514 45.7802C5.24398 45.7802 3.8139 45.1878 2.7595 44.1334C1.70509 43.079 1.11273 41.6489 1.11273 40.1577C1.11273 38.6666 1.70509 37.2365 2.7595 36.1821C3.8139 35.1277 5.24398 34.5353 6.73514 34.5353H6.73581C7.62196 34.5345 8.49548 34.7455 9.28346 35.1509L10.0926 35.5637V22.3354H21.3173C21.1163 23.3143 21.1357 24.3258 21.3741 25.2963C21.6125 26.2668 22.0638 27.1721 22.6955 27.9466C23.3271 28.7211 24.1231 29.3453 25.0259 29.7739C25.9287 30.2026 26.9155 30.425 27.9149 30.425C28.9143 30.425 29.9011 30.2026 30.8039 29.7739C31.7066 29.3453 32.5027 28.7211 33.1343 27.9466C33.766 27.1721 34.2173 26.2668 34.4557 25.2963C34.6941 24.3258 34.7135 23.3143 34.5125 22.3354H45.7373V33.8256C45.0028 33.5574 44.2267 33.4209 43.4448 33.4225C42.5591 33.4207 41.6819 33.5936 40.8631 33.9312C40.0444 34.2689 39.3003 34.7647 38.6734 35.3903C38.0465 36.0159 37.5492 36.759 37.2099 37.5771C36.8705 38.3951 36.6959 39.272 36.6959 40.1577C36.6959 41.0433 36.8705 41.9203 37.2099 42.7383C37.5492 43.5563 38.0465 44.2994 38.6734 44.925C39.3003 45.5506 40.0444 46.0465 40.8631 46.3841C41.6819 46.7218 42.5591 46.8947 43.4448 46.8929C44.2267 46.8945 45.0028 46.758 45.7373 46.4897L45.7375 57.98ZM85.5195 82.5376C84.7466 82.5384 83.9819 82.3785 83.274 82.0681L82.4951 81.7279V94.7375H70.6977C71.2107 93.7107 71.4527 92.5698 71.4008 91.4231C71.3489 90.2765 71.0049 89.1621 70.4012 88.1858C69.7976 87.2095 68.9545 86.4036 67.9519 85.8447C66.9493 85.2859 65.8205 84.9925 64.6726 84.9925C63.5248 84.9925 62.396 85.2859 61.3934 85.8447C60.3908 86.4036 59.5477 87.2095 58.944 88.1858C58.3404 89.1621 57.9963 90.2765 57.9444 91.4231C57.8925 92.5698 58.1346 93.7107 58.6476 94.7375H46.8502V83.0494C47.8761 83.5145 49.0023 83.7149 50.1256 83.6322C51.249 83.5495 52.3336 83.1864 53.2804 82.5762C54.2271 81.9659 55.0057 81.1279 55.5448 80.1389C56.084 79.15 56.3664 78.0416 56.3664 76.9152C56.3664 75.7888 56.084 74.6804 55.5448 73.6914C55.0057 72.7024 54.2271 71.8645 53.2804 71.2542C52.3336 70.6439 51.249 70.2808 50.1256 70.1981C49.0023 70.1154 47.8761 70.3158 46.8502 70.7809V59.0927H60.6147L60.0226 58.2232C59.4481 57.3781 59.1148 56.3923 59.0585 55.3719C59.0023 54.3515 59.2252 53.335 59.7034 52.4318C60.1815 51.5286 60.8968 50.7728 61.7724 50.2457C62.6479 49.7185 63.6505 49.44 64.6725 49.44C65.6944 49.44 66.6971 49.7185 67.5726 50.2457C68.4481 50.7728 69.1634 51.5286 69.6415 52.4318C70.1197 53.335 70.3426 54.3515 70.2864 55.3719C70.2301 56.3923 69.8968 57.3781 69.3223 58.2232L68.7302 59.0927H82.4947V72.1024L83.2736 71.7622C84.0396 71.4283 84.8705 71.2694 85.7057 71.297C86.5409 71.3247 87.3594 71.5381 88.1017 71.9219C88.844 72.3056 89.4914 72.8501 89.9968 73.5155C90.5023 74.181 90.853 74.9508 91.0235 75.7689C91.1939 76.5869 91.1799 77.4327 90.9824 78.2447C90.7849 79.0566 90.4088 79.8143 89.8816 80.4627C89.3544 81.111 88.6892 81.6337 87.9346 81.9926C87.18 82.3515 86.3548 82.5377 85.5192 82.5376L85.5195 82.5376Z" fill="white"/>
</svg>
