<svg width="32" height="32" viewBox="0 0 32 32" fill="none" xmlns="http://www.w3.org/2000/svg">
<rect width="32" height="32" rx="4" fill="#011142"/>
<path d="M18.5758 11.7125C21.5514 10.5126 24.9408 11.2091 27.2126 13.4835C27.2597 13.5306 27.3188 13.5519 27.3805 13.5519C27.4415 13.5519 27.5005 13.5286 27.5476 13.4835C27.6398 13.3913 27.6398 13.2401 27.5476 13.1479C25.1438 10.7394 21.554 10.0025 18.4007 11.2727C18.2806 11.3225 18.2216 11.4598 18.2687 11.5799C18.3184 11.7026 18.4577 11.7616 18.5758 11.7125Z" fill="white"/>
<path d="M27.2126 24.8314C25.701 26.3457 23.6911 27.1788 21.554 27.1788C19.4162 27.1788 17.4063 26.3457 15.8953 24.8314C12.7732 21.7026 12.7732 16.613 15.8953 13.4836C16.0466 13.3323 16.1971 13.1957 16.351 13.0657L20.4416 21.7424C20.4814 21.8273 20.5663 21.877 20.6565 21.877C20.6897 21.877 20.7249 21.8697 20.758 21.8531C20.8761 21.7968 20.9278 21.6575 20.8714 21.5394L16.6535 12.5934L12.6617 4.12435C12.5841 3.95853 12.3122 3.95853 12.2346 4.12435L4.02287 21.5414C3.96649 21.6594 4.01823 21.8014 4.13629 21.8558C4.25436 21.9122 4.39631 21.8604 4.45004 21.7424L8.60696 12.9218H15.8005C15.7202 12.9947 15.64 13.0677 15.5597 13.1479C12.2531 16.4618 12.2531 21.8511 15.5597 25.1643C17.1589 26.7682 19.2888 27.6517 21.554 27.6517C23.8185 27.6517 25.9464 26.7682 27.5456 25.1643C27.6378 25.0721 27.6378 24.9216 27.5456 24.8294C27.4554 24.7392 27.3048 24.7392 27.2126 24.8314ZM12.4448 4.78036L16.0605 12.4488H8.83116L12.4448 4.78036Z" fill="white"/>
</svg>
